Moderustic-ExtraBold.ufo
<glyph name="exclam" format="2">
  <advance width="255"/>
  <unicode hex="0021"/>
  <outline>
    <contour>
      <point x="27" y="750" type="line"/>
      <point x="48" y="249" type="line"/>
      <point x="207" y="249" type="line"/>
      <point x="227" y="750" type="line"/>
    </contour>
    <contour>
      <point x="127" y="-20" type="curve" smooth="yes"/>
      <point x="180.461" y="-20"/>
      <point x="221.017" y="22.4"/>
      <point x="221.017" y="74.939" type="curve" smooth="yes"/>
      <point x="221.017" y="127.478"/>
      <point x="180.461" y="168.035"/>
      <point x="127" y="168.035" type="curve" smooth="yes"/>
      <point x="72.617" y="168.035"/>
      <point x="32.983" y="127.478"/>
      <point x="32.983" y="74.939" type="curve" smooth="yes"/>
      <point x="32.983" y="22.4"/>
      <point x="72.617" y="-20"/>
    </contour>
  </outline>
</glyph>
<glyph name="numbersign" format="2">
  <advance width="830"/>
  <unicode hex="0023"/>
  <outline>
    <contour>
      <point x="85" y="0" type="line"/>
      <point x="279" y="0" type="line"/>
      <point x="318" y="190" type="line"/>
      <point x="442" y="190" type="line"/>
      <point x="403" y="0" type="line"/>
      <point x="597" y="0" type="line"/>
      <point x="636" y="190" type="line"/>
      <point x="755" y="190" type="line"/>
      <point x="755" y="290" type="line"/>
      <point x="656" y="290" type="line"/>
      <point x="681" y="410" type="line"/>
      <point x="802" y="410" type="line"/>
      <point x="802" y="510" type="line"/>
      <point x="701" y="510" type="line"/>
      <point x="740" y="700" type="line"/>
      <point x="546" y="700" type="line"/>
      <point x="507" y="510" type="line"/>
      <point x="383" y="510" type="line"/>
      <point x="422" y="700" type="line"/>
      <point x="228" y="700" type="line"/>
      <point x="189" y="510" type="line"/>
      <point x="74" y="510" type="line"/>
      <point x="74" y="410" type="line"/>
      <point x="169" y="410" type="line"/>
      <point x="144" y="290" type="line"/>
      <point x="28" y="290" type="line"/>
      <point x="28" y="190" type="line"/>
      <point x="124" y="190" type="line"/>
    </contour>
    <contour>
      <point x="338" y="290" type="line"/>
      <point x="363" y="410" type="line"/>
      <point x="487" y="410" type="line"/>
      <point x="462" y="290" type="line"/>
    </contour>
  </outline>
</glyph>
<glyph name="ampersand" format="2">
  <advance width="664"/>
  <unicode hex="0026"/>
  <outline>
    <contour>
      <point x="275" y="-20" type="curve" smooth="yes"/>
      <point x="468" y="-20"/>
      <point x="579" y="114"/>
      <point x="642" y="206" type="curve"/>
      <point x="550.95" y="297.05" type="line"/>
      <point x="468.442" y="166.966"/>
      <point x="381.298" y="110"/>
      <point x="291.571" y="110" type="curve" smooth="yes"/>
      <point x="241.034" y="110"/>
      <point x="207" y="132.561"/>
      <point x="207" y="187.351" type="curve" smooth="yes"/>
      <point x="207" y="221.73"/>
      <point x="223.939" y="255.034"/>
      <point x="250" y="269" type="curve"/>
      <point x="476" y="0" type="line"/>
      <point x="672" y="0" type="line"/>
      <point x="367.365" y="363.496" type="line"/>
      <point x="341.344" y="341.64" type="line"/>
      <point x="469.372" y="403.933"/>
      <point x="512" y="457.505"/>
      <point x="512" y="538" type="curve" smooth="yes"/>
      <point x="512" y="653"/>
      <point x="426" y="720"/>
      <point x="298" y="720" type="curve" smooth="yes"/>
      <point x="174" y="720"/>
      <point x="87" y="657"/>
      <point x="87" y="556" type="curve" smooth="yes"/>
      <point x="87" y="493"/>
      <point x="121" y="424"/>
      <point x="175" y="377" type="curve"/>
      <point x="92" y="346"/>
      <point x="27" y="282"/>
      <point x="27" y="182" type="curve" smooth="yes"/>
      <point x="27" y="55"/>
      <point x="130" y="-20"/>
    </contour>
    <contour>
      <point x="221" y="406" type="curve"/>
      <point x="310" y="429" type="line"/>
      <point x="281.102" y="459.994"/>
      <point x="251" y="487.4"/>
      <point x="251" y="533.972" type="curve" smooth="yes"/>
      <point x="251" y="567.556"/>
      <point x="267.377" y="590"/>
      <point x="301.599" y="590" type="curve" smooth="yes"/>
      <point x="334.143" y="590"/>
      <point x="348" y="569.792"/>
      <point x="348" y="539.277" type="curve" smooth="yes"/>
      <point x="348" y="469.815"/>
      <point x="286.128" y="443.225"/>
    </contour>
  </outline>
</glyph>
<glyph name="parenleft" format="2">
  <advance width="391"/>
  <unicode hex="0028"/>
  <outline>
    <contour>
      <point x="365" y="-215" type="curve"/>
      <point x="365" y="-107" type="line"/>
      <point x="291" y="-72"/>
      <point x="234" y="100"/>
      <point x="234" y="290" type="curve" smooth="yes"/>
      <point x="234" y="476"/>
      <point x="289" y="635"/>
      <point x="365" y="669" type="curve"/>
      <point x="365" y="777" type="line"/>
      <point x="168" y="740"/>
      <point x="50" y="562"/>
      <point x="50" y="301" type="curve" smooth="yes"/>
      <point x="50" y="25"/>
      <point x="182" y="-191"/>
    </contour>
  </outline>
</glyph>
<glyph name="parenright" format="2">
  <advance width="384"/>
  <unicode hex="0029"/>
  <outline>
    <contour>
      <point x="25" y="-107" type="curve"/>
      <point x="25" y="-215" type="line"/>
      <point x="220" y="-177"/>
      <point x="341" y="17"/>
      <point x="341" y="291" type="curve" smooth="yes"/>
      <point x="341" y="560"/>
      <point x="224" y="740"/>
      <point x="25" y="777" type="curve"/>
      <point x="25" y="669" type="line"/>
      <point x="101" y="635"/>
      <point x="156" y="476"/>
      <point x="156" y="289" type="curve" smooth="yes"/>
      <point x="156" y="99"/>
      <point x="99" y="-73"/>
    </contour>
  </outline>
</glyph>
<glyph name="comma" format="2">
  <advance width="262"/>
  <unicode hex="002C"/>
  <outline>
    <contour>
      <point x="33" y="-126" type="curve"/>
      <point x="47" y="-191" type="line"/>
      <point x="159" y="-136"/>
      <point x="233" y="-34"/>
      <point x="233" y="64" type="curve" smooth="yes"/>
      <point x="233" y="140"/>
      <point x="189" y="184"/>
      <point x="131" y="184" type="curve" smooth="yes"/>
      <point x="72" y="184"/>
      <point x="29" y="140"/>
      <point x="29" y="83" type="curve" smooth="yes"/>
      <point x="29" y="25"/>
      <point x="73" y="-20"/>
      <point x="129" y="-20" type="curve"/>
      <point x="114" y="-53"/>
      <point x="78" y="-92"/>
    </contour>
  </outline>
</glyph>
<glyph name="period" format="2">
  <advance width="262"/>
  <unicode hex="002E"/>
  <outline>
    <contour>
      <point x="131" y="-20" type="curve" smooth="yes"/>
      <point x="189" y="-20"/>
      <point x="233" y="26"/>
      <point x="233" y="83" type="curve" smooth="yes"/>
      <point x="233" y="140"/>
      <point x="189" y="184"/>
      <point x="131" y="184" type="curve" smooth="yes"/>
      <point x="72" y="184"/>
      <point x="29" y="140"/>
      <point x="29" y="83" type="curve" smooth="yes"/>
      <point x="29" y="26"/>
      <point x="72" y="-20"/>
    </contour>
  </outline>
</glyph>
<glyph name="one" format="2">
  <advance width="456"/>
  <unicode hex="0031"/>
  <outline>
    <contour>
      <point x="199" y="478" type="curve"/>
      <point x="199" y="0" type="line"/>
      <point x="389" y="0" type="line"/>
      <point x="389" y="700" type="line"/>
      <point x="222" y="700" type="line"/>
      <point x="165" y="608"/>
      <point x="105" y="535"/>
      <point x="9" y="515" type="curve"/>
      <point x="9" y="368" type="line"/>
      <point x="105" y="391"/>
      <point x="147" y="424"/>
    </contour>
  </outline>
</glyph>
<glyph name="three" format="2">
  <advance width="578"/>
  <unicode hex="0033"/>
  <outline>
    <contour>
      <point x="132" y="192" type="curve"/>
      <point x="24" y="84" type="line"/>
      <point x="87" y="17"/>
      <point x="173" y="-19"/>
      <point x="289" y="-19" type="curve" smooth="yes"/>
      <point x="456" y="-19"/>
      <point x="543" y="56"/>
      <point x="543" y="188" type="curve" smooth="yes"/>
      <point x="543" y="322"/>
      <point x="454" y="386"/>
      <point x="192" y="366" type="curve"/>
      <point x="192" y="276" type="line"/>
      <point x="303" y="276"/>
      <point x="353" y="252"/>
      <point x="353" y="193" type="curve" smooth="yes"/>
      <point x="353" y="146"/>
      <point x="321" y="121"/>
      <point x="268" y="121" type="curve" smooth="yes"/>
      <point x="219" y="121"/>
      <point x="179" y="140"/>
    </contour>
    <contour>
      <point x="192" y="442" type="curve"/>
      <point x="192" y="352" type="line"/>
      <point x="420" y="342"/>
      <point x="520" y="403"/>
      <point x="520" y="525" type="curve" smooth="yes"/>
      <point x="520" y="627"/>
      <point x="449" y="720"/>
      <point x="281" y="720" type="curve" smooth="yes"/>
      <point x="147" y="720"/>
      <point x="64" y="661"/>
      <point x="27" y="624" type="curve"/>
      <point x="135" y="516" type="line"/>
      <point x="165" y="546"/>
      <point x="206" y="580"/>
      <point x="260" y="580" type="curve" smooth="yes"/>
      <point x="304" y="580"/>
      <point x="330" y="557"/>
      <point x="330" y="514" type="curve" smooth="yes"/>
      <point x="330" y="461"/>
      <point x="290" y="442"/>
    </contour>
  </outline>
</glyph>
<glyph name="four" format="2">
  <advance width="665"/>
  <unicode hex="0034"/>
  <outline>
    <contour>
      <point x="8" y="258" type="line"/>
      <point x="8" y="151" type="line"/>
      <point x="344" y="151" type="line"/>
      <point x="344" y="0" type="line"/>
      <point x="524" y="0" type="line"/>
      <point x="524" y="151" type="line"/>
      <point x="650" y="151" type="line"/>
      <point x="650" y="291" type="line"/>
      <point x="524" y="291" type="line"/>
      <point x="524" y="700" type="line"/>
      <point x="295" y="700" type="line"/>
    </contour>
    <contour>
      <point x="344" y="291" type="line"/>
      <point x="208" y="291" type="line"/>
      <point x="344" y="500" type="line"/>
    </contour>
  </outline>
</glyph>
<glyph name="five" format="2">
  <advance width="605"/>
  <unicode hex="0035"/>
  <outline>
    <contour>
      <point x="128" y="207" type="curve"/>
      <point x="23" y="102" type="line"/>
      <point x="93" y="24"/>
      <point x="169" y="-20"/>
      <point x="281.907" y="-20" type="curve" smooth="yes"/>
      <point x="457" y="-20"/>
      <point x="570" y="79.789"/>
      <point x="570" y="230.469" type="curve" smooth="yes"/>
      <point x="570" y="364.186"/>
      <point x="480" y="452"/>
      <point x="350" y="452" type="curve" smooth="yes"/>
      <point x="306" y="452"/>
      <point x="268" y="442.4"/>
      <point x="244" y="428" type="curve"/>
      <point x="264" y="560" type="line"/>
      <point x="538" y="560" type="line"/>
      <point x="538" y="700" type="line"/>
      <point x="117" y="700" type="line"/>
      <point x="48" y="242" type="line"/>
      <point x="151" y="293"/>
      <point x="222" y="322"/>
      <point x="283" y="322" type="curve" smooth="yes"/>
      <point x="350" y="322"/>
      <point x="380" y="286"/>
      <point x="380" y="226" type="curve" smooth="yes"/>
      <point x="380" y="164"/>
      <point x="348" y="120"/>
      <point x="272" y="120" type="curve" smooth="yes"/>
      <point x="211" y="120"/>
      <point x="177" y="149"/>
    </contour>
  </outline>
</glyph>
<glyph name="six" format="2">
  <advance width="631"/>
  <unicode hex="0036"/>
  <outline>
    <contour>
      <point x="486.729" y="516" type="curve"/>
      <point x="594.729" y="624" type="line"/>
      <point x="557.729" y="661"/>
      <point x="476" y="720"/>
      <point x="342" y="720" type="curve" smooth="yes"/>
      <point x="145" y="720"/>
      <point x="28" y="582"/>
      <point x="28" y="330" type="curve" smooth="yes"/>
      <point x="28" y="100"/>
      <point x="132" y="-20"/>
      <point x="323" y="-20" type="curve" smooth="yes"/>
      <point x="502" y="-20"/>
      <point x="599" y="86"/>
      <point x="599" y="229" type="curve" smooth="yes"/>
      <point x="599" y="372"/>
      <point x="494" y="458"/>
      <point x="355" y="458" type="curve" smooth="yes"/>
      <point x="263.277" y="458"/>
      <point x="193.168" y="420.462"/>
      <point x="158.016" y="345.386" type="curve"/>
      <point x="189.424" y="336.957" type="line"/>
      <point x="183.148" y="503.985"/>
      <point x="249.676" y="580"/>
      <point x="361.729" y="580" type="curve" smooth="yes"/>
      <point x="415.729" y="580"/>
      <point x="456.729" y="546"/>
    </contour>
    <contour>
      <point x="223" y="216" type="curve" smooth="yes"/>
      <point x="223" y="284"/>
      <point x="260" y="324"/>
      <point x="321" y="324" type="curve" smooth="yes"/>
      <point x="378" y="324"/>
      <point x="409" y="289"/>
      <point x="409" y="226" type="curve" smooth="yes"/>
      <point x="409" y="159"/>
      <point x="374" y="120"/>
      <point x="312" y="120" type="curve" smooth="yes"/>
      <point x="255" y="120"/>
      <point x="223" y="153"/>
    </contour>
  </outline>
</glyph>
<glyph name="equal" format="2">
  <advance width="514"/>
  <unicode hex="003D"/>
  <outline>
    <contour>
      <point x="50" y="173" type="line"/>
      <point x="50" y="137" type="line"/>
      <point x="464" y="137" type="line"/>
      <point x="464" y="173" type="line"/>
    </contour>
    <contour>
      <point x="50" y="393" type="line"/>
      <point x="50" y="357" type="line"/>
      <point x="464" y="357" type="line"/>
      <point x="464" y="393" type="line"/>
    </contour>
  </outline>
</glyph>
<glyph name="question" format="2">
  <advance width="551"/>
  <unicode hex="003F"/>
  <outline>
    <contour>
      <point x="152" y="365" type="curve"/>
      <point x="152" y="250" type="line"/>
      <point x="342" y="250" type="line"/>
      <point x="342" y="334" type="line"/>
      <point x="448" y="390"/>
      <point x="519" y="480"/>
      <point x="519" y="575" type="curve" smooth="yes"/>
      <point x="519" y="688"/>
      <point x="418" y="767"/>
      <point x="274" y="767" type="curve" smooth="yes"/>
      <point x="161" y="767"/>
      <point x="60" y="718"/>
      <point x="2" y="646" type="curve"/>
      <point x="108" y="540" type="line"/>
      <point x="157" y="600"/>
      <point x="212" y="626"/>
      <point x="258" y="626" type="curve" smooth="yes"/>
      <point x="310" y="626"/>
      <point x="329" y="593"/>
      <point x="329" y="552" type="curve" smooth="yes"/>
      <point x="329" y="482"/>
      <point x="275" y="426"/>
    </contour>
    <contour>
      <point x="250" y="-20" type="curve" smooth="yes"/>
      <point x="303.33" y="-20"/>
      <point x="343.788" y="22.297"/>
      <point x="343.788" y="74.707" type="curve" smooth="yes"/>
      <point x="343.788" y="127.118"/>
      <point x="303.33" y="167.576"/>
      <point x="250" y="167.576" type="curve" smooth="yes"/>
      <point x="195.75" y="167.576"/>
      <point x="156.212" y="127.118"/>
      <point x="156.212" y="74.707" type="curve" smooth="yes"/>
      <point x="156.212" y="22.297"/>
      <point x="195.75" y="-20"/>
    </contour>
  </outline>
</glyph>
<glyph name="at" format="2">
  <advance width="885"/>
  <unicode hex="0040"/>
  <outline>
    <contour>
      <point x="423" y="-159" type="curve" smooth="yes"/>
      <point x="463" y="-159"/>
      <point x="499" y="-154"/>
      <point x="534" y="-147" type="curve"/>
      <point x="534" y="-57" type="line"/>
      <point x="504.977" y="-63"/>
      <point x="469.605" y="-69"/>
      <point x="434.233" y="-69" type="curve" smooth="yes"/>
      <point x="271.884" y="-69"/>
      <point x="144" y="43"/>
      <point x="144" y="247.444" type="curve" smooth="yes"/>
      <point x="144" y="464.333"/>
      <point x="285.093" y="571"/>
      <point x="446.468" y="571" type="curve" smooth="yes"/>
      <point x="608.725" y="571"/>
      <point x="741" y="464.86"/>
      <point x="741" y="279.772" type="curve" smooth="yes"/>
      <point x="741" y="162.228"/>
      <point x="707.519" y="121"/>
      <point x="671.249" y="121" type="curve" smooth="yes"/>
      <point x="647.254" y="121"/>
      <point x="640" y="133.077"/>
      <point x="640" y="170.238" type="curve" smooth="yes"/>
      <point x="640" y="182.315" type="line"/>
      <point x="659" y="422" type="line"/>
      <point x="610.755" y="447"/>
      <point x="557.707" y="460"/>
      <point x="492.502" y="460" type="curve" smooth="yes"/>
      <point x="303.519" y="460"/>
      <point x="214" y="349"/>
      <point x="214" y="220" type="curve" smooth="yes"/>
      <point x="214" y="90"/>
      <point x="304.688" y="21"/>
      <point x="412.857" y="21" type="curve" smooth="yes"/>
      <point x="499.174" y="21"/>
      <point x="531.864" y="63"/>
      <point x="551" y="118" type="curve"/>
      <point x="548" y="59"/>
      <point x="598" y="23"/>
      <point x="668" y="23" type="curve" smooth="yes"/>
      <point x="793" y="23"/>
      <point x="841" y="136"/>
      <point x="841" y="282" type="curve" smooth="yes"/>
      <point x="841" y="507"/>
      <point x="680" y="661"/>
      <point x="448" y="661" type="curve" smooth="yes"/>
      <point x="216" y="661"/>
      <point x="44" y="507"/>
      <point x="44" y="244" type="curve" smooth="yes"/>
      <point x="44" y="-6"/>
      <point x="199" y="-159"/>
    </contour>
    <contour>
      <point x="423.894" y="125" type="curve" smooth="yes"/>
      <point x="383.828" y="125"/>
      <point x="374" y="152.328"/>
      <point x="374" y="212.109" type="curve" smooth="yes"/>
      <point x="374" y="305.197"/>
      <point x="408.168" y="359"/>
      <point x="459.04" y="359" type="curve" smooth="yes"/>
      <point x="479.541" y="359"/>
      <point x="492.448" y="356.118"/>
      <point x="511" y="352" type="curve"/>
      <point x="508.35" y="324.335"/>
      <point x="503.003" y="287.458"/>
      <point x="500.399" y="262.866" type="curve" smooth="yes"/>
      <point x="488.869" y="153.983"/>
      <point x="472.277" y="125"/>
    </contour>
  </outline>
</glyph>
<glyph name="A" format="2">
  <advance width="655"/>
  <unicode hex="0041"/>
  <anchor x="328" y="-20" name="bottom"/>
  <anchor x="650" y="-2" name="ogonek"/>
  <anchor x="328" y="719" name="top"/>
  <anchor x="66" y="500" name="topgr"/>
  <outline>
    <contour>
      <point x="459" y="0" type="line"/>
      <point x="658" y="0" type="line"/>
      <point x="431" y="700" type="line"/>
      <point x="276" y="700" type="line"/>
    </contour>
    <contour>
      <point x="193" y="106" type="line"/>
      <point x="459" y="106" type="line"/>
      <point x="415" y="236" type="line"/>
      <point x="237" y="236" type="line"/>
    </contour>
    <contour>
      <point x="-3" y="0" type="line"/>
      <point x="196" y="0" type="line"/>
      <point x="379" y="700" type="line"/>
      <point x="224" y="700" type="line"/>
    </contour>
  </outline>
</glyph>
<glyph name="B" format="2">
  <advance width="634"/>
  <unicode hex="0042"/>
  <anchor x="328" y="-20" name="bottom"/>
  <anchor x="308" y="719" name="top"/>
  <outline>
    <contour>
      <point x="316" y="700" type="curve" smooth="yes"/>
      <point x="68" y="700" type="line"/>
      <point x="68" y="0" type="line"/>
      <point x="356" y="0" type="line" smooth="yes"/>
      <point x="518" y="0"/>
      <point x="604" y="97"/>
      <point x="604" y="205" type="curve" smooth="yes"/>
      <point x="604" y="328"/>
      <point x="494" y="372"/>
      <point x="365" y="372" type="curve"/>
      <point x="493" y="372"/>
      <point x="558" y="426"/>
      <point x="558" y="518" type="curve" smooth="yes"/>
      <point x="558" y="614"/>
      <point x="487" y="700"/>
    </contour>
    <contour>
      <point x="301" y="140" type="curve" smooth="yes"/>
      <point x="258" y="140" type="line"/>
      <point x="258" y="560" type="line"/>
      <point x="284" y="560" type="line" smooth="yes"/>
      <point x="343" y="560"/>
      <point x="369" y="538"/>
      <point x="369" y="501" type="curve" smooth="yes"/>
      <point x="369" y="461"/>
      <point x="338" y="436"/>
      <point x="292" y="436" type="curve" smooth="yes"/>
      <point x="100" y="436" type="line"/>
      <point x="100" y="300" type="line"/>
      <point x="286" y="300" type="line" smooth="yes"/>
      <point x="373" y="300"/>
      <point x="416" y="287"/>
      <point x="416" y="223" type="curve" smooth="yes"/>
      <point x="416" y="163"/>
      <point x="377" y="140"/>
    </contour>
  </outline>
</glyph>
<glyph name="D" format="2">
  <advance width="722"/>
  <unicode hex="0044"/>
  <anchor x="318" y="-20" name="bottom"/>
  <anchor x="318" y="719" name="top"/>
  <outline>
    <contour>
      <point x="58" y="0" type="line"/>
      <point x="342" y="0" type="line" smooth="yes"/>
      <point x="555" y="0"/>
      <point x="699" y="141"/>
      <point x="699" y="350" type="curve" smooth="yes"/>
      <point x="699" y="558"/>
      <point x="554" y="700"/>
      <point x="342" y="700" type="curve" smooth="yes"/>
      <point x="58" y="700" type="line"/>
    </contour>
    <contour>
      <point x="321.431" y="140" type="curve" smooth="yes"/>
      <point x="248" y="140" type="line"/>
      <point x="248" y="560" type="line"/>
      <point x="321.431" y="560" type="line" smooth="yes"/>
      <point x="440.508" y="560"/>
      <point x="506" y="489"/>
      <point x="506" y="359" type="curve" smooth="yes"/>
      <point x="506" y="224"/>
      <point x="435.546" y="140"/>
    </contour>
  </outline>
</glyph>
<glyph name="E" format="2">
  <advance width="530"/>
  <unicode hex="0045"/>
  <anchor x="276" y="-20" name="bottom"/>
  <anchor x="488" y="-2" name="ogonek"/>
  <anchor x="265" y="719" name="top"/>
  <anchor x="-60" y="500" name="topgr"/>
  <outline>
    <contour>
      <point x="58" y="0" type="line"/>
      <point x="495" y="0" type="line"/>
      <point x="495" y="140" type="line"/>
      <point x="248" y="140" type="line"/>
      <point x="248" y="297" type="line"/>
      <point x="455" y="297" type="line"/>
      <point x="455" y="437" type="line"/>
      <point x="248" y="437" type="line"/>
      <point x="248" y="560" type="line"/>
      <point x="480" y="560" type="line"/>
      <point x="480" y="700" type="line"/>
      <point x="58" y="700" type="line"/>
    </contour>
  </outline>
</glyph>
<glyph name="G" format="2">
  <advance width="776"/>
  <unicode hex="0047"/>
  <anchor x="383" y="-20" name="bottom"/>
  <anchor x="383" y="719" name="top"/>
  <outline>
    <contour>
      <point x="577" y="251" type="line"/>
      <point x="577" y="0" type="line"/>
      <point x="719" y="0" type="line"/>
      <point x="719" y="391" type="line"/>
      <point x="331" y="391" type="line"/>
      <point x="331" y="251" type="line"/>
    </contour>
    <contour>
      <point x="614" y="219" type="curve"/>
      <point x="566" y="307" type="line"/>
      <point x="566" y="193.855"/>
      <point x="481.483" y="124"/>
      <point x="380.062" y="124" type="curve" smooth="yes"/>
      <point x="291.568" y="124"/>
      <point x="216" y="177.293"/>
      <point x="216" y="357.895" type="curve" smooth="yes"/>
      <point x="216" y="504.943"/>
      <point x="266.706" y="576"/>
      <point x="384.026" y="576" type="curve" smooth="yes"/>
      <point x="454.617" y="576"/>
      <point x="506.317" y="550.907"/>
      <point x="561" y="493" type="curve"/>
      <point x="667" y="599" type="line"/>
      <point x="613" y="665"/>
      <point x="507" y="720"/>
      <point x="370" y="720" type="curve" smooth="yes"/>
      <point x="156" y="720"/>
      <point x="23" y="587"/>
      <point x="23" y="350" type="curve" smooth="yes"/>
      <point x="23" y="133"/>
      <point x="143" y="-20"/>
      <point x="337" y="-20" type="curve" smooth="yes"/>
      <point x="506" y="-20"/>
      <point x="614" y="96"/>
    </contour>
  </outline>
</glyph>
<glyph name="I" format="2">
  <advance width="326"/>
  <unicode hex="0049"/>
  <anchor x="163" y="-20" name="bottom"/>
  <anchor x="251" y="-3" name="ogonek"/>
  <anchor x="163" y="719" name="top"/>
  <anchor x="-50" y="500" name="topgr"/>
  <outline>
    <contour>
      <point x="68" y="0" type="line"/>
      <point x="258" y="0" type="line"/>
      <point x="258" y="700" type="line"/>
      <point x="68" y="700" type="line"/>
    </contour>
  </outline>
</glyph>
<glyph name="J" format="2">
  <advance width="540"/>
  <unicode hex="004A"/>
  <anchor x="248" y="-20" name="bottom"/>
  <anchor x="399" y="719" name="top"/>
  <outline>
    <contour>
      <point x="106" y="228" type="curve"/>
      <point x="0" y="122" type="line"/>
      <point x="65" y="24"/>
      <point x="139" y="-20"/>
      <point x="248" y="-20" type="curve" smooth="yes"/>
      <point x="412" y="-20"/>
      <point x="490" y="80"/>
      <point x="490" y="242" type="curve" smooth="yes"/>
      <point x="490" y="700" type="line"/>
      <point x="300" y="700" type="line"/>
      <point x="300" y="249" type="line" smooth="yes"/>
      <point x="300" y="164"/>
      <point x="283.534" y="120"/>
      <point x="233.967" y="120" type="curve" smooth="yes"/>
      <point x="187.576" y="120"/>
      <point x="146.102" y="159.569"/>
    </contour>
  </outline>
</glyph>
<glyph name="L" format="2">
  <advance width="524"/>
  <unicode hex="004C"/>
  <anchor x="277" y="-20" name="bottom"/>
  <anchor x="162" y="719" name="top"/>
  <anchor x="332" y="700" name="topright"/>
  <outline>
    <contour>
      <point x="58" y="0" type="line"/>
      <point x="514" y="0" type="line"/>
      <point x="514" y="140" type="line"/>
      <point x="248" y="140" type="line"/>
      <point x="248" y="700" type="line"/>
      <point x="58" y="700" type="line"/>
    </contour>
  </outline>
</glyph>
<glyph name="M" format="2">
  <advance width="888"/>
  <unicode hex="004D"/>
  <anchor x="444" y="-20" name="bottom"/>
  <anchor x="444" y="719" name="top"/>
  <outline>
    <contour>
      <point x="58" y="0" type="line"/>
      <point x="238" y="0" type="line"/>
      <point x="238" y="321" type="line"/>
      <point x="384" y="0" type="line"/>
      <point x="504" y="0" type="line"/>
      <point x="650" y="321" type="line"/>
      <point x="650" y="0" type="line"/>
      <point x="830" y="0" type="line"/>
      <point x="830" y="700" type="line"/>
      <point x="650" y="700" type="line"/>
      <point x="444" y="249" type="line"/>
      <point x="238" y="700" type="line"/>
      <point x="58" y="700" type="line"/>
    </contour>
  </outline>
</glyph>
<glyph name="Q" format="2">
  <advance width="775"/>
  <unicode hex="0051"/>
  <anchor x="388" y="-20" name="bottom"/>
  <anchor x="512" y="-2" name="ogonek"/>
  <anchor x="388" y="719" name="top"/>
  <outline>
    <contour>
      <point x="387" y="-20" type="curve" smooth="yes"/>
      <point x="604" y="-20"/>
      <point x="752" y="125"/>
      <point x="752" y="350" type="curve" smooth="yes"/>
      <point x="752" y="568"/>
      <point x="608" y="720"/>
      <point x="388" y="720" type="curve" smooth="yes"/>
      <point x="168" y="720"/>
      <point x="23" y="569"/>
      <point x="23" y="350" type="curve" smooth="yes"/>
      <point x="23" y="127"/>
      <point x="171" y="-20"/>
    </contour>
    <contour>
      <point x="634" y="-230" type="curve"/>
      <point x="634" y="-90" type="line"/>
      <point x="513" y="-90"/>
      <point x="483" y="-87"/>
      <point x="483" y="-3" type="curve"/>
      <point x="323" y="-3" type="line"/>
      <point x="323" y="-194"/>
      <point x="386" y="-230"/>
    </contour>
    <contour>
      <point x="388.983" y="124" type="curve" smooth="yes"/>
      <point x="280.251" y="124"/>
      <point x="216" y="210.847"/>
      <point x="216" y="352.961" type="curve" smooth="yes"/>
      <point x="216" y="496.061"/>
      <point x="276.297" y="576"/>
      <point x="385.029" y="576" type="curve" smooth="yes"/>
      <point x="495.738" y="576"/>
      <point x="559" y="491.127"/>
      <point x="559" y="346.052" type="curve" smooth="yes"/>
      <point x="559" y="202.952"/>
      <point x="498.703" y="124"/>
    </contour>
  </outline>
</glyph>
<glyph name="R" format="2">
  <advance width="648"/>
  <unicode hex="0052"/>
  <anchor x="324" y="-20" name="bottom"/>
  <anchor x="324" y="719" name="top"/>
  <outline>
    <contour>
      <point x="58" y="0" type="line"/>
      <point x="248" y="0" type="line"/>
      <point x="248" y="560" type="line"/>
      <point x="309" y="560" type="line" smooth="yes"/>
      <point x="393" y="560"/>
      <point x="418" y="534"/>
      <point x="418" y="472" type="curve" smooth="yes"/>
      <point x="418" y="410"/>
      <point x="393" y="384"/>
      <point x="309" y="384" type="curve" smooth="yes"/>
      <point x="100" y="384" type="line"/>
      <point x="100" y="244" type="line"/>
      <point x="348" y="244" type="line" smooth="yes"/>
      <point x="507" y="244"/>
      <point x="609" y="334"/>
      <point x="609" y="476" type="curve" smooth="yes"/>
      <point x="609" y="615"/>
      <point x="511" y="700"/>
      <point x="348" y="700" type="curve" smooth="yes"/>
      <point x="58" y="700" type="line"/>
    </contour>
    <contour>
      <point x="423" y="0" type="line"/>
      <point x="627" y="0" type="line"/>
      <point x="457" y="333" type="line"/>
      <point x="280" y="281" type="line"/>
    </contour>
  </outline>
</glyph>
<glyph name="S" format="2">
  <advance width="600"/>
  <unicode hex="0053"/>
  <anchor x="310" y="-20" name="bottom"/>
  <anchor x="286" y="719" name="top"/>
  <outline>
    <contour>
      <point x="304" y="-20" type="curve" smooth="yes"/>
      <point x="466" y="-20"/>
      <point x="563" y="61.135"/>
      <point x="563" y="209.382" type="curve" smooth="yes"/>
      <point x="563" y="308.548"/>
      <point x="499.006" y="369.673"/>
      <point x="356" y="407.713" type="curve" smooth="yes"/>
      <point x="258.006" y="433.78"/>
      <point x="230" y="453.79"/>
      <point x="230" y="500.868" type="curve" smooth="yes"/>
      <point x="230" y="546.945"/>
      <point x="257" y="580"/>
      <point x="309" y="580" type="curve" smooth="yes"/>
      <point x="358" y="580"/>
      <point x="405" y="549.651"/>
      <point x="455" y="493" type="curve"/>
      <point x="561" y="599" type="line"/>
      <point x="509" y="663"/>
      <point x="417" y="720"/>
      <point x="291" y="720" type="curve" smooth="yes"/>
      <point x="135" y="720"/>
      <point x="40" y="632.855"/>
      <point x="40" y="492.621" type="curve" smooth="yes"/>
      <point x="40" y="379.432"/>
      <point x="117.746" y="305.222"/>
      <point x="279.281" y="266.244" type="curve" smooth="yes"/>
      <point x="346.06" y="250.13"/>
      <point x="373" y="236.194"/>
      <point x="373" y="193.122" type="curve" smooth="yes"/>
      <point x="373" y="147.045"/>
      <point x="343.124" y="120"/>
      <point x="287.355" y="120" type="curve" smooth="yes"/>
      <point x="228.599" y="120"/>
      <point x="181.793" y="150.349"/>
      <point x="132" y="207" type="curve"/>
      <point x="26" y="101" type="line"/>
      <point x="78" y="37"/>
      <point x="169" y="-20"/>
    </contour>
  </outline>
</glyph>
<glyph name="T" format="2">
  <advance width="626"/>
  <unicode hex="0054"/>
  <anchor x="313" y="0" name="bottom"/>
  <anchor x="313" y="719" name="top"/>
  <outline>
    <contour>
      <point x="218" y="560" type="line"/>
      <point x="218" y="0" type="line"/>
      <point x="408" y="0" type="line"/>
      <point x="408" y="560" type="line"/>
      <point x="616" y="560" type="line"/>
      <point x="616" y="700" type="line"/>
      <point x="10" y="700" type="line"/>
      <point x="10" y="560" type="line"/>
    </contour>
  </outline>
</glyph>
<glyph name="U" format="2">
  <advance width="675"/>
  <unicode hex="0055"/>
  <anchor x="338" y="-20" name="bottom"/>
  <anchor x="461" y="-1" name="ogonek"/>
  <anchor x="338" y="719" name="top"/>
  <outline>
    <contour>
      <point x="240" y="278" type="curve" smooth="yes"/>
      <point x="240" y="700" type="line"/>
      <point x="50" y="700" type="line"/>
      <point x="50" y="262" type="line" smooth="yes"/>
      <point x="50" y="88"/>
      <point x="158.784" y="-20"/>
      <point x="335.946" y="-20" type="curve" smooth="yes"/>
      <point x="513.108" y="-20"/>
      <point x="625" y="89"/>
      <point x="625" y="262" type="curve" smooth="yes"/>
      <point x="625" y="700" type="line"/>
      <point x="435" y="700" type="line"/>
      <point x="435" y="278" type="line" smooth="yes"/>
      <point x="435" y="170"/>
      <point x="403.8" y="120"/>
      <point x="336.943" y="120" type="curve" smooth="yes"/>
      <point x="270.086" y="120"/>
      <point x="240" y="169"/>
    </contour>
  </outline>
</glyph>
<glyph name="V" format="2">
  <advance width="655"/>
  <unicode hex="0056"/>
  <anchor x="328" y="-20" name="bottom"/>
  <anchor x="328" y="719" name="top"/>
  <outline>
    <contour>
      <point x="459" y="700" type="line"/>
      <point x="276" y="0" type="line"/>
      <point x="431" y="0" type="line"/>
      <point x="658" y="700" type="line"/>
    </contour>
    <contour>
      <point x="-3" y="700" type="line"/>
      <point x="224" y="0" type="line"/>
      <point x="379" y="0" type="line"/>
      <point x="196" y="700" type="line"/>
    </contour>
  </outline>
</glyph>
<glyph name="W" format="2">
  <advance width="960"/>
  <unicode hex="0057"/>
  <anchor x="480" y="-20" name="bottom"/>
  <anchor x="480" y="719" name="top"/>
  <outline>
    <contour>
      <point x="615" y="0" type="line"/>
      <point x="772" y="0" type="line"/>
      <point x="973" y="700" type="line"/>
      <point x="775" y="700" type="line"/>
    </contour>
    <contour>
      <point x="189" y="0" type="line"/>
      <point x="346" y="0" type="line"/>
      <point x="186" y="700" type="line"/>
      <point x="-12" y="700" type="line"/>
    </contour>
    <contour>
      <point x="232" y="0" type="line"/>
      <point x="381" y="0" type="line"/>
      <point x="546" y="700" type="line"/>
      <point x="392" y="700" type="line"/>
    </contour>
    <contour>
      <point x="580" y="0" type="line"/>
      <point x="729" y="0" type="line"/>
      <point x="569" y="700" type="line"/>
      <point x="415" y="700" type="line"/>
    </contour>
  </outline>
</glyph>
<glyph name="X" format="2">
  <advance width="648"/>
  <unicode hex="0058"/>
  <anchor x="324" y="-20" name="bottom"/>
  <anchor x="324" y="719" name="top"/>
  <outline>
    <contour>
      <point x="211" y="354" type="line"/>
      <point x="-2" y="0" type="line"/>
      <point x="221" y="0" type="line"/>
      <point x="325" y="188" type="line"/>
      <point x="429" y="0" type="line"/>
      <point x="649" y="0" type="line"/>
      <point x="436" y="354" type="line"/>
      <point x="644" y="700" type="line"/>
      <point x="425" y="700" type="line"/>
      <point x="324" y="518" type="line"/>
      <point x="223" y="700" type="line"/>
      <point x="3" y="700" type="line"/>
    </contour>
  </outline>
</glyph>
<glyph name="Y" format="2">
  <advance width="642"/>
  <unicode hex="0059"/>
  <anchor x="321" y="-20" name="bottom"/>
  <anchor x="321" y="719" name="top"/>
  <anchor x="-125" y="500" name="topgr"/>
  <outline>
    <contour>
      <point x="226" y="279" type="line"/>
      <point x="226" y="0" type="line"/>
      <point x="416" y="0" type="line"/>
      <point x="416" y="279" type="line"/>
      <point x="649" y="700" type="line"/>
      <point x="437" y="700" type="line"/>
      <point x="326" y="472" type="line"/>
      <point x="210" y="700" type="line"/>
      <point x="-7" y="700" type="line"/>
    </contour>
  </outline>
</glyph>
<glyph name="Z" format="2">
  <advance width="577"/>
  <unicode hex="005A"/>
  <anchor x="290" y="-20" name="bottom"/>
  <anchor x="300" y="719" name="top"/>
  <outline>
    <contour>
      <point x="20" y="130" type="line"/>
      <point x="20" y="0" type="line"/>
      <point x="560" y="0" type="line"/>
      <point x="560" y="140" type="line"/>
      <point x="227" y="140" type="line"/>
      <point x="558" y="570" type="line"/>
      <point x="558" y="700" type="line"/>
      <point x="48" y="700" type="line"/>
      <point x="48" y="560" type="line"/>
      <point x="351" y="560" type="line"/>
    </contour>
  </outline>
</glyph>
<glyph name="underscore" format="2">
  <advance width="500"/>
  <unicode hex="005F"/>
  <outline>
    <contour>
      <point x="0" y="-63" type="line"/>
      <point x="500" y="-63" type="line"/>
      <point x="500" y="-27" type="line"/>
      <point x="0" y="-27" type="line"/>
    </contour>
  </outline>
</glyph>
<glyph name="a" format="2">
  <advance width="596"/>
  <unicode hex="0061"/>
  <anchor x="283" y="-20" name="bottom"/>
  <anchor x="545" y="-3" name="ogonek"/>
  <anchor x="291" y="520" name="top"/>
  <outline>
    <contour>
      <point x="224.545" y="-20" type="curve" smooth="yes"/>
      <point x="337.532" y="-20"/>
      <point x="395" y="82"/>
      <point x="395" y="258" type="curve" smooth="yes"/>
      <point x="395" y="432"/>
      <point x="338.506" y="520"/>
      <point x="220.649" y="520" type="curve" smooth="yes"/>
      <point x="89.156" y="520"/>
      <point x="20" y="401"/>
      <point x="20" y="252" type="curve" smooth="yes"/>
      <point x="20" y="89"/>
      <point x="102.792" y="-20"/>
    </contour>
    <contour>
      <point x="287.908" y="116" type="curve" smooth="yes"/>
      <point x="240.037" y="116"/>
      <point x="210" y="167"/>
      <point x="210" y="251" type="curve" smooth="yes"/>
      <point x="210" y="334"/>
      <point x="239.098" y="383"/>
      <point x="286.969" y="383" type="curve" smooth="yes"/>
      <point x="334.84" y="383"/>
      <point x="363" y="335"/>
      <point x="363" y="251" type="curve" smooth="yes"/>
      <point x="363" y="168"/>
      <point x="335.779" y="116"/>
    </contour>
    <contour>
      <point x="363" y="0" type="line"/>
      <point x="553" y="0" type="line"/>
      <point x="553" y="500" type="line"/>
      <point x="363" y="500" type="line"/>
    </contour>
  </outline>
</glyph>
<glyph name="b" format="2">
  <advance width="600"/>
  <unicode hex="0062"/>
  <anchor x="330" y="-20" name="bottom"/>
  <anchor x="338" y="750" name="top"/>
  <outline>
    <contour>
      <point x="45" y="750" type="line"/>
      <point x="45" y="0" type="line"/>
      <point x="235" y="0" type="line"/>
      <point x="235" y="750" type="line"/>
    </contour>
    <contour>
      <point x="372.974" y="-20" type="curve" smooth="yes"/>
      <point x="495" y="-20"/>
      <point x="578" y="99"/>
      <point x="578" y="255" type="curve" smooth="yes"/>
      <point x="578" y="411"/>
      <point x="509" y="520"/>
      <point x="377.319" y="520" type="curve" smooth="yes"/>
      <point x="259" y="520"/>
      <point x="203" y="432"/>
      <point x="203" y="255" type="curve" smooth="yes"/>
      <point x="203" y="82"/>
      <point x="260" y="-20"/>
    </contour>
    <contour>
      <point x="307" y="120" type="curve" smooth="yes"/>
      <point x="262" y="120"/>
      <point x="235" y="170.637"/>
      <point x="235" y="255.356" type="curve" smooth="yes"/>
      <point x="235" y="333.258"/>
      <point x="263" y="380"/>
      <point x="311" y="380" type="curve" smooth="yes"/>
      <point x="359" y="380"/>
      <point x="388" y="332.285"/>
      <point x="388" y="254.382" type="curve" smooth="yes"/>
      <point x="388" y="169.663"/>
      <point x="358" y="120"/>
    </contour>
  </outline>
</glyph>
<glyph name="c" format="2">
  <advance width="545"/>
  <unicode hex="0063"/>
  <anchor x="304" y="-20" name="bottom"/>
  <anchor x="304" y="520" name="top"/>
  <outline>
    <contour>
      <point x="293" y="-20" type="curve" smooth="yes"/>
      <point x="398" y="-20"/>
      <point x="469" y="14"/>
      <point x="525" y="70" type="curve"/>
      <point x="427.235" y="167.765" type="line"/>
      <point x="397" y="137.124"/>
      <point x="356" y="120"/>
      <point x="313" y="120" type="curve" smooth="yes"/>
      <point x="247" y="120"/>
      <point x="220" y="163.643"/>
      <point x="220" y="250.929" type="curve" smooth="yes"/>
      <point x="220" y="337.286"/>
      <point x="243" y="380"/>
      <point x="318" y="380" type="curve" smooth="yes"/>
      <point x="362" y="380"/>
      <point x="389.883" y="365.179"/>
      <point x="424" y="332" type="curve"/>
      <point x="522" y="430" type="line"/>
      <point x="466" y="486"/>
      <point x="396" y="520"/>
      <point x="293" y="520" type="curve" smooth="yes"/>
      <point x="130" y="520"/>
      <point x="30" y="421"/>
      <point x="30" y="255" type="curve" smooth="yes"/>
      <point x="30" y="79"/>
      <point x="131" y="-20"/>
    </contour>
  </outline>
</glyph>
<glyph name="d" format="2">
  <advance width="597"/>
  <unicode hex="0064"/>
  <anchor x="266" y="-20" name="bottom"/>
  <anchor x="259" y="750" name="top"/>
  <anchor x="601" y="750" name="topright"/>
  <outline>
    <contour>
      <point x="237" y="-20" type="curve" smooth="yes"/>
      <point x="338" y="-20"/>
      <point x="395" y="82"/>
      <point x="395" y="255" type="curve" smooth="yes"/>
      <point x="395" y="432"/>
      <point x="339" y="520"/>
      <point x="226" y="520" type="curve" smooth="yes"/>
      <point x="89" y="520"/>
      <point x="20" y="411"/>
      <point x="20" y="255" type="curve" smooth="yes"/>
      <point x="20" y="99"/>
      <point x="103" y="-20"/>
    </contour>
    <contour>
      <point x="291" y="116" type="curve" smooth="yes"/>
      <point x="240" y="116"/>
      <point x="210" y="167"/>
      <point x="210" y="254" type="curve" smooth="yes"/>
      <point x="210" y="334"/>
      <point x="239" y="383"/>
      <point x="287" y="383" type="curve" smooth="yes"/>
      <point x="335" y="383"/>
      <point x="363" y="335"/>
      <point x="363" y="255" type="curve" smooth="yes"/>
      <point x="363" y="168"/>
      <point x="336" y="116"/>
    </contour>
    <contour>
      <point x="363" y="0" type="line"/>
      <point x="553" y="0" type="line"/>
      <point x="553" y="750" type="line"/>
      <point x="363" y="750" type="line"/>
    </contour>
  </outline>
</glyph>
<glyph name="e" format="2">
  <advance width="570"/>
  <unicode hex="0065"/>
  <anchor x="271" y="-20" name="bottom"/>
  <anchor x="401" y="-3" name="ogonek"/>
  <anchor x="271" y="520" name="top"/>
  <outline>
    <contour>
      <point x="303.377" y="-20" type="curve" smooth="yes"/>
      <point x="401.432" y="-20"/>
      <point x="469.089" y="14"/>
      <point x="524" y="70" type="curve"/>
      <point x="436" y="158" type="line"/>
      <point x="408.358" y="133.229"/>
      <point x="358.389" y="117"/>
      <point x="306.649" y="117" type="curve" smooth="yes"/>
      <point x="238.619" y="117"/>
      <point x="207" y="147.667"/>
      <point x="207" y="209" type="curve"/>
      <point x="554" y="209" type="line"/>
      <point x="575.474" y="390.707"/>
      <point x="470.467" y="520"/>
      <point x="283" y="520" type="curve" smooth="yes"/>
      <point x="129.824" y="520"/>
      <point x="20" y="419"/>
      <point x="20" y="251" type="curve" smooth="yes"/>
      <point x="20" y="81"/>
      <point x="134.724" y="-20"/>
    </contour>
    <contour>
      <point x="367" y="309" type="curve"/>
      <point x="207" y="309" type="line"/>
      <point x="211" y="365.838"/>
      <point x="242.952" y="393"/>
      <point x="289.94" y="393" type="curve" smooth="yes"/>
      <point x="336.928" y="393"/>
      <point x="363.241" y="365.838"/>
    </contour>
  </outline>
</glyph>
<glyph name="f" format="2">
  <advance width="413"/>
  <unicode hex="0066"/>
  <anchor x="173" y="-20" name="bottom"/>
  <anchor x="220" y="750" name="top"/>
  <outline>
    <contour>
      <point x="79" y="0" type="line"/>
      <point x="269" y="0" type="line"/>
      <point x="269" y="370" type="line"/>
      <point x="399" y="370" type="line"/>
      <point x="399" y="500" type="line"/>
      <point x="269" y="500" type="line"/>
      <point x="269" y="541" type="line" smooth="yes"/>
      <point x="269" y="578"/>
      <point x="285" y="612"/>
      <point x="328" y="612" type="curve" smooth="yes"/>
      <point x="339" y="612"/>
      <point x="356" y="610"/>
      <point x="373" y="604" type="curve"/>
      <point x="411" y="728" type="line"/>
      <point x="354" y="745.739"/>
      <point x="316" y="752"/>
      <point x="277" y="752" type="curve" smooth="yes"/>
      <point x="148" y="752"/>
      <point x="79" y="684.733"/>
      <point x="79" y="568.271" type="curve" smooth="yes"/>
      <point x="79" y="500" type="line"/>
      <point x="2" y="500" type="line"/>
      <point x="2" y="370" type="line"/>
      <point x="79" y="370" type="line"/>
    </contour>
  </outline>
</glyph>
<glyph name="g" format="2">
  <advance width="595"/>
  <unicode hex="0067"/>
  <anchor x="283" y="-220" name="bottom"/>
  <anchor x="288" y="520" name="top"/>
  <outline>
    <contour>
      <point x="259" y="-220" type="curve" smooth="yes"/>
      <point x="439" y="-220"/>
      <point x="552" y="-120"/>
      <point x="552" y="52" type="curve" smooth="yes"/>
      <point x="552" y="500" type="line"/>
      <point x="362" y="500" type="line"/>
      <point x="362" y="73.644" type="line" smooth="yes"/>
      <point x="362" y="-42.364"/>
      <point x="311" y="-85"/>
      <point x="239" y="-85" type="curve" smooth="yes"/>
      <point x="191" y="-85"/>
      <point x="141" y="-67.979"/>
      <point x="115" y="-42" type="curve"/>
      <point x="27" y="-130" type="line"/>
      <point x="83" y="-186"/>
      <point x="154" y="-220"/>
    </contour>
    <contour>
      <point x="222" y="-20" type="curve" smooth="yes"/>
      <point x="338" y="-20"/>
      <point x="395" y="92"/>
      <point x="395" y="255" type="curve" smooth="yes"/>
      <point x="395" y="417"/>
      <point x="339" y="520"/>
      <point x="216" y="520" type="curve" smooth="yes"/>
      <point x="89" y="520"/>
      <point x="20" y="411"/>
      <point x="20" y="262" type="curve" smooth="yes"/>
      <point x="20" y="99"/>
      <point x="103" y="-20"/>
    </contour>
    <contour>
      <point x="287" y="116" type="curve" smooth="yes"/>
      <point x="240" y="116"/>
      <point x="210" y="167"/>
      <point x="210" y="251" type="curve" smooth="yes"/>
      <point x="210" y="334"/>
      <point x="239" y="383"/>
      <point x="287" y="383" type="curve" smooth="yes"/>
      <point x="334" y="383"/>
      <point x="362" y="335"/>
      <point x="362" y="251" type="curve" smooth="yes"/>
      <point x="362" y="168"/>
      <point x="335" y="116"/>
    </contour>
  </outline>
</glyph>
<glyph name="h" format="2">
  <advance width="606"/>
  <unicode hex="0068"/>
  <anchor x="308" y="-20" name="bottom"/>
  <anchor x="141" y="750" name="top"/>
  <outline>
    <contour>
      <point x="49" y="750" type="line"/>
      <point x="49" y="0" type="line"/>
      <point x="239" y="0" type="line"/>
      <point x="239" y="750" type="line"/>
    </contour>
    <contour>
      <point x="376" y="267.407" type="curve" smooth="yes"/>
      <point x="376" y="0" type="line"/>
      <point x="566" y="0" type="line"/>
      <point x="566" y="314" type="line" smooth="yes"/>
      <point x="566" y="458"/>
      <point x="502" y="520"/>
      <point x="408" y="520" type="curve" smooth="yes"/>
      <point x="317" y="520"/>
      <point x="248" y="461"/>
      <point x="221" y="360" type="curve"/>
      <point x="223" y="282" type="line"/>
      <point x="239" y="217" type="line"/>
      <point x="239" y="313.18"/>
      <point x="259" y="380"/>
      <point x="314" y="380" type="curve" smooth="yes"/>
      <point x="354" y="380"/>
      <point x="376" y="344.815"/>
    </contour>
  </outline>
</glyph>
<glyph name="k" format="2">
  <advance width="574"/>
  <unicode hex="006B"/>
  <anchor x="277" y="-20" name="bottom"/>
  <anchor x="140" y="750" name="top"/>
  <outline>
    <contour>
      <point x="44" y="750" type="line"/>
      <point x="44" y="0" type="line"/>
      <point x="234" y="0" type="line"/>
      <point x="234" y="750" type="line"/>
    </contour>
    <contour>
      <point x="102" y="323" type="line"/>
      <point x="104" y="189" type="line"/>
      <point x="268" y="189" type="line" name="iv01"/>
      <point x="360" y="0" type="line" name="ab02"/>
      <point x="572" y="0" type="line"/>
      <point x="438" y="263" type="line"/>
      <point x="559" y="500" type="line" name="av02"/>
      <point x="360" y="500" type="line"/>
      <point x="282" y="323" type="line" name="iv02"/>
    </contour>
  </outline>
</glyph>
<glyph name="m" format="2">
  <advance width="899"/>
  <unicode hex="006D"/>
  <anchor x="453" y="-20" name="bottom"/>
  <anchor x="453" y="520" name="top"/>
  <outline>
    <contour>
      <point x="669" y="267.407" type="curve" smooth="yes"/>
      <point x="669" y="0" type="line"/>
      <point x="859" y="0" type="line"/>
      <point x="859" y="314" type="line" smooth="yes"/>
      <point x="859" y="458"/>
      <point x="798" y="520"/>
      <point x="708" y="520" type="curve" smooth="yes"/>
      <point x="621" y="520"/>
      <point x="555" y="461"/>
      <point x="529" y="360" type="curve"/>
      <point x="531" y="282" type="line"/>
      <point x="547" y="217" type="line"/>
      <point x="547" y="313.18"/>
      <point x="565" y="380"/>
      <point x="614" y="380" type="curve" smooth="yes"/>
      <point x="650" y="380"/>
      <point x="669" y="344.815"/>
    </contour>
    <contour>
      <point x="45" y="0" type="line"/>
      <point x="235" y="0" type="line"/>
      <point x="235" y="500" type="line"/>
      <point x="45" y="500" type="line"/>
    </contour>
    <contour>
      <point x="357" y="267.407" type="curve" smooth="yes"/>
      <point x="357" y="0" type="line"/>
      <point x="547" y="0" type="line"/>
      <point x="547" y="314" type="line" smooth="yes"/>
      <point x="547" y="458"/>
      <point x="486" y="520"/>
      <point x="396" y="520" type="curve" smooth="yes"/>
      <point x="309" y="520"/>
      <point x="243" y="461"/>
      <point x="217" y="360" type="curve"/>
      <point x="219" y="282" type="line"/>
      <point x="235" y="217" type="line"/>
      <point x="235" y="313.18"/>
      <point x="253" y="380"/>
      <point x="302" y="380" type="curve" smooth="yes"/>
      <point x="338" y="380"/>
      <point x="357" y="344.815"/>
    </contour>
  </outline>
</glyph>
<glyph name="o" format="2">
  <advance width="578"/>
  <unicode hex="006F"/>
  <anchor x="289" y="-20" name="bottom"/>
  <anchor x="401" y="-3" name="ogonek"/>
  <anchor x="289" y="520" name="top"/>
  <anchor x="289" y="520" name="topgr"/>
  <outline>
    <contour>
      <point x="289" y="-20" type="curve" smooth="yes"/>
      <point x="463" y="-20"/>
      <point x="558" y="79"/>
      <point x="558" y="255" type="curve" smooth="yes"/>
      <point x="558" y="421"/>
      <point x="462" y="520"/>
      <point x="289" y="520" type="curve" smooth="yes"/>
      <point x="126" y="520"/>
      <point x="20" y="421"/>
      <point x="20" y="255" type="curve" smooth="yes"/>
      <point x="20" y="79"/>
      <point x="127" y="-20"/>
    </contour>
    <contour>
      <point x="289" y="120" type="curve" smooth="yes"/>
      <point x="236" y="120"/>
      <point x="210" y="163.643"/>
      <point x="210" y="250.929" type="curve" smooth="yes"/>
      <point x="210" y="337.286"/>
      <point x="235" y="380"/>
      <point x="289" y="380" type="curve" smooth="yes"/>
      <point x="341" y="380"/>
      <point x="368" y="339.143"/>
      <point x="368" y="251.857" type="curve" smooth="yes"/>
      <point x="368" y="163.643"/>
      <point x="341" y="120"/>
    </contour>
  </outline>
</glyph>
<glyph name="p" format="2">
  <advance width="597"/>
  <unicode hex="0070"/>
  <anchor x="346" y="-20" name="bottom"/>
  <anchor x="337" y="520" name="top"/>
  <outline>
    <contour>
      <point x="45" y="500" type="line"/>
      <point x="45" y="-200" type="line"/>
      <point x="235" y="-200" type="line"/>
      <point x="235" y="500" type="line"/>
    </contour>
    <contour>
      <point x="358" y="-20" type="curve" smooth="yes"/>
      <point x="494" y="-20"/>
      <point x="578" y="99"/>
      <point x="578" y="255" type="curve" smooth="yes"/>
      <point x="578" y="411"/>
      <point x="508" y="520"/>
      <point x="370" y="520" type="curve" smooth="yes"/>
      <point x="255" y="520"/>
      <point x="198" y="428"/>
      <point x="198" y="255" type="curve" smooth="yes"/>
      <point x="198" y="82"/>
      <point x="256" y="-20"/>
    </contour>
    <contour>
      <point x="307" y="116" type="curve" smooth="yes"/>
      <point x="262" y="116"/>
      <point x="235" y="168"/>
      <point x="235" y="255" type="curve" smooth="yes"/>
      <point x="235" y="335"/>
      <point x="263" y="383"/>
      <point x="311" y="383" type="curve" smooth="yes"/>
      <point x="359" y="383"/>
      <point x="388" y="334"/>
      <point x="388" y="254" type="curve" smooth="yes"/>
      <point x="388" y="167"/>
      <point x="358" y="116"/>
    </contour>
  </outline>
</glyph>
<glyph name="q" format="2">
  <advance width="635"/>
  <unicode hex="0071"/>
  <anchor x="261" y="-20" name="bottom"/>
  <anchor x="262" y="520" name="top"/>
  <outline>
    <contour>
      <point x="247" y="-20" type="curve" smooth="yes"/>
      <point x="348" y="-20"/>
      <point x="405" y="82"/>
      <point x="405" y="255" type="curve" smooth="yes"/>
      <point x="405" y="428"/>
      <point x="349" y="520"/>
      <point x="236" y="520" type="curve" smooth="yes"/>
      <point x="99" y="520"/>
      <point x="30" y="411"/>
      <point x="30" y="255" type="curve" smooth="yes"/>
      <point x="30" y="99"/>
      <point x="113" y="-20"/>
    </contour>
    <contour>
      <point x="301" y="116" type="curve" smooth="yes"/>
      <point x="250" y="116"/>
      <point x="220" y="167"/>
      <point x="220" y="254" type="curve" smooth="yes"/>
      <point x="220" y="334"/>
      <point x="249" y="383"/>
      <point x="297" y="383" type="curve" smooth="yes"/>
      <point x="345" y="383"/>
      <point x="373" y="335"/>
      <point x="373" y="255" type="curve" smooth="yes"/>
      <point x="373" y="168"/>
      <point x="346" y="116"/>
    </contour>
    <contour>
      <point x="373" y="-200" type="line"/>
      <point x="563" y="-200" type="line"/>
      <point x="563" y="500" type="line"/>
      <point x="373" y="500" type="line"/>
    </contour>
  </outline>
</glyph>
<glyph name="r" format="2">
  <advance width="410"/>
  <unicode hex="0072"/>
  <anchor x="141" y="-20" name="bottom"/>
  <anchor x="234" y="520" name="top"/>
  <outline>
    <contour>
      <point x="45" y="500" type="line"/>
      <point x="45" y="0" type="line"/>
      <point x="235" y="0" type="line"/>
      <point x="235" y="190" type="line" smooth="yes"/>
      <point x="235" y="316.667"/>
      <point x="289" y="380"/>
      <point x="405" y="380" type="curve"/>
      <point x="405" y="520" type="line"/>
      <point x="311" y="519"/>
      <point x="274" y="476"/>
      <point x="235" y="404" type="curve"/>
      <point x="235" y="500" type="line"/>
    </contour>
  </outline>
</glyph>
<glyph name="s" format="2">
  <advance width="487"/>
  <unicode hex="0073"/>
  <anchor x="243" y="-20" name="bottom"/>
  <anchor x="243" y="520" name="top"/>
  <outline>
    <contour>
      <point x="248" y="-20" type="curve" smooth="yes"/>
      <point x="375" y="-20"/>
      <point x="463" y="45"/>
      <point x="463" y="148" type="curve" smooth="yes"/>
      <point x="463" y="231"/>
      <point x="405.994" y="284.977"/>
      <point x="287" y="314" type="curve" smooth="yes"/>
      <point x="241.994" y="324.977"/>
      <point x="220" y="336"/>
      <point x="220" y="357" type="curve" smooth="yes"/>
      <point x="220" y="374"/>
      <point x="236" y="390"/>
      <point x="267" y="390" type="curve" smooth="yes"/>
      <point x="302" y="390"/>
      <point x="344" y="369"/>
      <point x="368" y="342" type="curve"/>
      <point x="456" y="430" type="line"/>
      <point x="402" y="484"/>
      <point x="335" y="520"/>
      <point x="242" y="520" type="curve" smooth="yes"/>
      <point x="110" y="520"/>
      <point x="30" y="448"/>
      <point x="30" y="352" type="curve" smooth="yes"/>
      <point x="30" y="268"/>
      <point x="90.945" y="211.72"/>
      <point x="198" y="191" type="curve" smooth="yes"/>
      <point x="245.947" y="181.72"/>
      <point x="273" y="168"/>
      <point x="273" y="143" type="curve" smooth="yes"/>
      <point x="273" y="121"/>
      <point x="252" y="110"/>
      <point x="220" y="110" type="curve" smooth="yes"/>
      <point x="176" y="110"/>
      <point x="134" y="131"/>
      <point x="110" y="158" type="curve"/>
      <point x="22" y="70" type="line"/>
      <point x="76" y="16"/>
      <point x="153" y="-20"/>
    </contour>
  </outline>
</glyph>
<glyph name="t" format="2">
  <advance width="395"/>
  <unicode hex="0074"/>
  <anchor x="240" y="-20" name="bottom"/>
  <anchor x="175" y="630" name="top"/>
  <anchor x="302" y="700" name="topright"/>
  <outline>
    <contour>
      <point x="246" y="-20" type="curve" smooth="yes"/>
      <point x="297.8" y="-20"/>
      <point x="340.29" y="-10.68"/>
      <point x="389.8" y="10.47" type="curve"/>
      <point x="356.61" y="134.41" type="line"/>
      <point x="340.79" y="126.69"/>
      <point x="316.64" y="122"/>
      <point x="306" y="122" type="curve" smooth="yes"/>
      <point x="281" y="122"/>
      <point x="270" y="143.03"/>
      <point x="270" y="209.13" type="curve" smooth="yes"/>
      <point x="270" y="621" type="line"/>
      <point x="80" y="621" type="line"/>
      <point x="80.05" y="132.75" type="line" smooth="yes"/>
      <point x="80.05" y="26.75"/>
      <point x="130" y="-20"/>
    </contour>
    <contour>
      <point x="3" y="370" type="line"/>
      <point x="385" y="370" type="line"/>
      <point x="385" y="500" type="line"/>
      <point x="3" y="500" type="line"/>
    </contour>
  </outline>
</glyph>
<glyph name="u" format="2">
  <advance width="580"/>
  <unicode hex="0075"/>
  <anchor x="290" y="-20" name="bottom"/>
  <anchor x="398" y="-3" name="ogonek"/>
  <anchor x="290" y="520" name="top"/>
  <outline>
    <contour>
      <point x="291.02" y="-20" type="curve" smooth="yes"/>
      <point x="443.96" y="-20"/>
      <point x="548" y="64"/>
      <point x="548" y="185" type="curve" smooth="yes"/>
      <point x="548" y="500" type="line"/>
      <point x="358" y="500" type="line"/>
      <point x="358" y="241.794" type="line" smooth="yes"/>
      <point x="358" y="149.508"/>
      <point x="338.043" y="123"/>
      <point x="291.087" y="123" type="curve" smooth="yes"/>
      <point x="239.435" y="123"/>
      <point x="223" y="158.344"/>
      <point x="223" y="241.794" type="curve" smooth="yes"/>
      <point x="223" y="500" type="line"/>
      <point x="33" y="500" type="line"/>
      <point x="33" y="185" type="line" smooth="yes"/>
      <point x="33" y="63"/>
      <point x="132.879" y="-20"/>
    </contour>
  </outline>
</glyph>
<glyph name="w" format="2">
  <advance width="854"/>
  <unicode hex="0077"/>
  <anchor x="427" y="-20" name="bottom"/>
  <anchor x="427" y="520" name="top"/>
  <outline>
    <contour>
      <point x="183" y="0" type="line"/>
      <point x="356" y="0" type="line"/>
      <point x="427" y="306" type="line"/>
      <point x="498" y="0" type="line"/>
      <point x="671" y="0" type="line"/>
      <point x="853" y="500" type="line"/>
      <point x="652" y="500" type="line"/>
      <point x="580" y="228" type="line"/>
      <point x="513" y="500" type="line"/>
      <point x="341" y="500" type="line"/>
      <point x="274" y="228" type="line"/>
      <point x="202" y="500" type="line"/>
      <point x="1" y="500" type="line"/>
    </contour>
  </outline>
</glyph>
<glyph name="x" format="2">
  <advance width="574"/>
  <unicode hex="0078"/>
  <anchor x="287" y="-20" name="bottom"/>
  <anchor x="287" y="520" name="top"/>
  <outline>
    <contour>
      <point x="12" y="0" type="line" name="ab01"/>
      <point x="226" y="0" type="line"/>
      <point x="288" y="154" type="line" name="iv01"/>
      <point x="348" y="0" type="line" name="ab02"/>
      <point x="564" y="0" type="line"/>
      <point x="412.491" y="261.985" type="line"/>
      <point x="404.497" y="236.012" type="line"/>
      <point x="557" y="500" type="line" name="av02"/>
      <point x="351" y="500" type="line"/>
      <point x="273.652" y="324.41" type="line" name="iv02"/>
      <point x="304.348" y="324.41" type="line"/>
      <point x="227" y="500" type="line"/>
      <point x="21" y="500" type="line" name="av01"/>
      <point x="173.503" y="236.012" type="line"/>
      <point x="163.509" y="261.985" type="line"/>
    </contour>
  </outline>
</glyph>
<glyph name="y" format="2">
  <advance width="526"/>
  <unicode hex="0079"/>
  <anchor x="446" y="1" name="bottom"/>
  <anchor x="263" y="520" name="top"/>
  <outline>
    <contour>
      <point x="33" y="-73" type="curve"/>
      <point x="-4" y="-198" type="line"/>
      <point x="43" y="-212"/>
      <point x="72" y="-221"/>
      <point x="144" y="-221" type="curve" smooth="yes"/>
      <point x="263" y="-221"/>
      <point x="305" y="-168"/>
      <point x="336" y="-78" type="curve" smooth="yes"/>
      <point x="535" y="500" type="line"/>
      <point x="334" y="500" type="line"/>
      <point x="198" y="-18" type="line" smooth="yes"/>
      <point x="183.624" y="-72.757"/>
      <point x="132" y="-85"/>
      <point x="93" y="-85" type="curve" smooth="yes"/>
      <point x="78" y="-85"/>
      <point x="52" y="-82"/>
    </contour>
    <contour>
      <point x="-9" y="500" type="line"/>
      <point x="156" y="0" type="line"/>
      <point x="313" y="0" type="line"/>
      <point x="192" y="500" type="line"/>
    </contour>
  </outline>
</glyph>
<glyph name="z" format="2">
  <advance width="473"/>
  <unicode hex="007A"/>
  <anchor x="236" y="-20" name="bottom"/>
  <anchor x="246" y="520" name="top"/>
  <outline>
    <contour>
      <point x="21" y="0" type="line"/>
      <point x="452" y="0" type="line"/>
      <point x="452" y="130" type="line"/>
      <point x="220" y="130" type="line"/>
      <point x="452" y="380" type="line"/>
      <point x="452" y="500" type="line"/>
      <point x="41" y="500" type="line"/>
      <point x="41" y="370" type="line"/>
      <point x="253" y="370" type="line"/>
      <point x="21" y="120" type="line"/>
    </contour>
  </outline>
</glyph>
<glyph name="braceleft" format="2">
  <advance width="366"/>
  <unicode hex="007B"/>
  <outline>
    <contour>
      <point x="320" y="-336" type="curve"/>
      <point x="344" y="-273" type="line"/>
      <point x="302" y="-242.735"/>
      <point x="274" y="-201.73"/>
      <point x="274" y="-82.621" type="curve" smooth="yes"/>
      <point x="274" y="139" type="line" smooth="yes"/>
      <point x="274" y="203"/>
      <point x="255" y="261"/>
      <point x="148" y="289" type="curve"/>
      <point x="252" y="315"/>
      <point x="274" y="365"/>
      <point x="274" y="429" type="curve" smooth="yes"/>
      <point x="274" y="609.731" type="line" smooth="yes"/>
      <point x="274" y="732.957"/>
      <point x="302" y="779.167"/>
      <point x="344" y="811" type="curve"/>
      <point x="320" y="874" type="line"/>
      <point x="184" y="803.439"/>
      <point x="118" y="700.154"/>
      <point x="118" y="604.027" type="curve" smooth="yes"/>
      <point x="118" y="422" type="line" smooth="yes"/>
      <point x="118" y="372"/>
      <point x="80" y="310"/>
      <point x="28" y="299" type="curve"/>
      <point x="28" y="282" type="line"/>
      <point x="60" y="272"/>
      <point x="118" y="236"/>
      <point x="118" y="165" type="curve" smooth="yes"/>
      <point x="118" y="-75.205" type="line" smooth="yes"/>
      <point x="118" y="-174.229"/>
      <point x="184" y="-268.35"/>
    </contour>
  </outline>
</glyph>
<glyph name="sterling" format="2">
  <advance width="634"/>
  <unicode hex="00A3"/>
  <outline>
    <contour>
      <point x="97.13" y="379" type="curve"/>
      <point x="21" y="379" type="line"/>
      <point x="21" y="279" type="line"/>
      <point x="148.38" y="279" type="line"/>
      <point x="156.54" y="258.12"/>
      <point x="162" y="235.7"/>
      <point x="162" y="210" type="curve" smooth="yes"/>
      <point x="162" y="130"/>
      <point x="110" y="86"/>
      <point x="50" y="46" type="curve"/>
      <point x="50" y="-44" type="line"/>
      <point x="109" y="32"/>
      <point x="144" y="50"/>
      <point x="182" y="50" type="curve" smooth="yes"/>
      <point x="261" y="50"/>
      <point x="272" y="-26"/>
      <point x="400" y="-26" type="curve" smooth="yes"/>
      <point x="504" y="-26"/>
      <point x="585" y="24"/>
      <point x="614" y="104" type="curve"/>
      <point x="584" y="154" type="line"/>
      <point x="556" y="118"/>
      <point x="509" y="91"/>
      <point x="458" y="91" type="curve" smooth="yes"/>
      <point x="377" y="91"/>
      <point x="415" y="157"/>
      <point x="329" y="157" type="curve"/>
      <point x="344" y="180"/>
      <point x="352" y="191"/>
      <point x="352" y="224" type="curve" smooth="yes"/>
      <point x="352" y="243.51"/>
      <point x="349.11" y="261.74"/>
      <point x="344.29" y="279" type="curve"/>
      <point x="495" y="279" type="line"/>
      <point x="495" y="379" type="line"/>
      <point x="296.66" y="379" type="line"/>
      <point x="271.82" y="420.75"/>
      <point x="248" y="459.97"/>
      <point x="248" y="504" type="curve" smooth="yes"/>
      <point x="248" y="551"/>
      <point x="276" y="579"/>
      <point x="330" y="579" type="curve" smooth="yes"/>
      <point x="372" y="579"/>
      <point x="419" y="562"/>
      <point x="477" y="493" type="curve"/>
      <point x="583" y="599" type="line"/>
      <point x="505" y="689"/>
      <point x="415" y="720"/>
      <point x="316" y="720" type="curve" smooth="yes"/>
      <point x="153" y="720"/>
      <point x="57" y="637"/>
      <point x="57" y="520" type="curve" smooth="yes"/>
      <point x="57" y="472.45"/>
      <point x="73.13" y="426.92"/>
    </contour>
  </outline>
</glyph>
<glyph name="yen" format="2">
  <advance width="662"/>
  <unicode hex="00A5"/>
  <outline>
    <contour>
      <point x="235" y="0" type="line"/>
      <point x="425" y="0" type="line"/>
      <point x="425" y="279" type="line"/>
      <point x="658" y="700" type="line"/>
      <point x="441" y="700" type="line"/>
      <point x="330" y="482" type="line"/>
      <point x="219" y="700" type="line"/>
      <point x="2" y="700" type="line"/>
      <point x="235" y="279" type="line"/>
    </contour>
    <contour>
      <point x="130" y="87" type="line"/>
      <point x="533" y="87" type="line"/>
      <point x="533" y="182" type="line"/>
      <point x="130" y="182" type="line"/>
    </contour>
    <contour>
      <point x="130" y="218" type="line"/>
      <point x="533" y="218" type="line"/>
      <point x="533" y="313" type="line"/>
      <point x="130" y="313" type="line"/>
    </contour>
  </outline>
</glyph>
<glyph name="section" format="2">
  <advance width="590"/>
  <unicode hex="00A7"/>
  <outline>
    <contour>
      <point x="336" y="166" type="curve"/>
      <point x="458" y="50" type="line"/>
      <point x="531.842" y="88"/>
      <point x="573" y="151"/>
      <point x="573" y="229" type="curve" smooth="yes"/>
      <point x="573" y="336"/>
      <point x="509.094" y="390.623"/>
      <point x="352" y="426.734" type="curve" smooth="yes"/>
      <point x="264.093" y="446.941"/>
      <point x="236" y="465.322"/>
      <point x="236" y="508.082" type="curve" smooth="yes"/>
      <point x="236" y="549.798"/>
      <point x="260.621" y="579"/>
      <point x="306.216" y="579" type="curve" smooth="yes"/>
      <point x="353.634" y="579"/>
      <point x="397.405" y="549"/>
      <point x="443" y="493" type="curve"/>
      <point x="549" y="599" type="line"/>
      <point x="498.989" y="663"/>
      <point x="409.545" y="720"/>
      <point x="284.516" y="720" type="curve" smooth="yes"/>
      <point x="137.367" y="720"/>
      <point x="46" y="638.194"/>
      <point x="46" y="513.44" type="curve" smooth="yes"/>
      <point x="46" y="400.957"/>
      <point x="123.969" y="331.293"/>
      <point x="297" y="292.564" type="curve" smooth="yes"/>
      <point x="356.969" y="279.142"/>
      <point x="384" y="267"/>
      <point x="384" y="224" type="curve" smooth="yes"/>
      <point x="384" y="198"/>
      <point x="366.857" y="178"/>
    </contour>
    <contour>
      <point x="299.742" y="-221" type="curve" smooth="yes"/>
      <point x="449.816" y="-221"/>
      <point x="543" y="-140.278"/>
      <point x="543" y="-17.176" type="curve" smooth="yes"/>
      <point x="543" y="93.817"/>
      <point x="467.336" y="162.559"/>
      <point x="299.426" y="200.774" type="curve" smooth="yes"/>
      <point x="241.23" y="214.019"/>
      <point x="215" y="226"/>
      <point x="215" y="268" type="curve" smooth="yes"/>
      <point x="215" y="295"/>
      <point x="226" y="315"/>
      <point x="245" y="327" type="curve"/>
      <point x="123" y="443" type="line"/>
      <point x="61" y="405"/>
      <point x="26" y="342"/>
      <point x="26" y="263" type="curve" smooth="yes"/>
      <point x="26" y="157"/>
      <point x="88.015" y="103.724"/>
      <point x="240.442" y="68.506" type="curve" smooth="yes"/>
      <point x="325.746" y="48.797"/>
      <point x="353" y="30.871"/>
      <point x="353" y="-10.833" type="curve" smooth="yes"/>
      <point x="353" y="-51.519"/>
      <point x="327.189" y="-80"/>
      <point x="279.392" y="-80" type="curve" smooth="yes"/>
      <point x="229.683" y="-80"/>
      <point x="183.797" y="-50"/>
      <point x="136" y="6" type="curve"/>
      <point x="30" y="-100" type="line"/>
      <point x="81.006" y="-164"/>
      <point x="172.228" y="-221"/>
    </contour>
  </outline>
</glyph>
<glyph name="ordfeminine" format="2">
  <advance width="549"/>
  <unicode hex="00AA"/>
  <outline>
    <contour>
      <point x="235" y="320" type="curve" smooth="yes"/>
      <point x="347" y="320"/>
      <point x="386" y="416"/>
      <point x="386" y="520" type="curve" smooth="yes"/>
      <point x="386" y="624"/>
      <point x="347" y="720"/>
      <point x="234" y="720" type="curve" smooth="yes"/>
      <point x="129" y="720"/>
      <point x="58" y="636"/>
      <point x="58" y="522" type="curve" smooth="yes"/>
      <point x="58" y="408"/>
      <point x="128" y="320"/>
    </contour>
    <contour>
      <point x="276" y="415" type="curve" smooth="yes"/>
      <point x="222" y="415"/>
      <point x="190" y="456"/>
      <point x="190" y="521" type="curve" smooth="yes"/>
      <point x="190" y="585"/>
      <point x="222" y="624"/>
      <point x="276" y="624" type="curve" smooth="yes"/>
      <point x="330" y="624"/>
      <point x="359" y="586"/>
      <point x="359" y="521" type="curve" smooth="yes"/>
      <point x="359" y="455"/>
      <point x="329" y="415"/>
    </contour>
    <contour>
      <point x="359" y="335" type="line"/>
      <point x="491" y="335" type="line"/>
      <point x="491" y="702" type="line"/>
      <point x="359" y="702" type="line"/>
    </contour>
  </outline>
</glyph>
<glyph name="logicalnot" format="2">
  <advance width="553"/>
  <unicode hex="00AC"/>
  <outline>
    <contour>
      <point x="50" y="322" type="line"/>
      <point x="50" y="292" type="line"/>
      <point x="435" y="292" type="line"/>
      <point x="435" y="93" type="line"/>
      <point x="483" y="93" type="line"/>
      <point x="483" y="322" type="line"/>
    </contour>
  </outline>
</glyph>
<glyph name="registered" format="2">
  <advance width="817"/>
  <unicode hex="00AE"/>
  <outline>
    <contour>
      <point x="44" y="355" type="curve" smooth="yes"/>
      <point x="44" y="137"/>
      <point x="233" y="12"/>
      <point x="411" y="12" type="curve" smooth="yes"/>
      <point x="589" y="12"/>
      <point x="773" y="138"/>
      <point x="773" y="355" type="curve" smooth="yes"/>
      <point x="773" y="572"/>
      <point x="596" y="688"/>
      <point x="411" y="688" type="curve" smooth="yes"/>
      <point x="227" y="688"/>
      <point x="44" y="573"/>
    </contour>
    <contour>
      <point x="104" y="354" type="curve" smooth="yes"/>
      <point x="104" y="513"/>
      <point x="231" y="628"/>
      <point x="409" y="628" type="curve" smooth="yes"/>
      <point x="585" y="628"/>
      <point x="713" y="514"/>
      <point x="713" y="350" type="curve" smooth="yes"/>
      <point x="713" y="186"/>
      <point x="573" y="72"/>
      <point x="409" y="72" type="curve" smooth="yes"/>
      <point x="243" y="72"/>
      <point x="104" y="195"/>
    </contour>
    <contour>
      <point x="427.009" y="543.6" type="curve" smooth="yes"/>
      <point x="255.8" y="543.6" type="line"/>
      <point x="255.8" y="150" type="line"/>
      <point x="369.8" y="150" type="line"/>
      <point x="369.8" y="453.6" type="line"/>
      <point x="401.611" y="453.6" type="line" smooth="yes"/>
      <point x="454.006" y="453.6"/>
      <point x="469.6" y="441.995"/>
      <point x="469.6" y="414.32" type="curve" smooth="yes"/>
      <point x="469.6" y="386.645"/>
      <point x="454.694" y="375.04"/>
      <point x="404.611" y="375.04" type="curve" smooth="yes"/>
      <point x="280" y="375.04" type="line"/>
      <point x="280" y="286.64" type="line"/>
      <point x="429.385" y="286.64" type="line" smooth="yes"/>
      <point x="525.16" y="286.64"/>
      <point x="586.6" y="337.356"/>
      <point x="586.6" y="417.374" type="curve" smooth="yes"/>
      <point x="586.6" y="495.702"/>
      <point x="526.677" y="543.6"/>
    </contour>
    <contour>
      <point x="388" y="307.36" type="line"/>
      <point x="473.8" y="150" type="line"/>
      <point x="596.2" y="150" type="line"/>
      <point x="494.2" y="336.48" type="line"/>
    </contour>
  </outline>
</glyph>
<glyph name="degree" format="2">
  <advance width="483"/>
  <unicode hex="00B0"/>
  <outline>
    <contour>
      <point x="57" y="556" type="curve" smooth="yes"/>
      <point x="57" y="458"/>
      <point x="140" y="390"/>
      <point x="248" y="390" type="curve" smooth="yes"/>
      <point x="355" y="390"/>
      <point x="428" y="458"/>
      <point x="428" y="556" type="curve" smooth="yes"/>
      <point x="428" y="653"/>
      <point x="357" y="719"/>
      <point x="248" y="719" type="curve" smooth="yes"/>
      <point x="139" y="719"/>
      <point x="57" y="653"/>
    </contour>
    <contour>
      <point x="244" y="474" type="curve" smooth="yes"/>
      <point x="199" y="474"/>
      <point x="165" y="497"/>
      <point x="165" y="555" type="curve" smooth="yes"/>
      <point x="165" y="613"/>
      <point x="200" y="635"/>
      <point x="244" y="635" type="curve" smooth="yes"/>
      <point x="288" y="635"/>
      <point x="321" y="613"/>
      <point x="321" y="555" type="curve" smooth="yes"/>
      <point x="321" y="497"/>
      <point x="288" y="474"/>
    </contour>
  </outline>
</glyph>
<glyph name="uni00B2" format="2">
  <advance width="432"/>
  <unicode hex="00B2"/>
  <outline>
    <contour>
      <point x="34" y="490" type="curve"/>
      <point x="34" y="393" type="line"/>
      <point x="310" y="444.147"/>
      <point x="398" y="536.335"/>
      <point x="398" y="665.743" type="curve" smooth="yes"/>
      <point x="398" y="767.965"/>
      <point x="344" y="833"/>
      <point x="224" y="833" type="curve" smooth="yes"/>
      <point x="146" y="833"/>
      <point x="81" y="804"/>
      <point x="37" y="750" type="curve"/>
      <point x="109" y="678" type="line"/>
      <point x="141" y="715"/>
      <point x="171" y="737"/>
      <point x="212" y="737" type="curve" smooth="yes"/>
      <point x="249" y="737"/>
      <point x="266" y="715.516"/>
      <point x="266" y="667.774" type="curve" smooth="yes"/>
      <point x="266" y="599.742"/>
      <point x="231" y="532"/>
    </contour>
    <contour>
      <point x="34" y="344" type="line"/>
      <point x="398" y="344" type="line"/>
      <point x="398" y="440" type="line"/>
      <point x="34" y="440" type="line"/>
    </contour>
  </outline>
</glyph>
<glyph name="uni00B5" format="2">
  <advance width="610"/>
  <unicode hex="00B5"/>
  <anchor x="300" y="520" name="topgr"/>
  <outline>
    <component base="uni00B5.ss01" identifier="6388C9BE"/>
  </outline>
</glyph>
 y="147.095"/>
      <point x="233" y="248.355" type="curve" smooth="yes"/>
      <point x="233" y="500" type="line"/>
      <point x="43" y="500" type="line"/>
      <point x="43" y="196" type="line" smooth="yes"/>
      <point x="43" y="58"/>
      <point x="104.165" y="-20"/>
      <point x="204.791" y="-20" type="curve" smooth="yes"/>
      <point x="283.714" y="-20"/>
      <point x="336" y="29"/>
    </contour>
    <contour>
      <point x="343" y="500" type="line"/>
      <point x="343" y="0" type="line"/>
      <point x="533" y="0" type="line"/>
      <point x="533" y="500" type="line"/>
    </contour>
  </outline>
</glyph>
<glyph name="uni00B9" format="2">
  <advance width="333"/>
  <unicode hex="00B9"/>
  <outline>
    <contour>
      <point x="159" y="670" type="curve"/>
      <point x="159" y="344" type="line"/>
      <point x="291" y="344" type="line"/>
      <point x="291" y="827" type="line"/>
      <point x="181" y="827" type="line"/>
      <point x="146" y="771"/>
      <point x="94" y="728"/>
      <point x="28" y="700" type="curve"/>
      <point x="28" y="590" type="line"/>
      <point x="93" y="610"/>
      <point x="125" y="629"/>
    </contour>
  </outline>
</glyph>
<glyph name="AE" format="2">
  <advance width="880"/>
  <unicode hex="00C6"/>
  <anchor x="480" y="-20" name="bottom"/>
  <anchor x="480" y="719" name="top"/>
  <outline>
    <contour>
      <point x="398" y="0" type="line"/>
      <point x="835" y="0" type="line"/>
      <point x="835" y="140" type="line"/>
      <point x="588" y="140" type="line"/>
      <point x="588" y="297" type="line"/>
      <point x="795" y="297" type="line"/>
      <point x="795" y="437" type="line"/>
      <point x="588" y="437" type="line"/>
      <point x="588" y="560" type="line"/>
      <point x="820" y="560" type="line"/>
      <point x="820" y="700" type="line"/>
      <point x="398" y="700" type="line"/>
    </contour>
    <contour>
      <point x="193" y="106" type="line"/>
      <point x="533" y="106" type="line"/>
      <point x="489" y="246" type="line"/>
      <point x="237" y="246" type="line"/>
    </contour>
    <contour>
      <point x="-3" y="0" type="line"/>
      <point x="196" y="0" type="line"/>
      <point x="397" y="700" type="line"/>
      <point x="224" y="700" type="line"/>
    </contour>
    <contour>
      <point x="256" y="560" type="line"/>
      <point x="542" y="560" type="line"/>
      <point x="543" y="700" type="line"/>
      <point x="300" y="700" type="line"/>
    </contour>
  </outline>
</glyph>
<glyph name="Eth" format="2">
  <advance width="732"/>
  <unicode hex="00D0"/>
  <outline>
    <contour>
      <point x="68" y="0" type="line"/>
      <point x="352" y="0" type="line" smooth="yes"/>
      <point x="565" y="0"/>
      <point x="709" y="141"/>
      <point x="709" y="350" type="curve" smooth="yes"/>
      <point x="709" y="558"/>
      <point x="564" y="700"/>
      <point x="352" y="700" type="curve" smooth="yes"/>
      <point x="68" y="700" type="line"/>
    </contour>
    <contour>
      <point x="-0.28" y="326" type="line"/>
      <point x="398.082" y="326" type="line"/>
      <point x="398.082" y="430" type="line"/>
      <point x="-0.28" y="430" type="line"/>
    </contour>
    <contour>
      <point x="331.431" y="140" type="curve" smooth="yes"/>
      <point x="258" y="140" type="line"/>
      <point x="258" y="560" type="line"/>
      <point x="331.431" y="560" type="line" smooth="yes"/>
      <point x="450.508" y="560"/>
      <point x="516" y="489"/>
      <point x="516" y="359" type="curve" smooth="yes"/>
      <point x="516" y="224"/>
      <point x="445.546" y="140"/>
    </contour>
  </outline>
</glyph>
<glyph name="multiply" format="2">
  <advance width="452"/>
  <unicode hex="00D7"/>
  <outline>
    <contour>
      <point x="386" y="110" type="line"/>
      <point x="40" y="457" type="line"/>
      <point x="65" y="482" type="line"/>
      <point x="411" y="135" type="line"/>
    </contour>
    <contour>
      <point x="65" y="110" type="line"/>
      <point x="411" y="457" type="line"/>
      <point x="386" y="482" type="line"/>
      <point x="40" y="135" type="line"/>
    </contour>
  </outline>
</glyph>
<glyph name="Oslash" format="2">
  <advance width="795"/>
  <unicode hex="00D8"/>
  <anchor x="398" y="-20" name="bottom"/>
  <anchor x="522" y="-2" name="ogonek"/>
  <anchor x="398" y="719" name="top"/>
  <outline>
    <contour>
      <point x="397" y="-20" type="curve" smooth="yes"/>
      <point x="614" y="-20"/>
      <point x="762" y="125"/>
      <point x="762" y="350" type="curve" smooth="yes"/>
      <point x="762" y="568"/>
      <point x="618" y="720"/>
      <point x="398" y="720" type="curve" smooth="yes"/>
      <point x="178" y="720"/>
      <point x="33" y="569"/>
      <point x="33" y="350" type="curve" smooth="yes"/>
      <point x="33" y="127"/>
      <point x="181" y="-20"/>
    </contour>
    <contour>
      <point x="137.201" y="-67" type="line"/>
      <point x="240.209" y="-67" type="line"/>
      <point x="661.239" y="767.75" type="line"/>
      <point x="558.23" y="767.75" type="line"/>
    </contour>
    <contour>
      <point x="398.983" y="124" type="curve" smooth="yes"/>
      <point x="290.251" y="124"/>
      <point x="226" y="210.847"/>
      <point x="226" y="352.961" type="curve" smooth="yes"/>
      <point x="226" y="496.061"/>
      <point x="286.297" y="576"/>
      <point x="395.029" y="576" type="curve" smooth="yes"/>
      <point x="505.738" y="576"/>
      <point x="569" y="491.127"/>
      <point x="569" y="346.052" type="curve" smooth="yes"/>
      <point x="569" y="202.952"/>
      <point x="508.703" y="124"/>
    </contour>
  </outline>
</glyph>
<glyph name="ae" format="2">
  <advance width="935"/>
  <unicode hex="00E6"/>
  <anchor x="466" y="0" name="bottom"/>
  <anchor x="466" y="520" name="top"/>
  <outline>
    <contour>
      <point x="675.375" y="-20" type="curve" smooth="yes"/>
      <point x="775.851" y="-20"/>
      <point x="845.179" y="14"/>
      <point x="899" y="70" type="curve"/>
      <point x="811" y="158" type="line"/>
      <point x="783.469" y="133.229"/>
      <point x="728.758" y="117"/>
      <point x="672.106" y="117" type="curve" smooth="yes"/>
      <point x="597.62" y="117"/>
      <point x="563" y="147.667"/>
      <point x="563" y="209" type="curve"/>
      <point x="909" y="209" type="line"/>
      <point x="927.904" y="390.707"/>
      <point x="845.467" y="520"/>
      <point x="658" y="520" type="curve" smooth="yes"/>
      <point x="516.824" y="520"/>
      <point x="397" y="419"/>
      <point x="397" y="251" type="curve" smooth="yes"/>
      <point x="397" y="81"/>
      <point x="514.557" y="-20"/>
    </contour>
    <contour>
      <point x="230" y="-20" type="curve" smooth="yes"/>
      <point x="346" y="-20"/>
      <point x="405" y="82"/>
      <point x="405" y="258" type="curve" smooth="yes"/>
      <point x="405" y="432"/>
      <point x="347" y="520"/>
      <point x="226" y="520" type="curve" smooth="yes"/>
      <point x="91" y="520"/>
      <point x="20" y="411"/>
      <point x="20" y="262" type="curve" smooth="yes"/>
      <point x="20" y="99"/>
      <point x="105" y="-20"/>
    </contour>
    <contour>
      <point x="293" y="116" type="curve" smooth="yes"/>
      <point x="242" y="116"/>
      <point x="210" y="167"/>
      <point x="210" y="251" type="curve" smooth="yes"/>
      <point x="210" y="334"/>
      <point x="241" y="383"/>
      <point x="292" y="383" type="curve" smooth="yes"/>
      <point x="343" y="383"/>
      <point x="373" y="335"/>
      <point x="373" y="251" type="curve" smooth="yes"/>
      <point x="373" y="168"/>
      <point x="344" y="116"/>
    </contour>
    <contour>
      <point x="373" y="0" type="line"/>
      <point x="563" y="0" type="line"/>
      <point x="563" y="500" type="line"/>
      <point x="373" y="500" type="line"/>
    </contour>
    <contour>
      <point x="722" y="326" type="curve"/>
      <point x="562" y="326" type="line"/>
      <point x="566" y="369.838"/>
      <point x="597.952" y="393"/>
      <point x="644.94" y="393" type="curve" smooth="yes"/>
      <point x="691.928" y="393"/>
      <point x="718.241" y="369.838"/>
    </contour>
  </outline>
</glyph>
<glyph name="ccedilla" format="2">
  <advance width="505"/>
  <unicode hex="00E7"/>
  <anchor x="264" y="-218" name="bottom"/>
  <anchor x="268" y="520" name="top"/>
  <outline>
    <contour>
      <point x="495" y="70" type="curve"/>
      <point x="397.235" y="167.765" type="line"/>
      <point x="367" y="137.124"/>
      <point x="330.633" y="120"/>
      <point x="292.492" y="120" type="curve" smooth="yes"/>
      <point x="233.949" y="120"/>
      <point x="210" y="163.643"/>
      <point x="210" y="250.929" type="curve" smooth="yes"/>
      <point x="210" y="337.286"/>
      <point x="230.292" y="380"/>
      <point x="296.463" y="380" type="curve" smooth="yes"/>
      <point x="335.283" y="380"/>
      <point x="359.883" y="365.179"/>
      <point x="394" y="332" type="curve"/>
      <point x="492" y="430" type="line"/>
      <point x="430.655" y="491.345"/>
      <point x="361.13" y="520"/>
      <point x="270.786" y="520" type="curve" smooth="yes"/>
      <point x="115.356" y="520"/>
      <point x="20" y="421"/>
      <point x="20" y="255" type="curve" smooth="yes"/>
      <point x="20" y="79"/>
      <point x="116.399" y="-20"/>
      <point x="271.018" y="-20" type="curve" smooth="yes"/>
      <point x="371.235" y="-20"/>
      <point x="439" y="14"/>
    </contour>
    <contour>
      <point x="158" y="-154" type="curve"/>
      <point x="132" y="-205" type="line"/>
      <point x="154" y="-211"/>
      <point x="187" y="-218"/>
      <point x="240" y="-218" type="curve" smooth="yes"/>
      <point x="343" y="-218"/>
      <point x="392" y="-191"/>
      <point x="392" y="-134" type="curve" smooth="yes"/>
      <point x="392" y="-87"/>
      <point x="359" y="-64"/>
      <point x="291" y="-64" type="curve"/>
      <point x="338.423" y="20.41" type="line"/>
      <point x="236.423" y="20.41" type="line"/>
      <point x="168" y="-109" type="line"/>
      <point x="184" y="-107"/>
      <point x="209" y="-105"/>
      <point x="226" y="-105" type="curve" smooth="yes"/>
      <point x="256" y="-105"/>
      <point x="272" y="-111"/>
      <point x="272" y="-133" type="curve" smooth="yes"/>
      <point x="272" y="-151"/>
      <point x="261" y="-164"/>
      <point x="224" y="-164" type="curve" smooth="yes"/>
      <point x="203" y="-164"/>
      <point x="174" y="-160"/>
    </contour>
  </outline>
</glyph>
<glyph name="oslash" format="2">
  <advance width="616"/>
  <unicode hex="00F8"/>
  <anchor x="308" y="-20" name="bottom"/>
  <anchor x="420" y="-3" name="ogonek"/>
  <anchor x="308" y="520" name="top"/>
  <anchor x="376" y="520" name="topgr"/>
  <outline>
    <contour>
      <point x="92.902" y="-76" type="line"/>
      <point x="186.668" y="-76" type="line"/>
      <point x="231.843" y="13.521" type="line"/>
      <point x="239.745" y="48.143" type="line"/>
      <point x="445.814" y="437.505" type="line"/>
      <point x="458.681" y="463.039" type="line"/>
      <point x="517.228" y="579.06" type="line"/>
      <point x="423.461" y="579.06" type="line"/>
      <point x="381.97" y="496.838" type="line"/>
      <point x="372.004" y="460.144" type="line"/>
      <point x="164.824" y="68.582" type="line"/>
      <point x="149.456" y="36.073" type="line"/>
    </contour>
    <contour>
      <point x="308" y="-20" type="curve" smooth="yes"/>
      <point x="482" y="-20"/>
      <point x="577" y="79"/>
      <point x="577" y="255" type="curve" smooth="yes"/>
      <point x="577" y="421"/>
      <point x="481" y="520"/>
      <point x="308" y="520" type="curve" smooth="yes"/>
      <point x="145" y="520"/>
      <point x="39" y="421"/>
      <point x="39" y="255" type="curve" smooth="yes"/>
      <point x="39" y="79"/>
      <point x="146" y="-20"/>
    </contour>
    <contour>
      <point x="308" y="120" type="curve" smooth="yes"/>
      <point x="255" y="120"/>
      <point x="229" y="163.643"/>
      <point x="229" y="250.929" type="curve" smooth="yes"/>
      <point x="229" y="337.286"/>
      <point x="254" y="380"/>
      <point x="308" y="380" type="curve" smooth="yes"/>
      <point x="360" y="380"/>
      <point x="387" y="339.143"/>
      <point x="387" y="251.857" type="curve" smooth="yes"/>
      <point x="387" y="163.643"/>
      <point x="360" y="120"/>
    </contour>
  </outline>
</glyph>
<glyph name="thorn" format="2">
  <advance width="635"/>
  <unicode hex="00FE"/>
  <outline>
    <contour>
      <point x="60" y="-200" type="line"/>
      <point x="250" y="-200" type="line"/>
      <point x="250" y="61.34" type="line"/>
      <point x="277.26" y="8.66"/>
      <point x="318.95" y="-20"/>
      <point x="373" y="-20" type="curve" smooth="yes"/>
      <point x="509" y="-20"/>
      <point x="593" y="99"/>
      <point x="593" y="255" type="curve" smooth="yes"/>
      <point x="593" y="411"/>
      <point x="523" y="520"/>
      <point x="385" y="520" type="curve" smooth="yes"/>
      <point x="323.42" y="520"/>
      <point x="278.47" y="493.61"/>
      <point x="250" y="442.54" type="curve"/>
      <point x="249.55" y="750" type="line"/>
      <point x="60.25" y="750" type="line"/>
    </contour>
    <contour>
      <point x="322" y="116" type="curve" smooth="yes"/>
      <point x="277" y="116"/>
      <point x="250" y="168"/>
      <point x="250" y="255" type="curve" smooth="yes"/>
      <point x="250" y="335"/>
      <point x="278" y="383"/>
      <point x="326" y="383" type="curve" smooth="yes"/>
      <point x="374" y="383"/>
      <point x="403" y="334"/>
      <point x="403" y="254" type="curve" smooth="yes"/>
      <point x="403" y="167"/>
      <point x="373" y="116"/>
    </contour>
  </outline>
</glyph>
<glyph name="aogonek" format="2">
  <advance width="596"/>
  <unicode hex="0105"/>
  <anchor x="283" y="-20" name="bottom"/>
  <anchor x="291" y="520" name="top"/>
  <outline>
    <contour>
      <point x="363" y="500" type="line"/>
      <point x="363" y="0" type="line"/>
      <point x="553" y="0" type="line"/>
      <point x="553" y="500" type="line"/>
    </contour>
    <contour>
      <point x="224.545" y="-20" type="curve" smooth="yes"/>
      <point x="337.532" y="-20"/>
      <point x="395" y="82"/>
      <point x="395" y="258" type="curve" smooth="yes"/>
      <point x="395" y="432"/>
      <point x="338.506" y="520"/>
      <point x="220.649" y="520" type="curve" smooth="yes"/>
      <point x="89.156" y="520"/>
      <point x="20" y="401"/>
      <point x="20" y="252" type="curve" smooth="yes"/>
      <point x="20" y="89"/>
      <point x="102.792" y="-20"/>
    </contour>
    <contour>
      <point x="287.908" y="116" type="curve" smooth="yes"/>
      <point x="240.037" y="116"/>
      <point x="210" y="167"/>
      <point x="210" y="251" type="curve" smooth="yes"/>
      <point x="210" y="334"/>
      <point x="239.098" y="383"/>
      <point x="286.969" y="383" type="curve" smooth="yes"/>
      <point x="334.84" y="383"/>
      <point x="363" y="335"/>
      <point x="363" y="251" type="curve" smooth="yes"/>
      <point x="363" y="168"/>
      <point x="335.779" y="116"/>
    </contour>
    <contour>
      <point x="471.637" y="-206" type="curve"/>
      <point x="546" y="-183" type="line"/>
      <point x="503.672" y="-169"/>
      <point x="483" y="-138"/>
      <point x="483" y="-104" type="curve" smooth="yes"/>
      <point x="483" y="-67"/>
      <point x="506.619" y="-24"/>
      <point x="545" y="0" type="curve"/>
      <point x="485.709" y="3" type="line"/>
      <point x="389.236" y="-14"/>
      <point x="341" y="-53"/>
      <point x="341" y="-105" type="curve" smooth="yes"/>
      <point x="341" y="-158"/>
      <point x="392.25" y="-196"/>
    </contour>
  </outline>
</glyph>
<glyph name="dcroat" format="2">
  <advance width="635"/>
  <unicode hex="0111"/>
  <outline>
    <contour>
      <point x="266" y="-20" type="curve" smooth="yes"/>
      <point x="367" y="-20"/>
      <point x="424" y="78.222"/>
      <point x="424" y="244.815" type="curve" smooth="yes"/>
      <point x="424" y="415.259"/>
      <point x="368" y="500"/>
      <point x="255" y="500" type="curve" smooth="yes"/>
      <point x="118" y="500"/>
      <point x="49" y="395.037"/>
      <point x="49" y="244.815" type="curve" smooth="yes"/>
      <point x="49" y="94.593"/>
      <point x="132" y="-20"/>
    </contour>
    <contour>
      <point x="319.471" y="116" type="curve" smooth="yes"/>
      <point x="268.804" y="116"/>
      <point x="239" y="163.18"/>
      <point x="239" y="243.663" type="curve" smooth="yes"/>
      <point x="239" y="317.67"/>
      <point x="267.81" y="363"/>
      <point x="315.497" y="363" type="curve" smooth="yes"/>
      <point x="363.183" y="363"/>
      <point x="391" y="318.596"/>
      <point x="391" y="244.588" type="curve" smooth="yes"/>
      <point x="391" y="164.105"/>
      <point x="364.176" y="116"/>
    </contour>
    <contour>
      <point x="392" y="0" type="line"/>
      <point x="582" y="0" type="line"/>
      <point x="582" y="750" type="line"/>
      <point x="392" y="750" type="line"/>
    </contour>
    <contour>
      <point x="211.455" y="621" type="line"/>
      <point x="652.447" y="621" type="line"/>
      <point x="652.447" y="665" type="line"/>
      <point x="211.455" y="665" type="line"/>
    </contour>
  </outline>
</glyph>
<glyph name="Hbar" format="2">
  <advance width="737"/>
  <unicode hex="0126"/>
  <outline>
    <contour>
      <point x="69" y="0" type="line"/>
      <point x="259" y="0" type="line"/>
      <point x="259" y="300" type="line"/>
      <point x="479" y="300" type="line"/>
      <point x="479" y="0" type="line"/>
      <point x="669" y="0" type="line"/>
      <point x="669" y="700" type="line"/>
      <point x="479" y="700" type="line"/>
      <point x="479" y="440" type="line"/>
      <point x="259" y="440" type="line"/>
      <point x="259" y="700" type="line"/>
      <point x="69" y="700" type="line"/>
    </contour>
    <contour>
      <point x="0.27" y="514" type="line"/>
      <point x="737.266" y="514" type="line"/>
      <point x="737.266" y="548" type="line"/>
      <point x="0.27" y="548" type="line"/>
    </contour>
  </outline>
</glyph>
<glyph name="hbar" format="2">
  <advance width="641"/>
  <unicode hex="0127"/>
  <outline>
    <contour>
      <point x="392" y="247.407" type="curve" smooth="yes"/>
      <point x="392" y="0" type="line"/>
      <point x="582" y="0" type="line"/>
      <point x="582" y="294" type="line" smooth="yes"/>
      <point x="582" y="438"/>
      <point x="518" y="500"/>
      <point x="424" y="500" type="curve" smooth="yes"/>
      <point x="333" y="500"/>
      <point x="264" y="441"/>
      <point x="237" y="340" type="curve"/>
      <point x="239" y="262" type="line"/>
      <point x="255" y="197" type="line"/>
      <point x="255" y="293.18"/>
      <point x="275" y="360"/>
      <point x="330" y="360" type="curve" smooth="yes"/>
      <point x="370" y="360"/>
      <point x="392" y="324.815"/>
    </contour>
    <contour>
      <point x="65" y="0" type="line"/>
      <point x="255" y="0" type="line"/>
      <point x="255" y="750" type="line"/>
      <point x="65" y="750" type="line"/>
    </contour>
    <contour>
      <point x="11.8" y="631" type="line"/>
      <point x="403.464" y="631" type="line"/>
      <point x="403.464" y="665" type="line"/>
      <point x="11.8" y="665" type="line"/>
    </contour>
  </outline>
</glyph>
<glyph name="iogonek" format="2">
  <advance width="272"/>
  <unicode hex="012F"/>
  <anchor x="136" y="-20" name="bottom"/>
  <anchor x="136" y="717" name="top"/>
  <outline>
    <contour>
      <point x="41" y="500" type="line"/>
      <point x="41" y="0" type="line"/>
      <point x="231" y="0" type="line"/>
      <point x="231" y="500" type="line"/>
    </contour>
    <contour>
      <point x="41.5" y="636.951" type="curve" smooth="yes"/>
      <point x="41.908" y="595.1"/>
      <point x="74.199" y="544.688"/>
      <point x="137.927" y="544.688" type="curve" smooth="yes"/>
      <point x="199.753" y="544.688"/>
      <point x="232.092" y="591.295"/>
      <point x="231.5" y="637.902" type="curve" smooth="yes"/>
      <point x="232.092" y="684.51"/>
      <point x="199.753" y="727.312"/>
      <point x="138.878" y="727.312" type="curve" smooth="yes"/>
      <point x="74.198" y="727.312"/>
      <point x="41.092" y="678.805"/>
    </contour>
    <contour>
      <point x="158.637" y="-205" type="curve"/>
      <point x="233" y="-182" type="line"/>
      <point x="190.672" y="-168"/>
      <point x="170" y="-137"/>
      <point x="170" y="-103" type="curve" smooth="yes"/>
      <point x="170" y="-66"/>
      <point x="193.619" y="-23"/>
      <point x="232" y="1" type="curve"/>
      <point x="172.709" y="4" type="line"/>
      <point x="76.236" y="-13"/>
      <point x="28" y="-52"/>
      <point x="28" y="-104" type="curve" smooth="yes"/>
      <point x="28" y="-157"/>
      <point x="79.25" y="-195"/>
    </contour>
  </outline>
</glyph>
<glyph name="lslash" format="2">
  <advance width="350"/>
  <unicode hex="0142"/>
  <outline>
    <contour>
      <point x="346" y="3" type="curve"/>
      <point x="319" y="133" type="line"/>
      <point x="300" y="123.25"/>
      <point x="290" y="120"/>
      <point x="280" y="120" type="curve" smooth="yes"/>
      <point x="255" y="120"/>
      <point x="244" y="141.033"/>
      <point x="244" y="207.138" type="curve" smooth="yes"/>
      <point x="244" y="750" type="line"/>
      <point x="54" y="750" type="line"/>
      <point x="54" y="132" type="line" smooth="yes"/>
      <point x="54" y="26"/>
      <point x="104" y="-20"/>
      <point x="220" y="-20" type="curve" smooth="yes"/>
      <point x="268" y="-20"/>
      <point x="299" y="-12"/>
    </contour>
    <contour>
      <point x="-6" y="283" type="line"/>
      <point x="-6" y="242" type="line"/>
      <point x="334" y="474" type="line"/>
      <point x="334" y="515" type="line"/>
    </contour>
  </outline>
</glyph>
<glyph name="Eng" format="2">
  <advance width="752"/>
  <unicode hex="014A"/>
  <anchor x="411" y="-229" name="bottom"/>
  <anchor x="376" y="719" name="top"/>
  <outline>
    <contour>
      <point x="68" y="0" type="line"/>
      <point x="258" y="0" type="line"/>
      <point x="258" y="379" type="line"/>
      <point x="504" y="0" type="line"/>
      <point x="684" y="107.569" type="line"/>
      <point x="684" y="700" type="line"/>
      <point x="494" y="700" type="line"/>
      <point x="494" y="321" type="line"/>
      <point x="248" y="700" type="line"/>
      <point x="68" y="700" type="line"/>
    </contour>
    <contour>
      <point x="442" y="-240" type="curve" smooth="yes"/>
      <point x="606" y="-240"/>
      <point x="684" y="-140"/>
      <point x="684" y="22" type="curve" smooth="yes"/>
      <point x="684" y="480" type="line"/>
      <point x="494" y="480" type="line"/>
      <point x="494" y="29" type="line" smooth="yes"/>
      <point x="494" y="-56"/>
      <point x="477.534" y="-100"/>
      <point x="427.967" y="-100" type="curve" smooth="yes"/>
      <point x="381.576" y="-100"/>
      <point x="340.102" y="-60.431"/>
      <point x="300" y="8" type="curve"/>
      <point x="194" y="-98" type="line"/>
      <point x="259" y="-196"/>
      <point x="333" y="-240"/>
    </contour>
  </outline>
</glyph>
<glyph name="eng" format="2">
  <advance width="635"/>
  <unicode hex="014B"/>
  <outline>
    <contour>
      <point x="59" y="500" type="line"/>
      <point x="59" y="0" type="line"/>
      <point x="249" y="0" type="line"/>
      <point x="249" y="217" type="line" smooth="yes"/>
      <point x="249" y="312"/>
      <point x="269" y="378"/>
      <point x="324" y="378" type="curve" smooth="yes"/>
      <point x="364" y="378"/>
      <point x="386" y="343"/>
      <point x="386" y="266" type="curve" smooth="yes"/>
      <point x="386" y="3" type="line" smooth="yes"/>
      <point x="386" y="-63"/>
      <point x="380" y="-85"/>
      <point x="341" y="-85" type="curve" smooth="yes"/>
      <point x="326" y="-85"/>
      <point x="310" y="-82"/>
      <point x="291" y="-73" type="curve"/>
      <point x="254" y="-198" type="line"/>
      <point x="301" y="-212"/>
      <point x="325" y="-221"/>
      <point x="393" y="-221" type="curve" smooth="yes"/>
      <point x="512" y="-221"/>
      <point x="576" y="-174"/>
      <point x="576" y="-68" type="curve" smooth="yes"/>
      <point x="576" y="314" type="line" smooth="yes"/>
      <point x="576" y="458"/>
      <point x="512" y="520"/>
      <point x="418" y="520" type="curve" smooth="yes"/>
      <point x="342.97" y="520"/>
      <point x="282.91" y="479.88"/>
      <point x="249" y="409.2" type="curve"/>
      <point x="249" y="500" type="line"/>
    </contour>
  </outline>
</glyph>
<glyph name="OE" format="2">
  <advance width="968"/>
  <unicode hex="0152"/>
  <anchor x="484" y="-20" name="bottom"/>
  <anchor x="484" y="719" name="top"/>
  <outline>
    <contour>
      <point x="390.557" y="0" type="curve" smooth="yes"/>
      <point x="670" y="0" type="line"/>
      <point x="670" y="700" type="line"/>
      <point x="390.557" y="700" type="line" smooth="yes"/>
      <point x="178.226" y="700"/>
      <point x="33" y="558"/>
      <point x="33" y="350" type="curve" smooth="yes"/>
      <point x="33" y="141"/>
      <point x="177.225" y="0"/>
    </contour>
    <contour>
      <point x="411.285" y="140" type="line"/>
      <point x="296.727" y="140"/>
      <point x="226" y="224"/>
      <point x="226" y="359" type="curve" smooth="yes"/>
      <point x="226" y="489"/>
      <point x="291.746" y="560"/>
      <point x="411.285" y="560" type="curve" smooth="yes"/>
      <point x="485" y="560" type="line"/>
      <point x="485" y="140" type="line"/>
    </contour>
    <contour>
      <point x="491" y="0" type="line"/>
      <point x="923" y="0" type="line"/>
      <point x="923" y="140" type="line"/>
      <point x="676" y="140" type="line"/>
      <point x="676" y="297" type="line"/>
      <point x="883" y="297" type="line"/>
      <point x="883" y="437" type="line"/>
      <point x="676" y="437" type="line"/>
      <point x="676" y="560" type="line"/>
      <point x="908" y="560" type="line"/>
      <point x="908" y="700" type="line"/>
      <point x="491" y="700" type="line"/>
    </contour>
  </outline>
</glyph>
<glyph name="oe" format="2">
  <advance width="938"/>
  <unicode hex="0153"/>
  <anchor x="460" y="-20" name="bottom"/>
  <anchor x="460" y="520" name="top"/>
  <outline>
    <contour>
      <point x="657" y="-20" type="curve" smooth="yes"/>
      <point x="757" y="-20"/>
      <point x="826" y="14"/>
      <point x="882" y="70" type="curve"/>
      <point x="794" y="158" type="line"/>
      <point x="768" y="135.042"/>
      <point x="721" y="120"/>
      <point x="667" y="120" type="curve" smooth="yes"/>
      <point x="596" y="120"/>
      <point x="555" y="149.667"/>
      <point x="555" y="209" type="curve"/>
      <point x="912" y="209" type="line"/>
      <point x="933.474" y="390.707"/>
      <point x="828.467" y="520"/>
      <point x="641" y="520" type="curve" smooth="yes"/>
      <point x="482" y="520"/>
      <point x="368" y="419"/>
      <point x="368" y="251" type="curve" smooth="yes"/>
      <point x="368" y="81"/>
      <point x="485" y="-20"/>
    </contour>
    <contour>
      <point x="289" y="-20" type="curve" smooth="yes"/>
      <point x="463" y="-20"/>
      <point x="558" y="79"/>
      <point x="558" y="255" type="curve" smooth="yes"/>
      <point x="558" y="421"/>
      <point x="462" y="520"/>
      <point x="289" y="520" type="curve" smooth="yes"/>
      <point x="126" y="520"/>
      <point x="20" y="421"/>
      <point x="20" y="255" type="curve" smooth="yes"/>
      <point x="20" y="79"/>
      <point x="127" y="-20"/>
    </contour>
    <contour>
      <point x="289" y="120" type="curve" smooth="yes"/>
      <point x="236" y="120"/>
      <point x="210" y="163.643"/>
      <point x="210" y="250.929" type="curve" smooth="yes"/>
      <point x="210" y="337.286"/>
      <point x="235" y="380"/>
      <point x="289" y="380" type="curve" smooth="yes"/>
      <point x="341" y="380"/>
      <point x="368" y="339.143"/>
      <point x="368" y="251.857" type="curve" smooth="yes"/>
      <point x="368" y="163.643"/>
      <point x="341" y="120"/>
    </contour>
    <contour>
      <point x="725" y="329" type="curve"/>
      <point x="555" y="329" type="line"/>
      <point x="559" y="367"/>
      <point x="593" y="390"/>
      <point x="643" y="390" type="curve" smooth="yes"/>
      <point x="693" y="390"/>
      <point x="721" y="367"/>
    </contour>
  </outline>
</glyph>
<glyph name="scedilla" format="2">
  <advance width="487"/>
  <unicode hex="015F"/>
  <anchor x="223" y="-218" name="bottom"/>
  <anchor x="243" y="520" name="top"/>
  <outline>
    <contour>
      <point x="114" y="158" type="curve"/>
      <point x="26" y="70" type="line"/>
      <point x="80" y="16"/>
      <point x="157" y="-20"/>
      <point x="252" y="-20" type="curve" smooth="yes"/>
      <point x="379" y="-20"/>
      <point x="467" y="45"/>
      <point x="467" y="148" type="curve" smooth="yes"/>
      <point x="467" y="231"/>
      <point x="409.994" y="284.977"/>
      <point x="291" y="314" type="curve" smooth="yes"/>
      <point x="245.994" y="324.977"/>
      <point x="224" y="336"/>
      <point x="224" y="357" type="curve" smooth="yes"/>
      <point x="224" y="374"/>
      <point x="240" y="390"/>
      <point x="271" y="390" type="curve" smooth="yes"/>
      <point x="306" y="390"/>
      <point x="348" y="369"/>
      <point x="372" y="342" type="curve"/>
      <point x="460" y="430" type="line"/>
      <point x="406" y="484"/>
      <point x="339" y="520"/>
      <point x="246" y="520" type="curve" smooth="yes"/>
      <point x="114" y="520"/>
      <point x="34" y="448"/>
      <point x="34" y="352" type="curve" smooth="yes"/>
      <point x="34" y="268"/>
      <point x="94.945" y="211.72"/>
      <point x="202" y="191" type="curve" smooth="yes"/>
      <point x="249.947" y="181.72"/>
      <point x="277" y="168"/>
      <point x="277" y="143" type="curve" smooth="yes"/>
      <point x="277" y="121"/>
      <point x="256" y="110"/>
      <point x="224" y="110" type="curve" smooth="yes"/>
      <point x="180" y="110"/>
      <point x="138" y="131"/>
    </contour>
    <contour>
      <point x="146" y="-154" type="curve"/>
      <point x="120" y="-205" type="line"/>
      <point x="142" y="-211"/>
      <point x="175" y="-218"/>
      <point x="228" y="-218" type="curve" smooth="yes"/>
      <point x="331" y="-218"/>
      <point x="380" y="-191"/>
      <point x="380" y="-134" type="curve" smooth="yes"/>
      <point x="380" y="-87"/>
      <point x="347" y="-64"/>
      <point x="279" y="-64" type="curve"/>
      <point x="326.423" y="20.41" type="line"/>
      <point x="224.423" y="20.41" type="line"/>
      <point x="156" y="-109" type="line"/>
      <point x="172" y="-107"/>
      <point x="197" y="-105"/>
      <point x="214" y="-105" type="curve" smooth="yes"/>
      <point x="244" y="-105"/>
      <point x="260" y="-111"/>
      <point x="260" y="-133" type="curve" smooth="yes"/>
      <point x="260" y="-151"/>
      <point x="249" y="-164"/>
      <point x="212" y="-164" type="curve" smooth="yes"/>
      <point x="191" y="-164"/>
      <point x="162" y="-160"/>
    </contour>
  </outline>
</glyph>
<glyph name="uni0162" format="2">
  <advance width="648"/>
  <unicode hex="0162"/>
  <anchor x="304" y="-218" name="bottom"/>
  <anchor x="324" y="719" name="top"/>
  <outline>
    <contour>
      <point x="229" y="560" type="line"/>
      <point x="229" y="0" type="line"/>
      <point x="419" y="0" type="line"/>
      <point x="419" y="560" type="line"/>
      <point x="627" y="560" type="line"/>
      <point x="627" y="700" type="line"/>
      <point x="21" y="700" type="line"/>
      <point x="21" y="560" type="line"/>
    </contour>
    <contour>
      <point x="198" y="-154" type="curve"/>
      <point x="172" y="-205" type="line"/>
      <point x="194" y="-211"/>
      <point x="227" y="-218"/>
      <point x="280" y="-218" type="curve" smooth="yes"/>
      <point x="383" y="-218"/>
      <point x="432" y="-191"/>
      <point x="432" y="-134" type="curve" smooth="yes"/>
      <point x="432" y="-87"/>
      <point x="399" y="-64"/>
      <point x="331" y="-64" type="curve"/>
      <point x="378.423" y="20.41" type="line"/>
      <point x="276.423" y="20.41" type="line"/>
      <point x="208" y="-109" type="line"/>
      <point x="224" y="-107"/>
      <point x="249" y="-105"/>
      <point x="266" y="-105" type="curve" smooth="yes"/>
      <point x="296" y="-105"/>
      <point x="312" y="-111"/>
      <point x="312" y="-133" type="curve" smooth="yes"/>
      <point x="312" y="-151"/>
      <point x="301" y="-164"/>
      <point x="264" y="-164" type="curve" smooth="yes"/>
      <point x="243" y="-164"/>
      <point x="214" y="-160"/>
    </contour>
  </outline>
</glyph>
<glyph name="uni0163" format="2">
  <advance width="395"/>
  <unicode hex="0163"/>
  <anchor x="220" y="-218" name="bottom"/>
  <anchor x="175" y="630" name="top"/>
  <anchor x="302" y="700" name="topright"/>
  <outline>
    <contour>
      <point x="246" y="-20" type="curve" smooth="yes"/>
      <point x="297.8" y="-20"/>
      <point x="340.29" y="-10.68"/>
      <point x="389.8" y="10.47" type="curve"/>
      <point x="356.61" y="134.41" type="line"/>
      <point x="340.79" y="126.69"/>
      <point x="316.64" y="122"/>
      <point x="306" y="122" type="curve" smooth="yes"/>
      <point x="281" y="122"/>
      <point x="270" y="143.03"/>
      <point x="270" y="209.13" type="curve" smooth="yes"/>
      <point x="270" y="621" type="line"/>
      <point x="80" y="621" type="line"/>
      <point x="80.05" y="132.75" type="line" smooth="yes"/>
      <point x="80.05" y="26.75"/>
      <point x="130" y="-20"/>
    </contour>
    <contour>
      <point x="196" y="-218" type="curve" smooth="yes"/>
      <point x="299" y="-218"/>
      <point x="348" y="-191"/>
      <point x="348" y="-134" type="curve" smooth="yes"/>
      <point x="348" y="-87"/>
      <point x="315" y="-64"/>
      <point x="247" y="-64" type="curve"/>
      <point x="294.423" y="20.41" type="line"/>
      <point x="192.423" y="20.41" type="line"/>
      <point x="124" y="-109" type="line"/>
      <point x="140" y="-107"/>
      <point x="165" y="-105"/>
      <point x="182" y="-105" type="curve" smooth="yes"/>
      <point x="212" y="-105"/>
      <point x="228" y="-111"/>
      <point x="228" y="-133" type="curve" smooth="yes"/>
      <point x="228" y="-151"/>
      <point x="217" y="-164"/>
      <point x="180" y="-164" type="curve" smooth="yes"/>
      <point x="159" y="-164"/>
      <point x="130" y="-160"/>
      <point x="114" y="-154" type="curve"/>
      <point x="88" y="-205" type="line"/>
      <point x="110" y="-211"/>
      <point x="143" y="-218"/>
    </contour>
    <contour>
      <point x="3" y="370" type="line"/>
      <point x="385" y="370" type="line"/>
      <point x="385" y="500" type="line"/>
      <point x="3" y="500" type="line"/>
    </contour>
  </outline>
</glyph>
<glyph name="Tbar" format="2">
  <advance width="648"/>
  <unicode hex="0166"/>
  <anchor x="324" y="-20" name="bottom"/>
  <anchor x="324" y="719" name="top"/>
  <outline>
    <contour>
      <point x="229" y="560" type="line"/>
      <point x="229" y="0" type="line"/>
      <point x="419" y="0" type="line"/>
      <point x="419" y="560" type="line"/>
      <point x="627" y="560" type="line"/>
      <point x="627" y="700" type="line"/>
      <point x="21" y="700" type="line"/>
      <point x="21" y="560" type="line"/>
    </contour>
    <contour>
      <point x="64" y="374" type="line"/>
      <point x="64" y="278" type="line"/>
      <point x="584" y="278" type="line"/>
      <point x="584" y="374" type="line"/>
    </contour>
  </outline>
</glyph>
<glyph name="Uogonek" format="2">
  <advance width="675"/>
  <unicode hex="0172"/>
  <anchor x="338" y="-20" name="bottom"/>
  <anchor x="338" y="719" name="top"/>
  <outline>
    <contour>
      <point x="240" y="278" type="curve" smooth="yes"/>
      <point x="240" y="700" type="line"/>
      <point x="50" y="700" type="line"/>
      <point x="50" y="262" type="line" smooth="yes"/>
      <point x="50" y="88"/>
      <point x="158.784" y="-20"/>
      <point x="335.946" y="-20" type="curve" smooth="yes"/>
      <point x="513.108" y="-20"/>
      <point x="625" y="89"/>
      <point x="625" y="262" type="curve" smooth="yes"/>
      <point x="625" y="700" type="line"/>
      <point x="435" y="700" type="line"/>
      <point x="435" y="278" type="line" smooth="yes"/>
      <point x="435" y="170"/>
      <point x="403.8" y="120"/>
      <point x="336.943" y="120" type="curve" smooth="yes"/>
      <point x="270.086" y="120"/>
      <point x="240" y="169"/>
    </contour>
    <contour>
      <point x="387.637" y="-204" type="curve"/>
      <point x="462" y="-181" type="line"/>
      <point x="419.672" y="-167"/>
      <point x="399" y="-136"/>
      <point x="399" y="-102" type="curve" smooth="yes"/>
      <point x="399" y="-65"/>
      <point x="422.619" y="-22"/>
      <point x="461" y="2" type="curve"/>
      <point x="401.709" y="5" type="line"/>
      <point x="305.236" y="-12"/>
      <point x="257" y="-51"/>
      <point x="257" y="-103" type="curve" smooth="yes"/>
      <point x="257" y="-156"/>
      <point x="308.25" y="-194"/>
    </contour>
  </outline>
</glyph>
<glyph name="longs" format="2">
  <advance width="300"/>
  <unicode hex="017F"/>
  <outline>
    <contour>
      <point x="304" y="597" type="curve"/>
      <point x="338" y="724" type="line"/>
      <point x="293" y="742"/>
      <point x="253.787" y="750"/>
      <point x="206.732" y="750" type="curve" smooth="yes"/>
      <point x="93.016" y="750"/>
      <point x="44" y="704"/>
      <point x="44" y="598" type="curve" smooth="yes"/>
      <point x="44" y="0" type="line"/>
      <point x="234" y="0" type="line"/>
      <point x="234" y="520.862" type="line" smooth="yes"/>
      <point x="234" y="586.967"/>
      <point x="244.12" y="608"/>
      <point x="267.122" y="608" type="curve" smooth="yes"/>
      <point x="276.322" y="608"/>
      <point x="291.533" y="604.397"/>
    </contour>
  </outline>
</glyph>
<glyph name="uni018F" format="2">
  <advance width="759"/>
  <unicode hex="018F"/>
  <anchor x="380" y="-20" name="bottom"/>
  <anchor x="380" y="719" name="top"/>
  <outline>
    <contour>
      <point x="375" y="-20" type="curve" smooth="yes"/>
      <point x="586" y="-20"/>
      <point x="736" y="119"/>
      <point x="736" y="354" type="curve" smooth="yes"/>
      <point x="736" y="590"/>
      <point x="584" y="720"/>
      <point x="366" y="720" type="curve" smooth="yes"/>
      <point x="225" y="720"/>
      <point x="129" y="665"/>
      <point x="75" y="599" type="curve"/>
      <point x="181" y="493" type="line"/>
      <point x="235" y="553.698"/>
      <point x="286" y="580"/>
      <point x="355" y="580" type="curve" smooth="yes"/>
      <point x="470" y="580"/>
      <point x="546" y="508.69"/>
      <point x="546" y="337.948" type="curve" smooth="yes"/>
      <point x="546" y="195.328"/>
      <point x="493" y="120"/>
      <point x="380" y="120" type="curve" smooth="yes"/>
      <point x="284" y="120"/>
      <point x="229" y="175"/>
      <point x="219" y="280" type="curve"/>
      <point x="555" y="280" type="line"/>
      <point x="556" y="417" type="line"/>
      <point x="30" y="417" type="line"/>
      <point x="26" y="402"/>
      <point x="23" y="376"/>
      <point x="23" y="344" type="curve" smooth="yes"/>
      <point x="23" y="125"/>
      <point x="160" y="-20"/>
    </contour>
  </outline>
</glyph>
<glyph name="florin" format="2">
  <advance width="533"/>
  <unicode hex="0192"/>
  <outline>
    <contour>
      <point x="56" y="-17" type="curve" smooth="yes"/>
      <point x="325" y="-17"/>
      <point x="312" y="173"/>
      <point x="312" y="335" type="curve" smooth="yes"/>
      <point x="312" y="497"/>
      <point x="299" y="586"/>
      <point x="398" y="586" type="curve" smooth="yes"/>
      <point x="430" y="586"/>
      <point x="462" y="577"/>
      <point x="516" y="560" type="curve"/>
      <point x="548" y="696" type="line"/>
      <point x="486" y="713"/>
      <point x="436" y="719"/>
      <point x="388" y="719" type="curve" smooth="yes"/>
      <point x="127" y="719"/>
      <point x="124" y="545"/>
      <point x="124" y="438" type="curve" smooth="yes"/>
      <point x="124" y="184"/>
      <point x="141" y="116"/>
      <point x="48" y="116" type="curve" smooth="yes"/>
      <point x="21" y="116"/>
      <point x="-12" y="122"/>
      <point x="-69" y="140" type="curve"/>
      <point x="-103" y="6" type="line"/>
      <point x="-41" y="-11"/>
      <point x="8" y="-17"/>
    </contour>
    <contour>
      <point x="19" y="362" type="line"/>
      <point x="485" y="362" type="line"/>
      <point x="485" y="494" type="line"/>
      <point x="19" y="494" type="line"/>
    </contour>
  </outline>
</glyph>
<glyph name="uni0237" format="2">
  <advance width="290"/>
  <unicode hex="0237"/>
  <anchor x="100" y="-217" name="bottom"/>
  <anchor x="157" y="520" name="top"/>
  <outline>
    <contour>
      <point x="81.309" y="-221" type="curve" smooth="yes"/>
      <point x="191.655" y="-221"/>
      <point x="251" y="-174"/>
      <point x="251" y="-68" type="curve" smooth="yes"/>
      <point x="251" y="500" type="line"/>
      <point x="61" y="500" type="line"/>
      <point x="61" y="7" type="line" smooth="yes"/>
      <point x="61" y="-59"/>
      <point x="56.579" y="-81"/>
      <point x="27.842" y="-81" type="curve" smooth="yes"/>
      <point x="16.789" y="-81"/>
      <point x="5" y="-79"/>
      <point x="-14" y="-73" type="curve"/>
      <point x="-51" y="-198" type="line"/>
      <point x="-4" y="-212"/>
      <point x="18.255" y="-221"/>
    </contour>
  </outline>
</glyph>
<glyph name="uni0259" format="2">
  <advance width="563"/>
  <unicode hex="0259"/>
  <anchor x="276" y="-20" name="bottom"/>
  <anchor x="276" y="520" name="top"/>
  <outline>
    <contour>
      <point x="280" y="-20" type="curve" smooth="yes"/>
      <point x="443" y="-20"/>
      <point x="544" y="90"/>
      <point x="544" y="254" type="curve" smooth="yes"/>
      <point x="544" y="418"/>
      <point x="443" y="520"/>
      <point x="265" y="520" type="curve" smooth="yes"/>
      <point x="163" y="520"/>
      <point x="93" y="486"/>
      <point x="37" y="430" type="curve"/>
      <point x="125" y="342" type="line"/>
      <point x="154.865" y="371"/>
      <point x="210" y="390"/>
      <point x="256" y="390" type="curve" smooth="yes"/>
      <point x="315" y="390"/>
      <point x="345.833" y="359"/>
      <point x="352" y="299" type="curve"/>
      <point x="23" y="299" type="line"/>
      <point x="21" y="283"/>
      <point x="19" y="272"/>
      <point x="19" y="249" type="curve" smooth="yes"/>
      <point x="19" y="85"/>
      <point x="121" y="-20"/>
    </contour>
    <contour>
      <point x="275" y="110" type="curve" smooth="yes"/>
      <point x="236" y="110"/>
      <point x="205" y="135.746"/>
      <point x="201" y="189" type="curve"/>
      <point x="345" y="189" type="line"/>
      <point x="340" y="139"/>
      <point x="315" y="110"/>
    </contour>
  </outline>
</glyph>
<glyph name="uni02BC" format="2">
  <advance width="287"/>
  <unicode hex="02BC"/>
  <outline>
    <contour>
      <point x="96" y="701" type="line"/>
      <point x="55" y="500" type="line"/>
      <point x="166" y="500" type="line"/>
      <point x="242" y="701" type="line"/>
    </contour>
  </outline>
</glyph>
<glyph name="caron" format="2">
  <advance width="346"/>
  <unicode hex="02C7"/>
  <outline>
    <contour>
      <point x="12" y="701" type="line"/>
      <point x="114" y="550" type="line"/>
      <point x="232" y="550" type="line"/>
      <point x="334" y="701" type="line"/>
      <point x="215" y="701" type="line"/>
      <point x="173" y="629" type="line"/>
      <point x="131" y="701" type="line"/>
    </contour>
  </outline>
</glyph>
<glyph name="dotaccent" format="2">
  <advance width="211"/>
  <unicode hex="02D9"/>
  <outline>
    <contour>
      <point x="10.5" y="616.951" type="curve" smooth="yes"/>
      <point x="10.908" y="575.1"/>
      <point x="43.199" y="524.688"/>
      <point x="106.927" y="524.688" type="curve" smooth="yes"/>
      <point x="168.753" y="524.688"/>
      <point x="201.092" y="571.295"/>
      <point x="200.5" y="617.902" type="curve" smooth="yes"/>
      <point x="201.092" y="664.51"/>
      <point x="168.753" y="707.312"/>
      <point x="107.878" y="707.312" type="curve" smooth="yes"/>
      <point x="43.198" y="707.312"/>
      <point x="10.092" y="658.805"/>
    </contour>
  </outline>
</glyph>
<glyph name="ogonek" format="2">
  <advance width="209"/>
  <unicode hex="02DB"/>
  <outline>
    <contour>
      <point x="132.637" y="-203" type="curve"/>
      <point x="207" y="-180" type="line"/>
      <point x="164.672" y="-166"/>
      <point x="144" y="-135"/>
      <point x="144" y="-101" type="curve" smooth="yes"/>
      <point x="144" y="-64"/>
      <point x="167.619" y="-21"/>
      <point x="206" y="3" type="curve"/>
      <point x="146.709" y="6" type="line"/>
      <point x="50.236" y="-11"/>
      <point x="2" y="-50"/>
      <point x="2" y="-102" type="curve" smooth="yes"/>
      <point x="2" y="-155"/>
      <point x="53.25" y="-193"/>
    </contour>
  </outline>
</glyph>
<glyph name="tilde" format="2">
  <advance width="443"/>
  <unicode hex="02DC"/>
  <outline>
    <contour>
      <point x="300" y="554" type="curve" smooth="yes"/>
      <point x="354" y="554"/>
      <point x="406" y="600.611"/>
      <point x="406" y="700" type="curve"/>
      <point x="305" y="700" type="line"/>
      <point x="302" y="677.657"/>
      <point x="294" y="664"/>
      <point x="271" y="664" type="curve" smooth="yes"/>
      <point x="228" y="664"/>
      <point x="198" y="708"/>
      <point x="142" y="708" type="curve" smooth="yes"/>
      <point x="92" y="708"/>
      <point x="39" y="662.114"/>
      <point x="39" y="562" type="curve"/>
      <point x="140" y="562" type="line"/>
      <point x="143" y="585"/>
      <point x="156" y="598"/>
      <point x="175" y="598" type="curve" smooth="yes"/>
      <point x="212" y="598"/>
      <point x="243" y="554"/>
    </contour>
  </outline>
</glyph>
<glyph name="hungarumlaut" format="2">
  <advance width="389"/>
  <unicode hex="02DD"/>
  <outline>
    <contour>
      <point x="250" y="702" type="line"/>
      <point x="190" y="551" type="line"/>
      <point x="281" y="551" type="line"/>
      <point x="381" y="702" type="line"/>
    </contour>
    <contour>
      <point x="65" y="702" type="line"/>
      <point x="5" y="551" type="line"/>
      <point x="96" y="551" type="line"/>
      <point x="196" y="702" type="line"/>
    </contour>
  </outline>
</glyph>
<glyph name="gravecomb" format="2">
  <advance width="0"/>
  <unicode hex="0300"/>
  <anchor x="178" y="500" name="_top"/>
  <anchor x="148" y="700" name="top"/>
  <outline>
    <contour>
      <point x="18" y="701" type="line"/>
      <point x="124" y="550" type="line"/>
      <point x="235" y="550" type="line"/>
      <point x="164" y="701" type="line"/>
    </contour>
  </outline>
</glyph>
<glyph name="acutecomb" format="2">
  <advance width="0"/>
  <unicode hex="0301"/>
  <anchor x="125" y="500" name="_top"/>
  <anchor x="141" y="700" name="top"/>
  <outline>
    <contour>
      <point x="76" y="550" type="line"/>
      <point x="187" y="550" type="line"/>
      <point x="293" y="701" type="line"/>
      <point x="147" y="701" type="line"/>
    </contour>
  </outline>
</glyph>
<glyph name="uni0302" format="2">
  <advance width="0"/>
  <unicode hex="0302"/>
  <anchor x="173" y="500" name="_top"/>
  <anchor x="173" y="700" name="top"/>
  <outline>
    <contour>
      <point x="114" y="701" type="line"/>
      <point x="12" y="550" type="line"/>
      <point x="131" y="550" type="line"/>
      <point x="173" y="622" type="line"/>
      <point x="215" y="550" type="line"/>
      <point x="334" y="550" type="line"/>
      <point x="232" y="701" type="line"/>
    </contour>
  </outline>
</glyph>
<glyph name="uni0308" format="2">
  <advance width="0"/>
  <unicode hex="0308"/>
  <anchor x="204" y="500" name="_top"/>
  <anchor x="204" y="500" name="_topgr"/>
  <anchor x="204" y="687" name="top"/>
  <outline>
    <contour>
      <point x="102.451" y="523.771" type="curve" smooth="yes"/>
      <point x="160.835" y="523.771"/>
      <point x="191.374" y="567.157"/>
      <point x="191.374" y="608.771" type="curve" smooth="yes"/>
      <point x="191.374" y="653.928"/>
      <point x="160.835" y="693.771"/>
      <point x="102.451" y="693.771" type="curve" smooth="yes"/>
      <point x="42.27" y="693.771"/>
      <point x="10.833" y="648.615"/>
      <point x="10.833" y="608.771" type="curve" smooth="yes"/>
      <point x="10.833" y="570.698"/>
      <point x="42.27" y="523.771"/>
    </contour>
    <contour>
      <point x="307.244" y="523.771" type="curve" smooth="yes"/>
      <point x="365.628" y="523.771"/>
      <point x="396.167" y="567.157"/>
      <point x="396.167" y="608.771" type="curve" smooth="yes"/>
      <point x="396.167" y="653.928"/>
      <point x="365.628" y="693.771"/>
      <point x="307.244" y="693.771" type="curve" smooth="yes"/>
      <point x="247.063" y="693.771"/>
      <point x="215.626" y="648.615"/>
      <point x="215.626" y="608.771" type="curve" smooth="yes"/>
      <point x="215.626" y="570.698"/>
      <point x="247.063" y="523.771"/>
    </contour>
  </outline>
</glyph>
<glyph name="uni030A" format="2">
  <advance width="0"/>
  <unicode hex="030A"/>
  <anchor x="135" y="500" name="_top"/>
  <anchor x="135" y="723" name="top"/>
  <outline>
    <contour>
      <point x="135" y="513" type="curve" smooth="yes"/>
      <point x="200" y="513"/>
      <point x="243" y="554"/>
      <point x="243" y="618" type="curve" smooth="yes"/>
      <point x="243" y="681"/>
      <point x="200" y="723"/>
      <point x="135" y="723" type="curve" smooth="yes"/>
      <point x="70" y="723"/>
      <point x="27" y="681"/>
      <point x="27" y="618" type="curve" smooth="yes"/>
      <point x="27" y="554"/>
      <point x="70" y="513"/>
    </contour>
    <contour>
      <point x="135" y="580" type="curve" smooth="yes"/>
      <point x="112" y="580"/>
      <point x="98" y="594"/>
      <point x="98" y="618" type="curve" smooth="yes"/>
      <point x="98" y="641"/>
      <point x="112" y="656"/>
      <point x="135" y="656" type="curve" smooth="yes"/>
      <point x="158" y="656"/>
      <point x="172" y="641"/>
      <point x="172" y="618" type="curve" smooth="yes"/>
      <point x="172" y="595"/>
      <point x="158" y="580"/>
    </contour>
  </outline>
</glyph>
<glyph name="uni030B" format="2">
  <advance width="0"/>
  <unicode hex="030B"/>
  <anchor x="144" y="500" name="_top"/>
  <anchor x="204" y="702" name="top"/>
  <outline>
    <contour>
      <point x="190" y="551" type="line"/>
      <point x="281" y="551" type="line"/>
      <point x="381" y="702" type="line"/>
      <point x="250" y="702" type="line"/>
    </contour>
    <contour>
      <point x="5" y="551" type="line"/>
      <point x="96" y="551" type="line"/>
      <point x="196" y="702" type="line"/>
      <point x="65" y="702" type="line"/>
    </contour>
  </outline>
</glyph>
<glyph name="uni0326" format="2">
  <advance width="0"/>
  <unicode hex="0326"/>
  <anchor x="123" y="0" name="_bottom"/>
  <anchor x="123" y="-248" name="bottom"/>
  <outline>
    <contour>
      <point x="63" y="-224" type="curve"/>
      <point x="84" y="-257" type="line"/>
      <point x="150" y="-238.919"/>
      <point x="194" y="-175.637"/>
      <point x="194" y="-112.354" type="curve" smooth="yes"/>
      <point x="194" y="-69.161"/>
      <point x="173" y="-33"/>
      <point x="121" y="-33" type="curve" smooth="yes"/>
      <point x="80" y="-33"/>
      <point x="52" y="-55.185"/>
      <point x="52" y="-93.504" type="curve" smooth="yes"/>
      <point x="52" y="-131.824"/>
      <point x="80" y="-153"/>
      <point x="111" y="-153" type="curve" smooth="yes"/>
      <point x="123" y="-153"/>
      <point x="136" y="-150"/>
      <point x="138" y="-146" type="curve"/>
      <point x="135" y="-179"/>
      <point x="97" y="-207"/>
    </contour>
  </outline>
</glyph>
<glyph name="uni0327" format="2">
  <advance width="0"/>
  <unicode hex="0327"/>
  <anchor x="171" y="-10" name="_bottom"/>
  <anchor x="151" y="-208" name="bottom"/>
  <outline>
    <contour>
      <point x="45" y="-144" type="curve"/>
      <point x="19" y="-195" type="line"/>
      <point x="41" y="-201"/>
      <point x="74" y="-208"/>
      <point x="127" y="-208" type="curve" smooth="yes"/>
      <point x="230" y="-208"/>
      <point x="279" y="-181"/>
      <point x="279" y="-124" type="curve" smooth="yes"/>
      <point x="279" y="-77"/>
      <point x="246" y="-54"/>
      <point x="178" y="-54" type="curve"/>
      <point x="225.423" y="30.41" type="line"/>
      <point x="123.423" y="30.41" type="line"/>
      <point x="55" y="-99" type="line"/>
      <point x="71" y="-97"/>
      <point x="96" y="-95"/>
      <point x="113" y="-95" type="curve" smooth="yes"/>
      <point x="143" y="-95"/>
      <point x="159" y="-101"/>
      <point x="159" y="-123" type="curve" smooth="yes"/>
      <point x="159" y="-141"/>
      <point x="148" y="-154"/>
      <point x="111" y="-154" type="curve" smooth="yes"/>
      <point x="90" y="-154"/>
      <point x="61" y="-150"/>
    </contour>
  </outline>
</glyph>
<glyph name="uni0328" format="2">
  <advance width="0"/>
  <unicode hex="0328"/>
  <anchor x="206" y="0" name="_ogonek"/>
  <outline>
    <contour>
      <point x="132.637" y="-203" type="curve"/>
      <point x="207" y="-180" type="line"/>
      <point x="164.672" y="-166"/>
      <point x="144" y="-135"/>
      <point x="144" y="-101" type="curve" smooth="yes"/>
      <point x="144" y="-64"/>
      <point x="167.619" y="-21"/>
      <point x="206" y="3" type="curve"/>
      <point x="146.709" y="6" type="line"/>
      <point x="50.236" y="-11"/>
      <point x="2" y="-50"/>
      <point x="2" y="-102" type="curve" smooth="yes"/>
      <point x="2" y="-155"/>
      <point x="53.25" y="-193"/>
    </contour>
  </outline>
</glyph>
<glyph name="uni0374" format="2">
  <advance width="243"/>
  <unicode hex="0374"/>
  <outline>
    <contour>
      <point x="127" y="715" type="line"/>
      <point x="6" y="498" type="line"/>
      <point x="157" y="498" type="line"/>
      <point x="236" y="715" type="line"/>
    </contour>
  </outline>
</glyph>
<glyph name="uni0375" format="2">
  <advance width="241"/>
  <unicode hex="0375"/>
  <outline>
    <contour>
      <point x="3" y="-149" type="line"/>
      <point x="154" y="-149" type="line"/>
      <point x="233" y="68" type="line"/>
      <point x="124" y="68" type="line"/>
    </contour>
  </outline>
</glyph>
<glyph name="uni037E" format="2">
  <advance width="277"/>
  <unicode hex="037E"/>
  <outline>
    <contour>
      <point x="77" y="119" type="line"/>
      <point x="-32" y="-149" type="line"/>
      <point x="136" y="-149" type="line"/>
      <point x="208" y="119" type="line"/>
    </contour>
    <component base="period" xOffset="8" yOffset="381" identifier="CE91E14C"/>
  </outline>
</glyph>
<glyph name="anoteleia" format="2">
  <advance width="262"/>
  <unicode hex="0387"/>
  <outline>
    <contour>
      <point x="131" y="361" type="curve" smooth="yes"/>
      <point x="189" y="361"/>
      <point x="233" y="407"/>
      <point x="233" y="464" type="curve" smooth="yes"/>
      <point x="233" y="521"/>
      <point x="189" y="565"/>
      <point x="131" y="565" type="curve" smooth="yes"/>
      <point x="72" y="565"/>
      <point x="29" y="521"/>
      <point x="29" y="464" type="curve" smooth="yes"/>
      <point x="29" y="407"/>
      <point x="72" y="361"/>
    </contour>
  </outline>
</glyph>
<glyph name="uni0394" format="2">
  <advance width="655"/>
  <unicode hex="0394"/>
  <outline>
    <contour>
      <point x="227" y="140" type="line"/>
      <point x="183" y="0" type="line"/>
      <point x="469" y="0" type="line"/>
      <point x="425" y="140" type="line"/>
    </contour>
    <contour>
      <point x="224" y="700" type="line"/>
      <point x="-3" y="0" type="line"/>
      <point x="196" y="0" type="line"/>
      <point x="397" y="700" type="line"/>
    </contour>
    <contour>
      <point x="258" y="700" type="line"/>
      <point x="459" y="0" type="line"/>
      <point x="658" y="0" type="line"/>
      <point x="431" y="700" type="line"/>
    </contour>
  </outline>
</glyph>
<glyph name="Lambda" format="2">
  <advance width="655"/>
  <unicode hex="039B"/>
  <anchor x="328" y="-20" name="bottom"/>
  <anchor x="328" y="719" name="top"/>
  <outline>
    <contour>
      <point x="459" y="0" type="line"/>
      <point x="658" y="0" type="line"/>
      <point x="431" y="700" type="line"/>
      <point x="276" y="700" type="line"/>
    </contour>
    <contour>
      <point x="-3" y="0" type="line"/>
      <point x="196" y="0" type="line"/>
      <point x="379" y="700" type="line"/>
      <point x="224" y="700" type="line"/>
    </contour>
  </outline>
</glyph>
<glyph name="Xi" format="2">
  <advance width="593"/>
  <unicode hex="039E"/>
  <outline>
    <contour>
      <point x="45" y="560" type="line"/>
      <point x="548" y="560" type="line"/>
      <point x="548" y="700" type="line"/>
      <point x="45" y="700" type="line"/>
    </contour>
    <contour>
      <point x="45" y="0" type="line"/>
      <point x="548" y="0" type="line"/>
      <point x="548" y="140" type="line"/>
      <point x="45" y="140" type="line"/>
    </contour>
    <contour>
      <point x="101" y="281" type="line"/>
      <point x="493" y="281" type="line"/>
      <point x="493" y="417" type="line"/>
      <point x="101" y="417" type="line"/>
    </contour>
  </outline>
</glyph>
<glyph name="Sigma" format="2">
  <advance width="570"/>
  <unicode hex="03A3"/>
  <outline>
    <contour>
      <point x="31" y="120" type="line"/>
      <point x="31" y="0" type="line"/>
      <point x="528" y="0" type="line"/>
      <point x="528" y="140" type="line"/>
      <point x="284" y="140" type="line"/>
      <point x="473" y="350" type="line"/>
      <point x="284" y="560" type="line"/>
      <point x="528" y="560" type="line"/>
      <point x="528" y="700" type="line"/>
      <point x="31" y="700" type="line"/>
      <point x="31" y="580" type="line"/>
      <point x="238" y="350" type="line"/>
    </contour>
  </outline>
</glyph>
<glyph name="Psi" format="2">
  <advance width="883"/>
  <unicode hex="03A8"/>
  <anchor x="442" y="720" name="topgr"/>
  <outline>
    <contour>
      <point x="441" y="150" type="curve" smooth="yes"/>
      <point x="671" y="150"/>
      <point x="823" y="258"/>
      <point x="823" y="432" type="curve" smooth="yes"/>
      <point x="823" y="701" type="line"/>
      <point x="633" y="701" type="line"/>
      <point x="633" y="431" type="line" smooth="yes"/>
      <point x="633" y="338"/>
      <point x="564" y="290"/>
      <point x="444" y="290" type="curve" smooth="yes"/>
      <point x="318" y="290"/>
      <point x="250" y="336"/>
      <point x="250" y="431" type="curve" smooth="yes"/>
      <point x="250" y="701" type="line"/>
      <point x="60" y="701" type="line"/>
      <point x="60" y="432" type="line" smooth="yes"/>
      <point x="60" y="258"/>
      <point x="211" y="150"/>
    </contour>
    <contour>
      <point x="346" y="0" type="line"/>
      <point x="536" y="0" type="line"/>
      <point x="536" y="700" type="line"/>
      <point x="346" y="700" type="line"/>
    </contour>
  </outline>
</glyph>
<glyph name="gamma" format="2">
  <advance width="543"/>
  <unicode hex="03B3"/>
  <anchor x="272" y="520" name="topgr"/>
  <outline>
    <contour>
      <point x="176" y="78" type="line"/>
      <point x="176" y="-200" type="line"/>
      <point x="366" y="-200" type="line"/>
      <point x="366" y="78" type="line"/>
      <point x="345" y="-40" type="line"/>
      <point x="542" y="500" type="line"/>
      <point x="340" y="500" type="line"/>
      <point x="259" y="195" type="line"/>
      <point x="284" y="195" type="line"/>
      <point x="203" y="500" type="line"/>
      <point x="1" y="500" type="line"/>
      <point x="198" y="-40" type="line"/>
    </contour>
  </outline>
</glyph>
<glyph name="epsilon" format="2">
  <advance width="495"/>
  <unicode hex="03B5"/>
  <anchor x="253" y="520" name="topgr"/>
  <outline>
    <contour>
      <point x="240" y="-20" type="curve" smooth="yes"/>
      <point x="352" y="-20"/>
      <point x="423" y="18"/>
      <point x="466" y="77" type="curve"/>
      <point x="373" y="170" type="line"/>
      <point x="339" y="124"/>
      <point x="309" y="113"/>
      <point x="271" y="113" type="curve" smooth="yes"/>
      <point x="233" y="113"/>
      <point x="216" y="123.304"/>
      <point x="216" y="146.722" type="curve" smooth="yes"/>
      <point x="216" y="178.57"/>
      <point x="247" y="187"/>
      <point x="363" y="187" type="curve"/>
      <point x="363" y="317" type="line"/>
      <point x="262" y="317"/>
      <point x="234" y="325.4"/>
      <point x="234" y="355.267" type="curve" smooth="yes"/>
      <point x="234" y="376.733"/>
      <point x="248" y="387"/>
      <point x="278" y="387" type="curve" smooth="yes"/>
      <point x="307" y="387"/>
      <point x="337" y="377"/>
      <point x="370" y="337" type="curve"/>
      <point x="463" y="430" type="line"/>
      <point x="416" y="482"/>
      <point x="348" y="520"/>
      <point x="241" y="520" type="curve" smooth="yes"/>
      <point x="101" y="520"/>
      <point x="48" y="452.122"/>
      <point x="48" y="379.102" type="curve" smooth="yes"/>
      <point x="48" y="318.423"/>
      <point x="75" y="267"/>
      <point x="204" y="253" type="curve"/>
      <point x="67" y="237"/>
      <point x="29" y="201.955"/>
      <point x="29" y="129.917" type="curve" smooth="yes"/>
      <point x="29" y="49.117"/>
      <point x="88" y="-20"/>
    </contour>
  </outline>
</glyph>
<glyph name="zeta" format="2">
  <advance width="560"/>
  <unicode hex="03B6"/>
  <anchor x="280" y="721" name="topgr"/>
  <outline>
    <contour>
      <point x="300" y="-200" type="curve"/>
      <point x="471.889" y="-200" type="line"/>
      <point x="492.667" y="-176"/>
      <point x="521" y="-127"/>
      <point x="521" y="-62" type="curve" smooth="yes"/>
      <point x="521" y="39"/>
      <point x="445" y="111"/>
      <point x="343" y="111" type="curve" smooth="yes"/>
      <point x="264" y="111"/>
      <point x="244" y="146"/>
      <point x="244" y="206" type="curve" smooth="yes"/>
      <point x="244" y="346"/>
      <point x="358" y="492"/>
      <point x="502" y="580" type="curve"/>
      <point x="502" y="700" type="line"/>
      <point x="39" y="700" type="line"/>
      <point x="39" y="570" type="line"/>
      <point x="286" y="570" type="line"/>
      <point x="126" y="463"/>
      <point x="54" y="349"/>
      <point x="54" y="212" type="curve" smooth="yes"/>
      <point x="54" y="79"/>
      <point x="126.238" y="-20"/>
      <point x="250.823" y="-20" type="curve" smooth="yes"/>
      <point x="314.686" y="-20"/>
      <point x="344" y="-45"/>
      <point x="344" y="-99" type="curve" smooth="yes"/>
      <point x="344" y="-142"/>
      <point x="324" y="-165"/>
    </contour>
  </outline>
</glyph>
<glyph name="eta" format="2">
  <advance width="601"/>
  <unicode hex="03B7"/>
  <anchor x="290" y="520" name="topgr"/>
  <outline>
    <contour>
      <point x="69" y="310" type="curve" smooth="yes"/>
      <point x="69" y="0" type="line"/>
      <point x="259" y="0" type="line"/>
      <point x="259" y="384" type="line" smooth="yes"/>
      <point x="259" y="482"/>
      <point x="188" y="520"/>
      <point x="13" y="520" type="curve"/>
      <point x="13" y="386" type="line"/>
      <point x="50" y="386"/>
      <point x="69" y="371"/>
    </contour>
    <contour>
      <point x="371" y="248" type="curve" smooth="yes"/>
      <point x="371" y="-200" type="line"/>
      <point x="561" y="-200" type="line"/>
      <point x="561" y="304" type="line" smooth="yes"/>
      <point x="561" y="451"/>
      <point x="498" y="520"/>
      <point x="397" y="520" type="curve" smooth="yes"/>
      <point x="293" y="520"/>
      <point x="254" y="448"/>
      <point x="236" y="370" type="curve"/>
      <point x="238" y="287" type="line"/>
      <point x="259" y="217" type="line"/>
      <point x="259" y="316"/>
      <point x="261" y="385"/>
      <point x="317" y="385" type="curve" smooth="yes"/>
      <point x="361" y="385"/>
      <point x="371" y="341"/>
    </contour>
  </outline>
</glyph>
<glyph name="theta" format="2">
  <advance width="606"/>
  <unicode hex="03B8"/>
  <anchor x="303" y="721" name="topgr"/>
  <outline>
    <contour>
      <point x="305" y="-20" type="curve" smooth="yes"/>
      <point x="484" y="-20"/>
      <point x="586" y="114"/>
      <point x="586" y="348" type="curve" smooth="yes"/>
      <point x="586" y="581"/>
      <point x="481" y="720"/>
      <point x="305" y="720" type="curve" smooth="yes"/>
      <point x="127" y="720"/>
      <point x="20" y="580"/>
      <point x="20" y="348" type="curve" smooth="yes"/>
      <point x="20" y="115"/>
      <point x="124" y="-20"/>
    </contour>
    <contour>
      <point x="305" y="120" type="curve" smooth="yes"/>
      <point x="242" y="120"/>
      <point x="210" y="196.667"/>
      <point x="210" y="347.089" type="curve" smooth="yes"/>
      <point x="210" y="504.304"/>
      <point x="240" y="580"/>
      <point x="305" y="580" type="curve" smooth="yes"/>
      <point x="368" y="580"/>
      <point x="396" y="508.186"/>
      <point x="396" y="347.089" type="curve" smooth="yes"/>
      <point x="396" y="189.873"/>
      <point x="368" y="120"/>
    </contour>
    <contour>
      <point x="172" y="289" type="line"/>
      <point x="435" y="289" type="line"/>
      <point x="435" y="412" type="line"/>
      <point x="172" y="412" type="line"/>
    </contour>
  </outline>
</glyph>
<glyph name="iota" format="2">
  <advance width="300"/>
  <unicode hex="03B9"/>
  <anchor x="137" y="520" name="topgr"/>
  <outline>
    <contour>
      <point x="216" y="0" type="curve" smooth="yes"/>
      <point x="289" y="0" type="line"/>
      <point x="289" y="133" type="line"/>
      <point x="252" y="133"/>
      <point x="233" y="148"/>
      <point x="233" y="210" type="curve" smooth="yes"/>
      <point x="233" y="500" type="line"/>
      <point x="43" y="500" type="line"/>
      <point x="43" y="153" type="line" smooth="yes"/>
      <point x="43" y="47"/>
      <point x="97" y="0"/>
    </contour>
  </outline>
</glyph>
<glyph name="lambda" format="2">
  <advance width="600"/>
  <unicode hex="03BB"/>
  <anchor x="300" y="721" name="topgr"/>
  <outline>
    <contour>
      <point x="483" y="-20" type="curve" smooth="yes"/>
      <point x="524" y="-20"/>
      <point x="554" y="-12"/>
      <point x="600" y="3" type="curve"/>
      <point x="573" y="133" type="line"/>
      <point x="555" y="123.25"/>
      <point x="545" y="120"/>
      <point x="533" y="120" type="curve" smooth="yes"/>
      <point x="512" y="120"/>
      <point x="483.645" y="129.926"/>
      <point x="462" y="203.263" type="curve" smooth="yes"/>
      <point x="364" y="535.314" type="line" smooth="yes"/>
      <point x="319.622" y="685.679"/>
      <point x="259" y="752"/>
      <point x="141" y="752" type="curve" smooth="yes"/>
      <point x="106" y="752"/>
      <point x="70" y="745.739"/>
      <point x="14" y="728" type="curve"/>
      <point x="52" y="604" type="line"/>
      <point x="69" y="610"/>
      <point x="85" y="612"/>
      <point x="95" y="612" type="curve" smooth="yes"/>
      <point x="146" y="612"/>
      <point x="170.681" y="562.906"/>
      <point x="194" y="484" type="curve" smooth="yes"/>
      <point x="280" y="193" type="line" smooth="yes"/>
      <point x="334.076" y="10.022"/>
      <point x="403" y="-20"/>
    </contour>
    <contour>
      <point x="4" y="0" type="line"/>
      <point x="197" y="0" type="line"/>
      <point x="303" y="316" type="line"/>
      <point x="196" y="500" type="line"/>
    </contour>
  </outline>
</glyph>
<glyph name="nu" format="2">
  <advance width="566"/>
  <unicode hex="03BD"/>
  <outline>
    <contour>
      <point x="170" y="-19" type="line"/>
      <point x="275" y="-19" type="line" smooth="yes"/>
      <point x="450" y="-19"/>
      <point x="546" y="81"/>
      <point x="546" y="249" type="curve" smooth="yes"/>
      <point x="546" y="352"/>
      <point x="510" y="463"/>
      <point x="493" y="500" type="curve"/>
      <point x="286" y="500" type="line"/>
      <point x="330" y="425"/>
      <point x="355" y="333"/>
      <point x="355" y="253" type="curve" smooth="yes"/>
      <point x="355" y="193"/>
      <point x="341" y="140"/>
      <point x="310" y="117" type="curve"/>
      <point x="193" y="500" type="line"/>
      <point x="-9" y="500" type="line"/>
    </contour>
  </outline>
</glyph>
<glyph name="xi" format="2">
  <advance width="520"/>
  <unicode hex="03BE"/>
  <outline>
    <contour>
      <point x="286" y="-200" type="curve"/>
      <point x="457.889" y="-200" type="line"/>
      <point x="478.667" y="-176"/>
      <point x="507" y="-127"/>
      <point x="507" y="-62" type="curve" smooth="yes"/>
      <point x="507" y="34"/>
      <point x="440" y="111"/>
      <point x="314" y="111" type="curve" smooth="yes"/>
      <point x="246" y="111"/>
      <point x="209" y="130.121"/>
      <point x="209" y="166.769" type="curve" smooth="yes"/>
      <point x="209" y="223.335"/>
      <point x="288" y="256"/>
      <point x="424" y="256" type="curve"/>
      <point x="424" y="386" type="line"/>
      <point x="302" y="389"/>
      <point x="246" y="416.846"/>
      <point x="246" y="473.533" type="curve" smooth="yes"/>
      <point x="246" y="535.192"/>
      <point x="313" y="570"/>
      <point x="425" y="570" type="curve"/>
      <point x="409" y="642" type="line"/>
      <point x="269" y="642"/>
      <point x="56" y="591.31"/>
      <point x="56" y="455.793" type="curve" smooth="yes"/>
      <point x="56" y="384.414"/>
      <point x="105" y="342"/>
      <point x="218" y="324" type="curve"/>
      <point x="86" y="319"/>
      <point x="20" y="258.244"/>
      <point x="20" y="156.984" type="curve" smooth="yes"/>
      <point x="20" y="50.442"/>
      <point x="102.458" y="-20"/>
      <point x="226.667" y="-20" type="curve" smooth="yes"/>
      <point x="301.818" y="-20"/>
      <point x="330" y="-49"/>
      <point x="330" y="-99" type="curve" smooth="yes"/>
      <point x="330" y="-142"/>
      <point x="310" y="-165"/>
    </contour>
    <contour>
      <point x="53" y="570" type="line"/>
      <point x="426" y="570" type="line"/>
      <point x="426" y="700" type="line"/>
      <point x="53" y="700" type="line"/>
    </contour>
  </outline>
</glyph>
<glyph name="pi" format="2">
  <advance width="645"/>
  <unicode hex="03C0"/>
  <anchor x="322" y="520" name="topgr"/>
  <outline>
    <contour>
      <point x="85" y="367" type="line"/>
      <point x="85" y="0" type="line"/>
      <point x="275" y="0" type="line"/>
      <point x="275" y="367" type="line"/>
      <point x="358" y="367" type="line"/>
      <point x="358" y="189" type="line" smooth="yes"/>
      <point x="358" y="31"/>
      <point x="420" y="0"/>
      <point x="605" y="0" type="curve"/>
      <point x="605" y="135" type="line"/>
      <point x="568" y="135"/>
      <point x="548" y="140"/>
      <point x="548" y="195" type="curve" smooth="yes"/>
      <point x="548" y="367" type="line"/>
      <point x="616" y="367" type="line"/>
      <point x="616" y="500" type="line"/>
      <point x="19" y="500" type="line"/>
      <point x="19" y="367" type="line"/>
    </contour>
  </outline>
</glyph>
<glyph name="rho" format="2">
  <advance width="600"/>
  <unicode hex="03C1"/>
  <anchor x="312" y="520" name="topgr"/>
  <outline>
    <contour>
      <point x="348" y="-20" type="curve" smooth="yes"/>
      <point x="480" y="-20"/>
      <point x="580" y="93"/>
      <point x="580" y="253" type="curve" smooth="yes"/>
      <point x="580" y="416"/>
      <point x="476" y="520"/>
      <point x="320" y="520" type="curve" smooth="yes"/>
      <point x="159" y="520"/>
      <point x="52" y="421"/>
      <point x="52" y="247" type="curve"/>
      <point x="68" y="250" type="line"/>
      <point x="100" y="236"/>
      <point x="136" y="205"/>
      <point x="160" y="192" type="curve"/>
      <point x="152" y="104"/>
      <point x="209" y="-20"/>
    </contour>
    <contour>
      <point x="52" y="-200" type="line"/>
      <point x="242" y="-200" type="line"/>
      <point x="242" y="274" type="line"/>
      <point x="52" y="251" type="line"/>
    </contour>
    <contour>
      <point x="316" y="117" type="curve" smooth="yes"/>
      <point x="266" y="117"/>
      <point x="242" y="168.669"/>
      <point x="242" y="254.784" type="curve" smooth="yes"/>
      <point x="242" y="339.942"/>
      <point x="266" y="383"/>
      <point x="313" y="383" type="curve" smooth="yes"/>
      <point x="363" y="383"/>
      <point x="390" y="336.115"/>
      <point x="390" y="250" type="curve" smooth="yes"/>
      <point x="390" y="165.799"/>
      <point x="364" y="117"/>
    </contour>
  </outline>
</glyph>
<glyph name="uni03C2" format="2">
  <advance width="572"/>
  <unicode hex="03C2"/>
  <anchor x="286" y="520" name="topgr"/>
  <outline>
    <contour>
      <point x="321" y="-200" type="curve"/>
      <point x="492.889" y="-200" type="line"/>
      <point x="513.667" y="-176.077"/>
      <point x="542" y="-127.235"/>
      <point x="542" y="-62.444" type="curve" smooth="yes"/>
      <point x="542" y="33.248"/>
      <point x="475" y="110"/>
      <point x="344" y="110" type="curve" smooth="yes"/>
      <point x="243" y="110"/>
      <point x="210" y="165.161"/>
      <point x="210" y="252.473" type="curve" smooth="yes"/>
      <point x="210" y="356.846"/>
      <point x="258" y="390"/>
      <point x="327" y="390" type="curve" smooth="yes"/>
      <point x="367" y="390"/>
      <point x="411" y="375"/>
      <point x="434" y="342" type="curve"/>
      <point x="522" y="430" type="line"/>
      <point x="472" y="491"/>
      <point x="396" y="520"/>
      <point x="297" y="520" type="curve" smooth="yes"/>
      <point x="118" y="520"/>
      <point x="20" y="425"/>
      <point x="20" y="258" type="curve" smooth="yes"/>
      <point x="20" y="89"/>
      <point x="123.916" y="-20"/>
      <point x="264.202" y="-20" type="curve" smooth="yes"/>
      <point x="336.943" y="-20"/>
      <point x="365" y="-49"/>
      <point x="365" y="-99" type="curve" smooth="yes"/>
      <point x="365" y="-142"/>
      <point x="345" y="-165"/>
    </contour>
  </outline>
</glyph>
<glyph name="sigma" format="2">
  <advance width="629"/>
  <unicode hex="03C3"/>
  <anchor x="289" y="-20" name="bottom"/>
  <anchor x="401" y="-3" name="ogonek"/>
  <anchor x="289" y="520" name="topgr"/>
  <outline>
    <contour>
      <point x="289" y="-20" type="curve" smooth="yes"/>
      <point x="463" y="-20"/>
      <point x="558" y="75.333"/>
      <point x="558" y="244.815" type="curve" smooth="yes"/>
      <point x="558" y="404.667"/>
      <point x="462" y="500"/>
      <point x="289" y="500" type="curve" smooth="yes"/>
      <point x="126" y="500"/>
      <point x="20" y="404.667"/>
      <point x="20" y="244.815" type="curve" smooth="yes"/>
      <point x="20" y="75.333"/>
      <point x="127" y="-20"/>
    </contour>
    <contour>
      <point x="289" y="114.815" type="curve" smooth="yes"/>
      <point x="236" y="114.815"/>
      <point x="210" y="156.841"/>
      <point x="210" y="240.894" type="curve" smooth="yes"/>
      <point x="210" y="324.053"/>
      <point x="235" y="365.185"/>
      <point x="289" y="365.185" type="curve" smooth="yes"/>
      <point x="341" y="365.185"/>
      <point x="368" y="325.841"/>
      <point x="368" y="241.788" type="curve" smooth="yes"/>
      <point x="368" y="156.841"/>
      <point x="341" y="114.815"/>
    </contour>
    <contour>
      <point x="325" y="370" type="line"/>
      <point x="626" y="370" type="line"/>
      <point x="626" y="500" type="line"/>
      <point x="285" y="500" type="line"/>
    </contour>
  </outline>
</glyph>
<glyph name="tau" format="2">
  <advance width="421"/>
  <unicode hex="03C4"/>
  <anchor x="210" y="520" name="topgr"/>
  <outline>
    <contour>
      <point x="22" y="500" type="line"/>
      <point x="22" y="370" type="line"/>
      <point x="392" y="370" type="line"/>
      <point x="392" y="500" type="line"/>
    </contour>
    <contour>
      <point x="278" y="0" type="curve" smooth="yes"/>
      <point x="351" y="0" type="line"/>
      <point x="351" y="133" type="line"/>
      <point x="314" y="133"/>
      <point x="295" y="135"/>
      <point x="295" y="187" type="curve" smooth="yes"/>
      <point x="295" y="500" type="line"/>
      <point x="105" y="500" type="line"/>
      <point x="105" y="153" type="line" smooth="yes"/>
      <point x="105" y="47"/>
      <point x="159" y="0"/>
    </contour>
  </outline>
</glyph>
<glyph name="upsilon" format="2">
  <advance width="589"/>
  <unicode hex="03C5"/>
  <anchor x="283" y="520" name="topgr"/>
  <outline>
    <contour>
      <point x="243" y="251" type="curve" smooth="yes"/>
      <point x="243" y="500" type="line"/>
      <point x="53" y="500" type="line"/>
      <point x="53" y="185" type="line" smooth="yes"/>
      <point x="53" y="57"/>
      <point x="152" y="-20"/>
      <point x="304" y="-20" type="curve" smooth="yes"/>
      <point x="479" y="-20"/>
      <point x="569" y="81"/>
      <point x="569" y="257" type="curve" smooth="yes"/>
      <point x="569" y="349"/>
      <point x="544" y="434"/>
      <point x="502" y="500" type="curve"/>
      <point x="318" y="500" type="line"/>
      <point x="353" y="429"/>
      <point x="379" y="352"/>
      <point x="379" y="252" type="curve" smooth="yes"/>
      <point x="379" y="165"/>
      <point x="359" y="114"/>
      <point x="304" y="114" type="curve" smooth="yes"/>
      <point x="260" y="114"/>
      <point x="243" y="146"/>
    </contour>
  </outline>
</glyph>
<glyph name="psi" format="2">
  <advance width="774"/>
  <unicode hex="03C8"/>
  <anchor x="387" y="656" name="topgr"/>
  <outline>
    <contour>
      <point x="239" y="244" type="curve" smooth="yes"/>
      <point x="239" y="500" type="line"/>
      <point x="53" y="500" type="line"/>
      <point x="53" y="206" type="line" smooth="yes"/>
      <point x="53" y="70"/>
      <point x="197" y="-20"/>
      <point x="389" y="-20" type="curve" smooth="yes"/>
      <point x="579" y="-20"/>
      <point x="722" y="70"/>
      <point x="722" y="206" type="curve" smooth="yes"/>
      <point x="722" y="500" type="line"/>
      <point x="536" y="500" type="line"/>
      <point x="536" y="244" type="line" smooth="yes"/>
      <point x="536" y="168"/>
      <point x="492.837" y="118"/>
      <point x="389.042" y="118" type="curve" smooth="yes"/>
      <point x="290.384" y="118"/>
      <point x="239" y="161"/>
    </contour>
    <contour>
      <point x="299" y="656" type="line"/>
      <point x="299" y="-200" type="line"/>
      <point x="477" y="-200" type="line"/>
      <point x="477" y="656" type="line"/>
    </contour>
  </outline>
</glyph>
<glyph name="omega" format="2">
  <advance width="794"/>
  <unicode hex="03C9"/>
  <anchor x="397" y="520" name="topgr"/>
  <outline>
    <contour>
      <point x="244" y="-20" type="curve" smooth="yes"/>
      <point x="318" y="-20"/>
      <point x="365" y="12"/>
      <point x="397" y="71" type="curve"/>
      <point x="430" y="10"/>
      <point x="478" y="-20"/>
      <point x="550" y="-20" type="curve" smooth="yes"/>
      <point x="685" y="-20"/>
      <point x="774" y="87"/>
      <point x="774" y="254" type="curve" smooth="yes"/>
      <point x="774" y="342"/>
      <point x="749" y="429"/>
      <point x="705" y="500" type="curve"/>
      <point x="510" y="500" type="line"/>
      <point x="563" y="416"/>
      <point x="584" y="346"/>
      <point x="584" y="251" type="curve" smooth="yes"/>
      <point x="584" y="166"/>
      <point x="569" y="114"/>
      <point x="532" y="114" type="curve" smooth="yes"/>
      <point x="506" y="114"/>
      <point x="492" y="140"/>
      <point x="492" y="202" type="curve" smooth="yes"/>
      <point x="492" y="361" type="line"/>
      <point x="302" y="361" type="line"/>
      <point x="302" y="202" type="line" smooth="yes"/>
      <point x="302" y="139"/>
      <point x="289" y="114"/>
      <point x="265" y="114" type="curve" smooth="yes"/>
      <point x="224" y="114"/>
      <point x="210" y="181"/>
      <point x="210" y="257" type="curve" smooth="yes"/>
      <point x="210" y="346"/>
      <point x="232" y="413"/>
      <point x="284" y="500" type="curve"/>
      <point x="88" y="500" type="line"/>
      <point x="43" y="422"/>
      <point x="20" y="342"/>
      <point x="20" y="257" type="curve" smooth="yes"/>
      <point x="20" y="87"/>
      <point x="109" y="-20"/>
    </contour>
  </outline>
</glyph>
<glyph name="uni03CF" format="2">
  <advance width="670"/>
  <unicode hex="03CF"/>
  <outline>
    <contour>
      <point x="450" y="0" type="line"/>
      <point x="669" y="0" type="line"/>
      <point x="457" y="367" type="line"/>
      <point x="665" y="700" type="line"/>
      <point x="464" y="700" type="line"/>
      <point x="306" y="426" type="line"/>
      <point x="130" y="426" type="line"/>
      <point x="119" y="282" type="line"/>
      <point x="294" y="282" type="line"/>
    </contour>
    <contour>
      <point x="330" y="-220" type="curve" smooth="yes"/>
      <point x="530" y="-220"/>
      <point x="669" y="-131"/>
      <point x="669" y="0" type="curve"/>
      <point x="550" y="17" type="line"/>
      <point x="450" y="0" type="line"/>
      <point x="450" y="-51"/>
      <point x="419" y="-80"/>
      <point x="307" y="-80" type="curve" smooth="yes"/>
      <point x="209" y="-80"/>
      <point x="118" y="-58"/>
      <point x="49" y="-9" type="curve"/>
      <point x="49" y="-133" type="line"/>
      <point x="107" y="-187"/>
      <point x="209" y="-220"/>
    </contour>
    <contour>
      <point x="48" y="0" type="line"/>
      <point x="238" y="0" type="line"/>
      <point x="238" y="700" type="line"/>
      <point x="48" y="700" type="line"/>
    </contour>
  </outline>
</glyph>
<glyph name="uni03D7" format="2">
  <advance width="594"/>
  <unicode hex="03D7"/>
  <outline>
    <contour>
      <point x="380" y="0" type="line" name="ab02"/>
      <point x="592" y="0" type="line"/>
      <point x="458" y="263" type="line"/>
      <point x="579" y="500" type="line" name="av02"/>
      <point x="390" y="500" type="line"/>
      <point x="315" y="323" type="line" name="iv02"/>
      <point x="122" y="323" type="line"/>
      <point x="124" y="189" type="line"/>
      <point x="288" y="189" type="line" name="iv01"/>
    </contour>
    <contour>
      <point x="230" y="-76" type="curve"/>
      <point x="230" y="-210" type="line"/>
      <point x="441" y="-210"/>
      <point x="592" y="-141"/>
      <point x="592" y="0" type="curve"/>
      <point x="380" y="1" type="line"/>
      <point x="380" y="-67"/>
      <point x="349.799" y="-76"/>
    </contour>
    <contour>
      <point x="54" y="0" type="line"/>
      <point x="244" y="0" type="line"/>
      <point x="244" y="500" type="line"/>
      <point x="54" y="500" type="line"/>
    </contour>
  </outline>
</glyph>
<glyph name="uni0404" format="2">
  <advance width="694"/>
  <unicode hex="0404"/>
  <anchor x="370" y="719" name="top"/>
  <outline>
    <contour>
      <point x="399" y="-20" type="curve" smooth="yes"/>
      <point x="514" y="-20"/>
      <point x="598" y="25"/>
      <point x="667" y="102" type="curve"/>
      <point x="561" y="208" type="line"/>
      <point x="505.332" y="147.864"/>
      <point x="456.623" y="124"/>
      <point x="397.973" y="124" type="curve" smooth="yes"/>
      <point x="289.62" y="124"/>
      <point x="226" y="206.719"/>
      <point x="226" y="357.386" type="curve" smooth="yes"/>
      <point x="226" y="499.19"/>
      <point x="282.662" y="576"/>
      <point x="393.003" y="576" type="curve" smooth="yes"/>
      <point x="456.623" y="576"/>
      <point x="507.32" y="550.907"/>
      <point x="561" y="493" type="curve"/>
      <point x="667" y="599" type="line"/>
      <point x="613" y="665"/>
      <point x="517" y="720"/>
      <point x="386" y="720" type="curve" smooth="yes"/>
      <point x="171" y="720"/>
      <point x="33" y="572"/>
      <point x="33" y="361" type="curve" smooth="yes"/>
      <point x="33" y="140"/>
      <point x="183" y="-20"/>
    </contour>
    <contour>
      <point x="504" y="288" type="line"/>
      <point x="504" y="428" type="line"/>
      <point x="149" y="428" type="line"/>
      <point x="149" y="288" type="line"/>
    </contour>
  </outline>
</glyph>
<glyph name="uni0409" format="2">
  <advance width="974"/>
  <unicode hex="0409"/>
  <outline>
    <contour>
      <point x="139" y="-20" type="curve" smooth="yes"/>
      <point x="277.454" y="-20"/>
      <point x="323.116" y="37.738"/>
      <point x="334.681" y="340.128" type="curve" smooth="yes"/>
      <point x="337.065" y="402.473"/>
      <point x="338" y="475.218"/>
      <point x="338" y="560" type="curve"/>
      <point x="442" y="560" type="line"/>
      <point x="442" y="0" type="line"/>
      <point x="695" y="0" type="line" smooth="yes"/>
      <point x="884" y="0"/>
      <point x="945" y="104.39"/>
      <point x="945" y="232.805" type="curve" smooth="yes"/>
      <point x="945" y="360.122"/>
      <point x="884" y="450"/>
      <point x="695" y="450" type="curve" smooth="yes"/>
      <point x="632" y="450" type="line"/>
      <point x="632" y="700" type="line"/>
      <point x="150" y="700" type="line"/>
      <point x="150" y="614.462"/>
      <point x="149.78" y="541.188"/>
      <point x="149.114" y="478.516" type="curve" smooth="yes"/>
      <point x="146.015" y="187.3"/>
      <point x="133.26" y="125"/>
      <point x="88" y="125" type="curve" smooth="yes"/>
      <point x="69" y="125"/>
      <point x="47" y="136"/>
      <point x="31" y="150" type="curve"/>
      <point x="1" y="9" type="line"/>
      <point x="42" y="-9"/>
      <point x="78" y="-20"/>
    </contour>
    <contour>
      <point x="643" y="140" type="curve" smooth="yes"/>
      <point x="632" y="140" type="line"/>
      <point x="632" y="310" type="line"/>
      <point x="643" y="310" type="line" smooth="yes"/>
      <point x="733" y="310"/>
      <point x="755" y="281.231"/>
      <point x="755" y="223.692" type="curve" smooth="yes"/>
      <point x="755" y="160.923"/>
      <point x="728" y="140"/>
    </contour>
  </outline>
</glyph>
<glyph name="uni040A" format="2">
  <advance width="970"/>
  <unicode hex="040A"/>
  <outline>
    <contour>
      <point x="59" y="700" type="line"/>
      <point x="59" y="0" type="line"/>
      <point x="249" y="0" type="line"/>
      <point x="249" y="315" type="line"/>
      <point x="437" y="315" type="line"/>
      <point x="437" y="0" type="line"/>
      <point x="627" y="0" type="line"/>
      <point x="627" y="700" type="line"/>
      <point x="437" y="700" type="line"/>
      <point x="437" y="455" type="line"/>
      <point x="249" y="455" type="line"/>
      <point x="249" y="700" type="line"/>
    </contour>
    <contour>
      <point x="642" y="140" type="curve" smooth="yes"/>
      <point x="617" y="140" type="line"/>
      <point x="495" y="0" type="line"/>
      <point x="691" y="0" type="line" smooth="yes"/>
      <point x="880" y="0"/>
      <point x="941" y="93.184"/>
      <point x="941" y="219.957" type="curve" smooth="yes"/>
      <point x="941" y="345.647"/>
      <point x="880" y="454"/>
      <point x="691" y="454" type="curve" smooth="yes"/>
      <point x="515" y="454" type="line"/>
      <point x="530" y="314" type="line"/>
      <point x="642" y="314" type="line" smooth="yes"/>
      <point x="724" y="314"/>
      <point x="751" y="291.468"/>
      <point x="751" y="225.122" type="curve" smooth="yes"/>
      <point x="751" y="160.029"/>
      <point x="725" y="140"/>
    </contour>
  </outline>
</glyph>
<glyph name="uni040B" format="2">
  <advance width="752"/>
  <unicode hex="040B"/>
  <outline>
    <contour>
      <point x="150" y="0" type="line"/>
      <point x="340" y="0" type="line"/>
      <point x="340" y="560" type="line"/>
      <point x="562" y="560" type="line"/>
      <point x="562" y="700" type="line"/>
      <point x="21" y="700" type="line"/>
      <point x="21" y="560" type="line"/>
      <point x="150" y="560" type="line"/>
    </contour>
    <contour>
      <point x="502" y="256" type="curve" smooth="yes"/>
      <point x="502" y="0" type="line"/>
      <point x="693" y="0" type="line"/>
      <point x="693" y="256.526" type="line" smooth="yes"/>
      <point x="693" y="404.83"/>
      <point x="616" y="488"/>
      <point x="490" y="488" type="curve" smooth="yes"/>
      <point x="375" y="488"/>
      <point x="310" y="419.766"/>
      <point x="296" y="322.433" type="curve"/>
      <point x="340" y="196" type="line"/>
      <point x="340" y="302"/>
      <point x="373" y="348"/>
      <point x="433" y="348" type="curve" smooth="yes"/>
      <point x="480" y="348"/>
      <point x="502" y="314"/>
    </contour>
  </outline>
</glyph>
<glyph name="uni0411" format="2">
  <advance width="613"/>
  <unicode hex="0411"/>
  <outline>
    <contour>
      <point x="58" y="0" type="line"/>
      <point x="333" y="0" type="line" smooth="yes"/>
      <point x="494" y="0"/>
      <point x="584" y="95.071"/>
      <point x="584" y="228.989" type="curve" smooth="yes"/>
      <point x="584" y="361.884"/>
      <point x="494" y="459"/>
      <point x="333" y="459" type="curve" smooth="yes"/>
      <point x="249" y="459" type="line"/>
      <point x="249" y="700" type="line"/>
      <point x="58" y="700" type="line"/>
    </contour>
    <contour>
      <point x="274" y="140" type="curve" smooth="yes"/>
      <point x="249" y="140" type="line"/>
      <point x="249" y="318" type="line"/>
      <point x="274" y="318" type="line" smooth="yes"/>
      <point x="346" y="318"/>
      <point x="393" y="301.405"/>
      <point x="393" y="231.476" type="curve" smooth="yes"/>
      <point x="393" y="160.488"/>
      <point x="346" y="140"/>
    </contour>
    <contour>
      <point x="108" y="559" type="line"/>
      <point x="535" y="559" type="line"/>
      <point x="535" y="700" type="line"/>
      <point x="75" y="700" type="line"/>
      <point x="75" y="694" type="line"/>
    </contour>
  </outline>
</glyph>
<glyph name="uni0413" format="2">
  <advance width="544"/>
  <unicode hex="0413"/>
  <anchor x="283" y="-20" name="bottom"/>
  <anchor x="272" y="719" name="top"/>
  <outline>
    <contour>
      <point x="68" y="700" type="line"/>
      <point x="68" y="0" type="line"/>
      <point x="258" y="0" type="line"/>
      <point x="258" y="560" type="line"/>
      <point x="502" y="560" type="line"/>
      <point x="502" y="700" type="line"/>
    </contour>
  </outline>
</glyph>
<glyph name="uni0414" format="2">
  <advance width="864"/>
  <unicode hex="0414"/>
  <outline>
    <contour>
      <point x="19" y="-140" type="curve"/>
      <point x="165" y="-140" type="line"/>
      <point x="165" y="-47"/>
      <point x="162" y="0"/>
      <point x="221" y="0" type="curve" smooth="yes"/>
      <point x="634" y="0" type="line" smooth="yes"/>
      <point x="705" y="0"/>
      <point x="697" y="-42"/>
      <point x="697" y="-140" type="curve"/>
      <point x="843" y="-140" type="line"/>
      <point x="843" y="117"/>
      <point x="811" y="139"/>
      <point x="711" y="139" type="curve"/>
      <point x="711" y="700" type="line"/>
      <point x="232" y="700" type="line"/>
      <point x="232" y="670" type="line" smooth="yes"/>
      <point x="232" y="299"/>
      <point x="219" y="201"/>
      <point x="151" y="141" type="curve"/>
      <point x="66" y="141"/>
      <point x="19" y="117"/>
    </contour>
    <contour>
      <point x="332" y="140" type="line"/>
      <point x="397.95" y="208.59"/>
      <point x="418.28" y="290.33"/>
      <point x="422.22" y="559.99" type="curve"/>
      <point x="520" y="560" type="line"/>
      <point x="520" y="140" type="line"/>
    </contour>
  </outline>
</glyph>
<glyph name="uni0416" format="2">
  <advance width="925"/>
  <unicode hex="0416"/>
  <anchor x="463" y="720" name="top"/>
  <outline>
    <contour>
      <point x="126.34" y="341.45" type="curve"/>
      <point x="2" y="0" type="line"/>
      <point x="204" y="0" type="line"/>
      <point x="315.25" y="305" type="line"/>
      <point x="368" y="305" type="line"/>
      <point x="368" y="0" type="line"/>
      <point x="558" y="0" type="line"/>
      <point x="558" y="305" type="line"/>
      <point x="610.75" y="305" type="line"/>
      <point x="722" y="0" type="line"/>
      <point x="924" y="0" type="line"/>
      <point x="799.66" y="341.45" type="line"/>
      <point x="832.02" y="369.19"/>
      <point x="853.08" y="412.88"/>
      <point x="860" y="473" type="curve"/>
      <point x="881" y="700" type="line"/>
      <point x="699" y="700" type="line"/>
      <point x="685" y="549" type="line" smooth="yes"/>
      <point x="678" y="475"/>
      <point x="662" y="445"/>
      <point x="596" y="445" type="curve" smooth="yes"/>
      <point x="558" y="445" type="line"/>
      <point x="558" y="700" type="line"/>
      <point x="368" y="700" type="line"/>
      <point x="368" y="445" type="line"/>
      <point x="330" y="445" type="line" smooth="yes"/>
      <point x="264" y="445"/>
      <point x="248" y="474"/>
      <point x="241" y="548" type="curve" smooth="yes"/>
      <point x="227" y="700" type="line"/>
      <point x="45" y="700" type="line"/>
      <point x="66" y="473" type="line"/>
      <point x="72.92" y="412.88"/>
      <point x="93.98" y="369.19"/>
    </contour>
  </outline>
</glyph>
<glyph name="uni0417" format="2">
  <advance width="578"/>
  <unicode hex="0417"/>
  <anchor x="294" y="-20" name="bottom"/>
  <anchor x="294" y="719" name="top"/>
  <outline>
    <contour>
      <point x="124" y="208" type="curve"/>
      <point x="18" y="102" type="line"/>
      <point x="87.87" y="24"/>
      <point x="162.731" y="-20"/>
      <point x="282.509" y="-20" type="curve" smooth="yes"/>
      <point x="448.202" y="-20"/>
      <point x="558" y="64"/>
      <point x="558" y="194" type="curve" smooth="yes"/>
      <point x="558" y="285"/>
      <point x="504.552" y="354"/>
      <point x="367" y="371" type="curve"/>
      <point x="478.579" y="398"/>
      <point x="524" y="448"/>
      <point x="524" y="533" type="curve" smooth="yes"/>
      <point x="524" y="653"/>
      <point x="432.182" y="720"/>
      <point x="294.455" y="720" type="curve" smooth="yes"/>
      <point x="178.684" y="720"/>
      <point x="77.883" y="672"/>
      <point x="19" y="599" type="curve"/>
      <point x="125" y="493" type="line"/>
      <point x="172.226" y="551.674"/>
      <point x="226.486" y="580"/>
      <point x="274.716" y="580" type="curve" smooth="yes"/>
      <point x="318.928" y="580"/>
      <point x="334" y="556.847"/>
      <point x="334" y="523.627" type="curve" smooth="yes"/>
      <point x="334" y="483.36"/>
      <point x="311.761" y="441.08"/>
      <point x="241" y="429" type="curve"/>
      <point x="241" y="295" type="line"/>
      <point x="316.6" y="303"/>
      <point x="368" y="268"/>
      <point x="368" y="210" type="curve" smooth="yes"/>
      <point x="368" y="160"/>
      <point x="328.843" y="120"/>
      <point x="273.616" y="120" type="curve" smooth="yes"/>
      <point x="228.43" y="120"/>
      <point x="175.211" y="146"/>
    </contour>
  </outline>
</glyph>
<glyph name="uni0418" format="2">
  <advance width="752"/>
  <unicode hex="0418"/>
  <anchor x="376" y="-20" name="bottom"/>
  <anchor x="376" y="719" name="top"/>
  <outline>
    <contour>
      <point x="66" y="700" type="line"/>
      <point x="66" y="0" type="line"/>
      <point x="246.845" y="0" type="line"/>
      <point x="496" y="379" type="line"/>
      <point x="496" y="0" type="line"/>
      <point x="686" y="0" type="line"/>
      <point x="686" y="700" type="line"/>
      <point x="505.159" y="700" type="line"/>
      <point x="256" y="321" type="line"/>
      <point x="256" y="700" type="line"/>
    </contour>
  </outline>
</glyph>
<glyph name="uni041B" format="2">
  <advance width="720"/>
  <unicode hex="041B"/>
  <outline>
    <contour>
      <point x="139" y="-20" type="curve" smooth="yes"/>
      <point x="262.319" y="-20"/>
      <point x="313.115" y="25.805"/>
      <point x="331.25" y="249.488" type="curve" smooth="yes"/>
      <point x="337.674" y="328.718"/>
      <point x="340" y="430.266"/>
      <point x="340" y="560" type="curve"/>
      <point x="472" y="560" type="line"/>
      <point x="472" y="0" type="line"/>
      <point x="662" y="0" type="line"/>
      <point x="662" y="700" type="line"/>
      <point x="150" y="700" type="line"/>
      <point x="150" y="528.72"/>
      <point x="149.188" y="407.416"/>
      <point x="145.946" y="321.912" type="curve" smooth="yes"/>
      <point x="139.667" y="156.314"/>
      <point x="124.272" y="125"/>
      <point x="88" y="125" type="curve" smooth="yes"/>
      <point x="69" y="125"/>
      <point x="47" y="136"/>
      <point x="31" y="150" type="curve"/>
      <point x="1" y="9" type="line"/>
      <point x="42" y="-9"/>
      <point x="78" y="-20"/>
    </contour>
  </outline>
</glyph>
<glyph name="uni041F" format="2">
  <advance width="680"/>
  <unicode hex="041F"/>
  <anchor x="340" y="-20" name="bottom"/>
  <anchor x="340" y="719" name="top"/>
  <outline>
    <contour>
      <point x="58" y="700" type="line"/>
      <point x="58" y="0" type="line"/>
      <point x="249" y="0" type="line"/>
      <point x="249" y="560" type="line"/>
      <point x="431" y="560" type="line"/>
      <point x="431" y="0" type="line"/>
      <point x="622" y="0" type="line"/>
      <point x="622" y="700" type="line"/>
    </contour>
  </outline>
</glyph>
<glyph name="uni0423" format="2">
  <advance width="612"/>
  <unicode hex="0423"/>
  <anchor x="317" y="-20" name="bottom"/>
  <anchor x="306" y="719" name="top"/>
  <outline>
    <contour>
      <point x="81" y="50" type="curve"/>
      <point x="81" y="-90" type="line"/>
      <point x="230" y="-90"/>
      <point x="333" y="-54"/>
      <point x="366" y="36" type="curve" smooth="yes"/>
      <point x="608" y="700" type="line"/>
      <point x="406" y="700" type="line"/>
      <point x="227" y="150" type="line" smooth="yes"/>
      <point x="207.327" y="89.552"/>
      <point x="154" y="50"/>
    </contour>
    <contour>
      <point x="2" y="700" type="line"/>
      <point x="196" y="138" type="line"/>
      <point x="247" y="138" type="line"/>
      <point x="374" y="142" type="line"/>
      <point x="203" y="700" type="line"/>
    </contour>
  </outline>
</glyph>
<glyph name="uni0424" format="2">
  <advance width="836"/>
  <unicode hex="0424"/>
  <outline>
    <contour>
      <point x="323" y="60" type="curve"/>
      <point x="323" y="-20" type="line"/>
      <point x="513" y="-20" type="line"/>
      <point x="513" y="60" type="line"/>
      <point x="676" y="60"/>
      <point x="803" y="180"/>
      <point x="803" y="353" type="curve" smooth="yes"/>
      <point x="803" y="525"/>
      <point x="677" y="642"/>
      <point x="513" y="642" type="curve"/>
      <point x="513" y="722" type="line"/>
      <point x="323" y="722" type="line"/>
      <point x="323" y="642" type="line"/>
      <point x="159" y="642"/>
      <point x="33" y="525"/>
      <point x="33" y="353" type="curve" smooth="yes"/>
      <point x="33" y="180"/>
      <point x="160" y="60"/>
    </contour>
    <contour>
      <point x="323" y="502" type="curve"/>
      <point x="323" y="200" type="line"/>
      <point x="270" y="200"/>
      <point x="224" y="261"/>
      <point x="224" y="357" type="curve" smooth="yes"/>
      <point x="224" y="449"/>
      <point x="267" y="502"/>
    </contour>
    <contour>
      <point x="513" y="200" type="curve"/>
      <point x="513" y="502" type="line"/>
      <point x="570" y="502"/>
      <point x="612" y="450"/>
      <point x="612" y="355" type="curve" smooth="yes"/>
      <point x="612" y="258"/>
      <point x="569" y="200"/>
    </contour>
  </outline>
</glyph>
<glyph name="uni0426" format="2">
  <advance width="760"/>
  <unicode hex="0426"/>
  <outline>
    <contour>
      <point x="593" y="-140" type="curve"/>
      <point x="739" y="-140" type="line"/>
      <point x="739" y="112"/>
      <point x="707" y="140"/>
      <point x="607" y="140" type="curve"/>
      <point x="607" y="701" type="line"/>
      <point x="416" y="701" type="line"/>
      <point x="416" y="140" type="line"/>
      <point x="259" y="140" type="line"/>
      <point x="259" y="701" type="line"/>
      <point x="68" y="701" type="line"/>
      <point x="68" y="0" type="line"/>
      <point x="530" y="0" type="line" smooth="yes"/>
      <point x="601" y="0"/>
      <point x="593" y="-42"/>
    </contour>
  </outline>
</glyph>
<glyph name="uni0428" format="2">
  <advance width="970"/>
  <unicode hex="0428"/>
  <outline>
    <contour>
      <point x="68" y="0" type="line"/>
      <point x="902" y="0" type="line"/>
      <point x="902" y="700" type="line"/>
      <point x="712" y="700" type="line"/>
      <point x="712" y="140" type="line"/>
      <point x="580" y="140" type="line"/>
      <point x="580" y="700" type="line"/>
      <point x="390" y="700" type="line"/>
      <point x="390" y="140" type="line"/>
      <point x="258" y="140" type="line"/>
      <point x="258" y="700" type="line"/>
      <point x="68" y="700" type="line"/>
    </contour>
  </outline>
</glyph>
<glyph name="uni0429" format="2">
  <advance width="1060"/>
  <unicode hex="0429"/>
  <outline>
    <contour>
      <point x="894" y="-140" type="curve"/>
      <point x="1039" y="-140" type="line"/>
      <point x="1039" y="112"/>
      <point x="1006" y="140"/>
      <point x="906" y="140" type="curve"/>
      <point x="906" y="700" type="line"/>
      <point x="715" y="700" type="line"/>
      <point x="715" y="140" type="line"/>
      <point x="582" y="140" type="line"/>
      <point x="582" y="700" type="line"/>
      <point x="392" y="700" type="line"/>
      <point x="392" y="140" type="line"/>
      <point x="259" y="140" type="line"/>
      <point x="259" y="700" type="line"/>
      <point x="68" y="700" type="line"/>
      <point x="68" y="0" type="line"/>
      <point x="831" y="0" type="line" smooth="yes"/>
      <point x="902" y="0"/>
      <point x="894" y="-42"/>
    </contour>
  </outline>
</glyph>
<glyph name="uni042A" format="2">
  <advance width="735"/>
  <unicode hex="042A"/>
  <anchor x="359" y="700" name="top"/>
  <outline>
    <contour>
      <point x="170" y="0" type="line"/>
      <point x="445" y="0" type="line" smooth="yes"/>
      <point x="606" y="0"/>
      <point x="696" y="97.143"/>
      <point x="696" y="233.978" type="curve" smooth="yes"/>
      <point x="696" y="369.768"/>
      <point x="606" y="469"/>
      <point x="445" y="469" type="curve" smooth="yes"/>
      <point x="361" y="469" type="line"/>
      <point x="361" y="700" type="line"/>
      <point x="170" y="700" type="line"/>
    </contour>
    <contour>
      <point x="386" y="140" type="curve" smooth="yes"/>
      <point x="361" y="140" type="line"/>
      <point x="361" y="328" type="line"/>
      <point x="386" y="328" type="line" smooth="yes"/>
      <point x="458" y="328"/>
      <point x="505" y="308.81"/>
      <point x="505" y="234.952" type="curve" smooth="yes"/>
      <point x="505" y="159.976"/>
      <point x="458" y="140"/>
    </contour>
    <contour>
      <point x="21" y="559" type="line"/>
      <point x="194" y="559" type="line"/>
      <point x="227" y="694" type="line"/>
      <point x="227" y="700" type="line"/>
      <point x="21" y="700" type="line"/>
    </contour>
  </outline>
</glyph>
<glyph name="uni042C" format="2">
  <advance width="613"/>
  <unicode hex="042C"/>
  <outline>
    <contour>
      <point x="58" y="0" type="line"/>
      <point x="333" y="0" type="line" smooth="yes"/>
      <point x="494" y="0"/>
      <point x="584" y="97.143"/>
      <point x="584" y="233.978" type="curve" smooth="yes"/>
      <point x="584" y="369.768"/>
      <point x="494" y="469"/>
      <point x="333" y="469" type="curve" smooth="yes"/>
      <point x="249" y="469" type="line"/>
      <point x="249" y="700" type="line"/>
      <point x="58" y="700" type="line"/>
    </contour>
    <contour>
      <point x="274" y="140" type="curve" smooth="yes"/>
      <point x="249" y="140" type="line"/>
      <point x="249" y="328" type="line"/>
      <point x="274" y="328" type="line" smooth="yes"/>
      <point x="346" y="328"/>
      <point x="393" y="311.81"/>
      <point x="393" y="237.952" type="curve" smooth="yes"/>
      <point x="393" y="162.976"/>
      <point x="346" y="140"/>
    </contour>
  </outline>
</glyph>
<glyph name="uni042D" format="2">
  <advance width="694"/>
  <unicode hex="042D"/>
  <anchor x="330" y="719" name="top"/>
  <outline>
    <contour>
      <point x="301" y="-20" type="curve" smooth="yes"/>
      <point x="517" y="-20"/>
      <point x="667" y="140"/>
      <point x="667" y="361" type="curve" smooth="yes"/>
      <point x="667" y="572"/>
      <point x="529" y="720"/>
      <point x="314" y="720" type="curve" smooth="yes"/>
      <point x="183" y="720"/>
      <point x="87" y="665"/>
      <point x="33" y="599" type="curve"/>
      <point x="139" y="493" type="line"/>
      <point x="192.68" y="550.907"/>
      <point x="243.377" y="576"/>
      <point x="306.997" y="576" type="curve" smooth="yes"/>
      <point x="417.338" y="576"/>
      <point x="474" y="499.19"/>
      <point x="474" y="357.386" type="curve" smooth="yes"/>
      <point x="474" y="206.719"/>
      <point x="410.38" y="124"/>
      <point x="302.027" y="124" type="curve" smooth="yes"/>
      <point x="243.377" y="124"/>
      <point x="194.668" y="147.864"/>
      <point x="139" y="208" type="curve"/>
      <point x="33" y="102" type="line"/>
      <point x="102" y="25"/>
      <point x="186" y="-20"/>
    </contour>
    <contour>
      <point x="196" y="288" type="line"/>
      <point x="551" y="288" type="line"/>
      <point x="551" y="428" type="line"/>
      <point x="196" y="428" type="line"/>
    </contour>
  </outline>
</glyph>
<glyph name="uni042F" format="2">
  <advance width="648"/>
  <unicode hex="042F"/>
  <anchor x="324" y="-20" name="bottom"/>
  <anchor x="324" y="719" name="top"/>
  <outline>
    <contour>
      <point x="347.466" y="560" type="curve" smooth="yes"/>
      <point x="405" y="560" type="line"/>
      <point x="405" y="0" type="line"/>
      <point x="595" y="0" type="line"/>
      <point x="595" y="700" type="line"/>
      <point x="304.908" y="700" type="line" smooth="yes"/>
      <point x="136.032" y="700"/>
      <point x="34.5" y="615"/>
      <point x="34.5" y="476" type="curve" smooth="yes"/>
      <point x="34.5" y="334"/>
      <point x="140.408" y="244"/>
      <point x="305.499" y="244" type="curve" smooth="yes"/>
      <point x="563" y="244" type="line"/>
      <point x="563" y="384" type="line"/>
      <point x="340.527" y="384" type="line" smooth="yes"/>
      <point x="251.112" y="384"/>
      <point x="224.5" y="410"/>
      <point x="224.5" y="472" type="curve" smooth="yes"/>
      <point x="224.5" y="534"/>
      <point x="252.703" y="560"/>
    </contour>
    <contour>
      <point x="226" y="333" type="line"/>
      <point x="36" y="0" type="line"/>
      <point x="240" y="0" type="line"/>
      <point x="403" y="281" type="line"/>
    </contour>
  </outline>
</glyph>
<glyph name="uni0431" format="2">
  <advance width="582"/>
  <unicode hex="0431"/>
  <outline>
    <contour>
      <point x="297.302" y="-20" type="curve" smooth="yes"/>
      <point x="465.041" y="-20"/>
      <point x="562" y="74"/>
      <point x="562" y="235" type="curve" smooth="yes"/>
      <point x="562" y="392"/>
      <point x="471.037" y="480"/>
      <point x="331.243" y="480" type="curve" smooth="yes"/>
      <point x="237.408" y="480"/>
      <point x="179" y="440"/>
      <point x="154" y="393" type="curve"/>
      <point x="156" y="504"/>
      <point x="198.923" y="542.039"/>
      <point x="331.523" y="556" type="curve" smooth="yes"/>
      <point x="417.373" y="565.039"/>
      <point x="472.705" y="585"/>
      <point x="508" y="615" type="curve"/>
      <point x="508" y="749" type="line"/>
      <point x="458.717" y="714"/>
      <point x="400.698" y="698.36"/>
      <point x="327.295" y="690" type="curve" smooth="yes"/>
      <point x="93.401" y="663.36"/>
      <point x="20" y="560"/>
      <point x="20" y="340" type="curve" smooth="yes"/>
      <point x="20" y="92"/>
      <point x="114.05" y="-20"/>
    </contour>
    <contour>
      <point x="294.354" y="114" type="curve" smooth="yes"/>
      <point x="242.891" y="114"/>
      <point x="214" y="151"/>
      <point x="214" y="232" type="curve" smooth="yes"/>
      <point x="214" y="311"/>
      <point x="241.086" y="346"/>
      <point x="292.549" y="346" type="curve" smooth="yes"/>
      <point x="344.011" y="346"/>
      <point x="372" y="311"/>
      <point x="372" y="230" type="curve" smooth="yes"/>
      <point x="372" y="151"/>
      <point x="345.817" y="114"/>
    </contour>
  </outline>
</glyph>
<glyph name="uni0432" format="2">
  <advance width="536"/>
  <unicode hex="0432"/>
  <anchor x="263" y="-20" name="bottom"/>
  <anchor x="263" y="520" name="top"/>
  <outline>
    <contour>
      <point x="43" y="0" type="line"/>
      <point x="325.882" y="0" type="line" smooth="yes"/>
      <point x="437.102" y="0"/>
      <point x="519" y="58"/>
      <point x="519" y="148" type="curve" smooth="yes"/>
      <point x="519" y="223"/>
      <point x="464" y="261.769"/>
      <point x="362" y="265" type="curve"/>
      <point x="450" y="283"/>
      <point x="491" y="314"/>
      <point x="491" y="384" type="curve" smooth="yes"/>
      <point x="491" y="465"/>
      <point x="436" y="500"/>
      <point x="302" y="500" type="curve" smooth="yes"/>
      <point x="43" y="500" type="line"/>
    </contour>
    <contour>
      <point x="290.43" y="124" type="curve" smooth="yes"/>
      <point x="226" y="124" type="line"/>
      <point x="226" y="202" type="line"/>
      <point x="290.43" y="202" type="line" smooth="yes"/>
      <point x="324.608" y="202"/>
      <point x="336" y="186.833"/>
      <point x="336" y="165.167" type="curve" smooth="yes"/>
      <point x="336" y="143.5"/>
      <point x="324.608" y="124"/>
    </contour>
    <contour>
      <point x="272.654" y="302" type="curve" smooth="yes"/>
      <point x="226" y="302" type="line"/>
      <point x="226" y="377" type="line"/>
      <point x="273.923" y="377" type="line" smooth="yes"/>
      <point x="296.769" y="377"/>
      <point x="312" y="363.566"/>
      <point x="312" y="337.812" type="curve" smooth="yes"/>
      <point x="312" y="314.309"/>
      <point x="299.308" y="302"/>
    </contour>
  </outline>
</glyph>
<glyph name="uni0434" format="2">
  <advance width="730"/>
  <unicode hex="0434"/>
  <anchor x="399" y="-20" name="bottom"/>
  <anchor x="370" y="520" name="top"/>
  <outline>
    <contour>
      <point x="11" y="-120" type="curve"/>
      <point x="150" y="-120" type="line"/>
      <point x="151" y="-87"/>
      <point x="137" y="0"/>
      <point x="196" y="0" type="curve" smooth="yes"/>
      <point x="528" y="0" type="line" smooth="yes"/>
      <point x="599" y="0"/>
      <point x="580" y="-82"/>
      <point x="580" y="-120" type="curve"/>
      <point x="719" y="-120" type="line"/>
      <point x="719" y="95"/>
      <point x="698" y="139"/>
      <point x="598" y="139" type="curve"/>
      <point x="598" y="500" type="line"/>
      <point x="152" y="500" type="line"/>
      <point x="152" y="328.499" type="line" smooth="yes"/>
      <point x="152" y="190.673"/>
      <point x="138.21" y="171.649"/>
      <point x="112.82" y="142.614" type="curve"/>
      <point x="34.055" y="133.849"/>
      <point x="11" y="65.711"/>
    </contour>
    <contour>
      <point x="408" y="140" type="line"/>
      <point x="248.99" y="140" type="line"/>
      <point x="324.35" y="152.55"/>
      <point x="338" y="183.75"/>
      <point x="338" y="360" type="curve"/>
      <point x="408" y="360" type="line"/>
    </contour>
  </outline>
</glyph>
<glyph name="uni0436" format="2">
  <advance width="853"/>
  <unicode hex="0436"/>
  <anchor x="426" y="0" name="bottom"/>
  <anchor x="426" y="500" name="top"/>
  <outline>
    <contour>
      <point x="638.181" y="0" type="line" name="ab02"/>
      <point x="850.181" y="0" type="line"/>
      <point x="716.181" y="263" type="line"/>
      <point x="837.181" y="500" type="line" name="av02"/>
      <point x="638.181" y="500" type="line"/>
      <point x="560.181" y="323" type="line" name="iv02"/>
      <point x="380.181" y="323" type="line"/>
      <point x="382.181" y="189" type="line"/>
      <point x="546.181" y="189" type="line" name="iv01"/>
    </contour>
    <contour>
      <point x="2" y="0" type="line"/>
      <point x="214" y="0" type="line" name="ab02"/>
      <point x="306" y="189" type="line" name="iv01"/>
      <point x="470" y="189" type="line"/>
      <point x="472" y="323" type="line"/>
      <point x="292" y="323" type="line" name="iv02"/>
      <point x="214" y="500" type="line"/>
      <point x="15" y="500" type="line" name="av02"/>
      <point x="136" y="263" type="line"/>
    </contour>
    <contour>
      <point x="331" y="0" type="line"/>
      <point x="521" y="0" type="line"/>
      <point x="521" y="500" type="line"/>
      <point x="331" y="500" type="line"/>
    </contour>
  </outline>
</glyph>
<glyph name="uni0438" format="2">
  <advance width="609"/>
  <unicode hex="0438"/>
  <anchor x="305" y="-20" name="bottom"/>
  <anchor x="305" y="520" name="top"/>
  <outline>
    <contour>
      <point x="43" y="0" type="line"/>
      <point x="203" y="0" type="line"/>
      <point x="387" y="245" type="line"/>
      <point x="387" y="0" type="line"/>
      <point x="567" y="0" type="line"/>
      <point x="567" y="500" type="line"/>
      <point x="407" y="500" type="line"/>
      <point x="223" y="255" type="line"/>
      <point x="223" y="500" type="line"/>
      <point x="43" y="500" type="line"/>
    </contour>
  </outline>
</glyph>
<glyph name="uni043A" format="2">
  <advance width="588"/>
  <unicode hex="043A"/>
  <anchor x="288" y="-20" name="bottom"/>
  <anchor x="288" y="520" name="top"/>
  <outline>
    <contour>
      <point x="220" y="199" type="line"/>
      <point x="406" y="199" type="line" smooth="yes"/>
      <point x="486" y="199"/>
      <point x="520" y="255"/>
      <point x="531" y="337" type="curve"/>
      <point x="548" y="500" type="line"/>
      <point x="369" y="500" type="line"/>
      <point x="358" y="391" type="line" smooth="yes"/>
      <point x="352" y="337"/>
      <point x="339" y="332"/>
      <point x="303" y="332" type="curve" smooth="yes"/>
      <point x="220" y="332" type="line"/>
    </contour>
    <contour>
      <point x="54" y="0" type="line"/>
      <point x="244" y="0" type="line"/>
      <point x="244" y="500" type="line"/>
      <point x="54" y="500" type="line"/>
    </contour>
    <contour>
      <point x="391" y="0" type="line"/>
      <point x="586" y="0" type="line"/>
      <point x="478" y="247" type="line"/>
      <point x="289" y="235" type="line"/>
    </contour>
  </outline>
</glyph>
<glyph name="uni043B" format="2">
  <advance width="590"/>
  <unicode hex="043B"/>
  <outline>
    <contour>
      <point x="98" y="-20" type="curve" smooth="yes"/>
      <point x="254" y="-20"/>
      <point x="291" y="56"/>
      <point x="291" y="360" type="curve"/>
      <point x="357" y="360" type="line"/>
      <point x="357" y="0" type="line"/>
      <point x="547" y="0" type="line"/>
      <point x="547" y="500" type="line"/>
      <point x="102" y="500" type="line"/>
      <point x="102" y="203"/>
      <point x="94" y="114"/>
      <point x="49" y="114" type="curve" smooth="yes"/>
      <point x="36" y="114"/>
      <point x="29" y="117"/>
      <point x="23" y="119" type="curve"/>
      <point x="-4" y="-8" type="line"/>
      <point x="23" y="-15"/>
      <point x="57" y="-20"/>
    </contour>
  </outline>
</glyph>
<glyph name="uni043C" format="2">
  <advance width="689"/>
  <unicode hex="043C"/>
  <outline>
    <contour>
      <point x="43" y="500" type="line"/>
      <point x="43" y="0" type="line"/>
      <point x="223" y="0" type="line"/>
      <point x="223" y="242" type="line"/>
      <point x="317" y="80" type="line"/>
      <point x="373" y="80" type="line"/>
      <point x="467" y="242" type="line"/>
      <point x="467" y="0" type="line"/>
      <point x="647" y="0" type="line"/>
      <point x="647" y="500" type="line"/>
      <point x="477" y="500" type="line"/>
      <point x="345" y="262" type="line"/>
      <point x="213" y="500" type="line"/>
    </contour>
  </outline>
</glyph>
<glyph name="uni0442" format="2">
  <advance width="525"/>
  <unicode hex="0442"/>
  <anchor x="262" y="-20" name="bottom"/>
  <anchor x="263" y="520" name="top"/>
  <outline>
    <contour>
      <point x="168" y="370" type="line"/>
      <point x="168" y="0" type="line"/>
      <point x="358" y="0" type="line"/>
      <point x="358" y="370" type="line"/>
      <point x="509" y="370" type="line"/>
      <point x="509" y="500" type="line"/>
      <point x="17" y="500" type="line"/>
      <point x="17" y="370" type="line"/>
    </contour>
  </outline>
</glyph>
<glyph name="uni0444" format="2">
  <advance width="806"/>
  <unicode hex="0444"/>
  <outline>
    <contour>
      <point x="308" y="750" type="line"/>
      <point x="308" y="-200" type="line"/>
      <point x="497" y="-200" type="line"/>
      <point x="497" y="750" type="line"/>
    </contour>
    <contour>
      <point x="342.002" y="-16.026" type="curve"/>
      <point x="355.735" y="117.956" type="line"/>
      <point x="337.939" y="112.824"/>
      <point x="319.578" y="110"/>
      <point x="303" y="110" type="curve" smooth="yes"/>
      <point x="237" y="110"/>
      <point x="210" y="157"/>
      <point x="210" y="251" type="curve" smooth="yes"/>
      <point x="210" y="344"/>
      <point x="233" y="390"/>
      <point x="308" y="390" type="curve" smooth="yes"/>
      <point x="314.917" y="390"/>
      <point x="321.884" y="389.53"/>
      <point x="328.815" y="388.626" type="curve"/>
      <point x="331.48" y="517.265" type="line"/>
      <point x="316.165" y="519.07"/>
      <point x="300.034" y="520"/>
      <point x="283" y="520" type="curve" smooth="yes"/>
      <point x="120" y="520"/>
      <point x="20" y="421"/>
      <point x="20" y="255" type="curve" smooth="yes"/>
      <point x="20" y="79"/>
      <point x="121" y="-20"/>
      <point x="283" y="-20" type="curve" smooth="yes"/>
      <point x="303.974" y="-20"/>
      <point x="323.591" y="-18.643"/>
    </contour>
    <contour>
      <point x="414.286" y="132.077" type="curve"/>
      <point x="432.59" y="-10.085" type="line"/>
      <point x="459.7" y="-16.567"/>
      <point x="489.633" y="-20"/>
      <point x="523" y="-20" type="curve" smooth="yes"/>
      <point x="685" y="-20"/>
      <point x="786" y="79"/>
      <point x="786" y="255" type="curve" smooth="yes"/>
      <point x="786" y="421"/>
      <point x="686" y="520"/>
      <point x="523" y="520" type="curve" smooth="yes"/>
      <point x="502.98" y="520"/>
      <point x="484.207" y="518.716"/>
      <point x="466.541" y="516.235" type="curve"/>
      <point x="480.538" y="389.029" type="line"/>
      <point x="486.36" y="389.67"/>
      <point x="492.197" y="390"/>
      <point x="498" y="390" type="curve" smooth="yes"/>
      <point x="573" y="390"/>
      <point x="596" y="344"/>
      <point x="596" y="251" type="curve" smooth="yes"/>
      <point x="596" y="157"/>
      <point x="569" y="110"/>
      <point x="503" y="110" type="curve" smooth="yes"/>
      <point x="474.732" y="110"/>
      <point x="441.278" y="118.211"/>
    </contour>
  </outline>
</glyph>
<glyph name="uni0447" format="2">
  <advance width="575"/>
  <unicode hex="0447"/>
  <anchor x="288" y="-20" name="bottom"/>
  <anchor x="288" y="520" name="top"/>
  <outline>
    <contour>
      <point x="343" y="185.61" type="curve"/>
      <point x="343" y="0" type="line"/>
      <point x="533" y="0" type="line"/>
      <point x="533" y="500" type="line"/>
      <point x="343" y="500" type="line"/>
      <point x="343" y="365" type="line" smooth="yes"/>
      <point x="343" y="300"/>
      <point x="309.1" y="274"/>
      <point x="278.282" y="274" type="curve" smooth="yes"/>
      <point x="244.967" y="274"/>
      <point x="230" y="294.45"/>
      <point x="230" y="340" type="curve" smooth="yes"/>
      <point x="230" y="500" type="line"/>
      <point x="40" y="500" type="line"/>
      <point x="40" y="340" type="line" smooth="yes"/>
      <point x="40" y="212.04"/>
      <point x="109.589" y="141"/>
      <point x="219.588" y="141" type="curve" smooth="yes"/>
      <point x="269.159" y="141"/>
      <point x="312.801" y="155.44"/>
    </contour>
  </outline>
</glyph>
